<svg width="78" height="74" viewBox="0 0 78 74" fill="none" xmlns="http://www.w3.org/2000/svg">
<path d="M70.1354 54.283C70.1387 53.0748 69.5455 52.6688 68.4274 52.711C67.3254 52.75 66.2201 52.7207 65.157 52.7207C64.7681 49.6547 64.3662 49.0116 62.4928 48.9759C58.5159 48.9012 54.5358 48.9077 50.5557 48.9726C48.8703 48.9986 48.1994 49.7716 48.0017 51.493C47.9595 51.8535 47.9174 52.2141 47.8655 52.6428H14.5595V50.5284C14.5595 45.2473 14.5855 39.9662 14.5498 34.6851C14.5271 31.1968 12.3717 29.1019 9.01391 29.1312C7.84386 29.1409 7.22479 29.5274 7.22479 30.8201C7.24748 44.614 7.24748 58.4111 7.22479 72.205C7.22479 73.3839 7.7142 73.8939 8.84212 73.8906C10.6701 73.8906 12.4981 73.8939 14.3262 73.8841C15.2434 73.8776 15.7652 73.5366 15.9337 72.4973C16.3972 69.6488 17.8785 68.4796 20.8247 68.4764C32.7099 68.4699 44.592 68.4699 56.4773 68.4764C59.4332 68.4764 60.8819 69.6034 61.3973 72.4778C61.582 73.4976 62.0585 73.8809 62.9887 73.8874C64.8167 73.8971 66.6447 73.8906 68.4727 73.8939C69.5812 73.8939 70.1387 73.4229 70.1322 72.2309C70.1063 66.2483 70.1095 60.2689 70.1257 54.2862L70.1354 54.283ZM50.3774 51.3436H62.7132V61.0841H50.3774V51.3436ZM67.9282 70.4446C67.9314 71.2631 67.6397 71.6398 66.8003 71.5911C66.2104 71.5554 65.6108 71.5359 65.0274 71.5976C64.0194 71.7048 63.5527 71.3215 63.1605 70.3342C62.1006 67.6839 60.0587 66.258 57.1676 66.2548C44.7962 66.2418 32.4215 66.2386 20.05 66.2645C17.3761 66.271 15.3406 67.5605 14.3521 70.0191C13.8238 71.3345 13.1496 71.7373 11.8661 71.5976C11.1369 71.5196 10.3914 71.5846 9.55195 71.5846V31.5931C11.5485 31.8074 12.2518 32.5772 12.2907 34.6104C12.3426 37.1957 12.3069 39.7843 12.3102 42.3729C12.3102 45.8222 12.3004 49.2715 12.3102 52.724C12.3167 54.7994 12.4495 54.9293 14.5012 54.9293C24.8826 54.9326 35.264 54.9293 45.6486 54.9293C46.3389 54.9293 47.0293 54.9293 47.9952 54.9293C47.9952 56.7709 47.9919 58.4695 47.9952 60.1682C48.0049 62.734 48.6855 63.4583 51.2201 63.4778C54.8242 63.5038 58.4284 63.5038 62.0326 63.4713C64.363 63.4486 64.9755 62.7893 64.9917 60.454C65.0014 58.999 65.0436 57.5406 64.9853 56.0888C64.9399 54.9488 65.6108 54.9163 66.434 54.9326C67.2249 54.9456 67.9347 54.8936 67.925 56.0563C67.8925 60.8535 67.9023 65.6507 67.9217 70.4478L67.9282 70.4446Z" fill="url(#paint0_linear_84_1915)"/>
<path d="M76.5075 32.4376C73.1043 11.6737 53.8259 -2.54237 33.1539 0.380749C14.1414 3.07002 -0.0710381 19.4655 0.000267118 38.9237C0.0521254 39.9663 -0.0321696 41.3434 0.217399 42.6556C0.778117 45.6079 1.44905 48.544 2.22369 51.4477C2.35982 51.9543 3.29649 52.6624 3.74701 52.5877C4.88465 52.396 4.57027 51.4477 4.27856 50.6584C4.20402 50.457 4.12621 50.2557 4.06139 50.0511C2.17505 44.3087 1.71807 38.4268 2.752 32.4993C6.52469 10.904 27.9616 -2.37023 48.9513 3.81704C65.6269 8.73438 76.5561 25.3474 74.4558 42.727C74.1609 45.1694 73.396 47.5502 72.9746 49.9796C72.8806 50.522 73.1367 51.4704 73.5289 51.6848C74.404 52.1622 74.861 51.4379 75.0846 50.6259C75.1267 50.47 75.2045 50.3271 75.2532 50.1712C77.0617 44.3607 77.4895 38.4203 76.5107 32.4376H76.5075Z" fill="url(#paint1_linear_84_1915)"/>
<path d="M26.1174 50.603C26.6554 50.5901 27.1935 50.603 27.7315 50.603V50.5868C28.7006 50.5868 29.673 50.6485 30.6323 50.5706C31.7635 50.4796 32.2756 49.9048 31.8445 48.703C31.018 46.3938 29.6762 44.4385 27.55 43.2335C26.3735 42.5645 25.7966 41.6745 25.3233 40.4923C24.0917 37.4198 22.228 34.9611 18.7373 34.2238C17.4765 33.9575 16.9061 34.3797 16.9255 35.6886C16.9547 37.5757 17.0552 39.4692 16.9061 41.3432C16.5333 45.9585 19.755 50.746 26.1142 50.603H26.1174ZM19.2819 36.7507C21.8099 37.907 22.8698 40.0019 23.5893 42.2657C23.9588 43.4317 24.5228 44.117 25.6053 44.7341C26.9277 45.4876 28.0038 46.6796 29.4882 47.9365C21.5895 49.1805 18.1475 46.6731 19.2819 36.7507Z" fill="url(#paint2_linear_84_1915)"/>
<defs>
<linearGradient id="paint0_linear_84_1915" x1="8.44996" y1="33.977" x2="34.8563" y2="18.6005" gradientUnits="userSpaceOnUse">
<stop stop-color="#009F6A"/>
<stop offset="1" stop-color="#FFCC16"/>
</linearGradient>
<linearGradient id="paint1_linear_84_1915" x1="1.5" y1="5.6939" x2="33.1419" y2="-13.5059" gradientUnits="userSpaceOnUse">
<stop stop-color="#009F6A"/>
<stop offset="1" stop-color="#FFCC16"/>
</linearGradient>
<linearGradient id="paint2_linear_84_1915" x1="17.1715" y1="35.9302" x2="24.5947" y2="33.1054" gradientUnits="userSpaceOnUse">
<stop stop-color="#009F6A"/>
<stop offset="1" stop-color="#FFCC16"/>
</linearGradient>
</defs>
</svg>
