<svg width="72" height="80" viewBox="0 0 72 80" fill="none" xmlns="http://www.w3.org/2000/svg">
<path d="M67.9816 78.8875L67.8584 78.764C67.4824 78.384 67.4792 77.7767 67.8584 77.4129C68.0918 77.1888 68.3251 77.0069 68.5682 77.0004C68.8242 76.9907 69.0835 77.1531 69.3461 77.3609C69.7545 77.6825 69.8193 78.2833 69.4951 78.6926L69.3947 78.8192C69.0511 79.2577 68.3867 79.2934 67.9848 78.8907L67.9816 78.8875Z" fill="url(#paint0_linear_84_1886)"/>
<path d="M68.8957 61.2195C68.0497 60.5179 67.0968 59.9495 66.1958 59.3195C68.9313 55.3862 68.2766 53.3303 63.1945 49.6017C65.3401 46.2629 64.6563 43.5216 61.0975 41.8847C59.8108 41.2935 58.3134 40.8064 56.9294 40.8486C54.4661 40.9233 52.0158 41.4365 49.4359 41.784C49.4359 40.631 49.3224 39.1239 49.4683 37.6461C49.6174 36.1229 48.927 35.155 47.6338 34.8464C44.7232 34.1481 41.7705 33.6187 38.8179 33.1348C38.7174 33.1186 38.6039 33.1608 38.4873 33.2387C37.8585 33.6545 37.7904 34.5996 38.3609 35.0933C38.4354 35.1582 38.5164 35.2135 38.6039 35.2524C39.1679 35.5025 39.868 35.4148 40.5032 35.5253C42.516 35.876 44.5255 36.2528 46.535 36.6166C42.61 39.2863 24.8907 39.1629 21.831 36.8666C22.5668 36.6068 23.1955 36.2918 23.8535 36.1748C25.487 35.8793 27.1562 35.7429 28.7736 35.3823C29.0523 35.3206 29.2921 35.077 29.5255 34.8042C29.814 34.4697 29.8075 33.9728 29.5158 33.6447C29.2921 33.3914 29.0685 33.1803 28.8643 33.1965C25.8079 33.4044 22.7191 33.6415 20.0354 35.3239C19.4941 35.6617 18.9334 36.4672 18.9172 37.068C18.8265 40.8941 18.8459 44.7201 18.9464 48.5461C18.9464 48.6631 18.9885 48.78 19.0501 48.8937C19.4618 49.6569 20.6026 49.6732 21.0078 48.9034C21.0629 48.7962 21.0985 48.6923 21.105 48.5819C21.2217 46.107 21.1568 43.6255 21.1731 41.1474C21.1763 40.592 21.2541 40.0399 21.293 39.5072C30.0279 41.4624 38.5423 41.4592 47.0925 39.4942C47.1443 39.7573 47.2221 39.9619 47.2221 40.1665C47.2286 49.9232 47.2156 59.6767 47.2545 69.4334C47.2578 70.4338 46.7262 70.6936 45.9646 70.9632C41.5987 72.5157 37.1033 73.0484 32.4879 72.912C31.8656 72.8925 30.7701 73.4544 30.6761 73.9091C30.4525 74.9906 31.4799 75.0621 32.3096 75.1173C37.3691 75.4388 42.2729 74.6788 47.0374 72.9769C49.4488 72.1162 49.4391 72.0837 49.4391 69.5276C49.4391 66.6435 49.4391 63.7593 49.4391 60.6933C53.565 62.0315 57.5646 62.2978 61.4443 61.2974C64.5655 60.4919 66.5297 61.947 68.3544 63.8763C70.0139 65.6301 69.7124 67.829 67.6835 69.1281C66.4843 69.8947 65.0841 70.6417 63.7131 70.7813C60.1543 71.1418 56.5631 71.1776 52.9817 71.3042C52.1163 71.3335 50.9819 70.7878 50.7906 72.1682C50.5929 73.581 51.8861 73.5226 52.6867 73.5453C55.6361 73.6232 58.6115 73.7629 61.5318 73.4641C63.6256 73.2497 65.7744 72.6326 67.6835 71.7297C72.4933 69.4562 72.9925 64.6135 68.9022 61.2227L68.8957 61.2195ZM50.3628 44.7136C52.7872 42.4043 58.8676 42.3978 61.3341 44.7006C62.6824 45.9575 62.569 47.4873 60.8771 48.1629C59.3084 48.7865 57.5938 49.0333 55.8825 49.4588C54.1647 49.0366 52.4501 48.7897 50.8749 48.1824C49.1928 47.5328 49.0502 45.964 50.3661 44.7136H50.3628ZM64.0534 57.8904C62.6954 58.5822 61.172 59.0921 59.6681 59.3389C56.6766 59.8261 53.6785 59.7124 50.7615 58.6926C49.8215 58.3646 49.2997 57.8839 49.4229 56.8251C49.4845 56.2924 49.4326 55.75 49.4326 55.2108C49.4326 52.3332 50.7323 51.1607 53.7077 51.3263C54.2425 51.3556 54.7805 51.3296 55.3185 51.3296C55.3185 51.3816 55.325 51.4335 55.3282 51.4855C56.5566 51.3686 57.7883 51.2939 59.0069 51.125C60.9743 50.8521 64.2511 52.5183 65.1457 54.3014C65.8393 55.6818 65.5346 57.1369 64.0534 57.8904Z" fill="url(#paint1_linear_84_1886)"/>
<path d="M28.8546 57.8093C28.2063 56.718 27.1432 55.6981 26.025 55.0972C23.8923 53.9507 21.8958 55.1947 19.9544 56.0716C18.4602 51.4174 17.0762 49.9915 13.9842 50.1897C9.23916 50.495 8.52286 53.8793 8.67195 57.7248C3.36944 57.0395 1.50902 57.806 0.410276 61.0149C-0.704678 64.2629 0.238495 65.6465 5.92022 69.0698C5.55073 69.7193 5.14882 70.3559 4.81174 71.0218C3.34674 73.9221 3.85558 76.4133 6.25079 78.1801C8.61682 79.9275 11.3005 79.7327 13.498 77.4526C14.6324 76.2769 15.5108 74.8543 16.4896 73.5616C17.611 74.5165 18.7389 75.6793 20.0548 76.5594C22.758 78.3653 25.5227 78.008 27.4382 75.7799C29.3861 73.5194 29.3083 70.8204 27.1627 68.3422C26.5533 67.6374 25.7917 67.0626 25.0884 66.413C29.4671 62.798 30.4881 60.5602 28.8546 57.806V57.8093ZM3.69356 65.234C2.20263 64.2726 1.95631 63.0351 2.64343 61.4372C3.29166 59.9236 4.49412 59.4592 6.16655 59.5469C9.4077 59.7125 10.1888 62.2914 11.4302 64.5844C10.4287 65.2762 9.44335 66.0135 8.39646 66.6533C8.07883 66.8482 7.53753 66.9196 7.19721 66.793C6.00123 66.3448 4.7599 65.9225 3.6968 65.2372L3.69356 65.234ZM14.5028 71.5577C13.7314 73.1751 12.6974 74.6886 11.5987 76.1112C11.1644 76.6764 10.2568 76.8745 9.90032 77.0629C7.3463 77.0564 5.7938 74.9712 6.46471 72.9445C7.36575 70.226 9.43038 68.5274 11.7899 67.147C12.0557 66.9911 12.6034 67.0788 12.9016 67.2542C14.2921 68.0629 15.1834 70.1253 14.4995 71.5577H14.5028ZM15.2126 65.6919C14.8171 65.6042 14.3278 65.169 14.2305 64.789C14.1657 64.5454 14.7296 63.8731 15.0181 63.8699C15.4006 63.8634 15.7928 64.3213 16.4572 64.763C15.8576 65.2372 15.4719 65.7504 15.2126 65.6952V65.6919ZM12.6067 61.9731C11.2454 60.0341 10.6977 57.6306 11.0218 55.029C11.213 53.496 12.1918 52.6613 13.6925 52.4405C15.2126 52.2163 16.3275 52.7912 16.9434 54.2138C18.0291 56.7245 17.7439 59.2221 17.0114 61.4826C15.3649 61.6645 14.0847 61.8074 12.6067 61.9731ZM26.2033 70.8983C26.4302 71.3076 26.5209 71.7948 26.589 71.9961C26.589 74.3444 24.3397 75.9976 22.4144 75.244C19.3159 74.0326 17.6791 71.4115 16.6581 68.4754C16.4864 67.985 18.1329 66.1337 18.6385 66.2473C21.6236 66.9196 24.5633 67.933 26.2 70.8951L26.2033 70.8983ZM20.5248 64.3538C19.9738 64.1589 19.4326 63.9381 18.8005 63.6977C19.1344 62.2914 19.4261 61.0442 19.7307 59.8002C20.0127 58.6407 22.463 56.9875 24.0674 56.9323C25.5616 56.8803 26.4723 57.8028 26.9747 59.0662C27.2145 59.6671 27.2826 60.4725 27.0946 61.0799C26.32 63.5646 22.9362 65.2015 20.5216 64.3538H20.5248Z" fill="url(#paint2_linear_84_1886)"/>
<path d="M13.5077 9.75957C17.3744 9.89274 21.2476 9.78881 25.1207 9.81479C27.9632 9.83428 28.7702 10.6495 28.8188 13.4622C28.8253 13.787 28.7151 14.1897 28.8707 14.4138C29.143 14.8101 29.5416 15.2875 29.9532 15.359C30.2385 15.4077 30.8219 14.9043 30.9483 14.534C31.966 11.5362 29.9533 8.20382 26.8353 7.67117C26.1514 7.55424 25.4448 7.54775 24.748 7.5445C20.985 7.52826 17.2188 7.56399 13.4559 7.50877C11.9196 7.48604 10.8986 6.38824 10.8662 4.97215C10.837 3.55282 11.8158 2.43878 13.3165 2.25365C13.848 2.18869 14.3893 2.22117 14.9273 2.22117C23.7983 2.22117 32.6693 2.22117 41.5436 2.22117C42.3895 2.22117 43.498 2.39656 43.5272 1.17534C43.5596 -0.182282 42.3798 0.0255842 41.4918 0.0255842C36.8666 0.0158404 32.2448 0.0223363 27.6196 0.0223363C22.9427 0.0223363 18.2624 0.0060967 13.5855 0.03208C11.281 0.0450716 9.45627 1.38646 8.82749 3.43914C7.8519 6.64158 9.98132 9.64265 13.5109 9.76607L13.5077 9.75957Z" fill="url(#paint3_linear_84_1886)"/>
<path d="M38.565 29.7796C38.8016 29.9192 39.5309 29.6367 39.7383 29.3346C40.0884 28.8279 40.3023 28.1686 40.3866 27.5515C40.7204 25.1351 39.6216 23.2902 37.92 21.7118C36.1082 20.0293 35.998 19.2336 36.9834 17.0478C37.4079 16.0896 36.643 14.9951 35.6059 15.1282C35.4308 15.151 35.2655 15.1932 35.1164 15.2679C31.4637 17.129 29.143 20.1105 28.1934 24.112C27.4933 27.0546 27.8174 29.9712 30.5011 31.6017C32.5819 32.8651 33.9399 33.9856 33.444 36.5872C33.3857 36.8893 34.1247 37.3472 34.5006 37.7337C34.5039 37.737 34.5104 37.737 34.5136 37.7337C34.8701 37.3375 35.5151 36.9542 35.5281 36.5482C35.6221 33.8557 35.6221 31.1599 35.5281 28.4674C35.5248 28.357 35.4665 28.2466 35.3758 28.1361C34.909 27.571 34.0112 27.6295 33.5866 28.2303C33.5153 28.331 33.4602 28.4349 33.4246 28.5486C33.2431 29.1202 33.3792 29.7958 33.3824 30.6045C33.3824 30.611 33.3759 30.6175 33.3662 30.6143C31.6257 30.1109 30.6469 29.1235 30.3617 27.5872C29.801 24.5699 30.9127 22.1827 32.6402 20.0846C33.081 19.5519 33.927 19.6623 34.2284 20.2827C34.6692 21.1856 35.084 22.0398 35.7161 22.6764C37.3885 24.3621 38.9021 25.9113 37.8779 28.5616C37.7645 28.8572 38.2053 29.5652 38.565 29.7796Z" fill="url(#paint4_linear_84_1886)"/>
<path d="M38.5974 5.4592C35.541 5.51117 33.8848 7.20333 34.0663 10.2206C34.1019 10.802 34.6497 11.7179 35.1164 11.8284C36.1406 12.0752 36.2087 11.143 36.2573 10.3473C36.3967 8.05104 36.7921 7.69052 39.1225 7.68727C42.8887 7.68402 46.6516 7.68078 50.4179 7.69377C51.2832 7.69377 52.1875 7.61907 52.1811 6.54401C52.1713 5.43322 51.2119 5.45271 50.379 5.45271C48.3889 5.45271 46.3989 5.45271 44.4088 5.45271C42.4738 5.44946 40.5356 5.42348 38.6007 5.45271L38.5974 5.4592Z" fill="url(#paint5_linear_84_1886)"/>
<path d="M54.2133 2.15621C55.4287 2.31211 56.6765 2.20818 57.9114 2.20818C59.2532 2.20493 60.6048 2.28938 61.9304 2.15296C62.3356 2.11074 62.6824 1.46766 63.0551 1.09739C62.6726 0.740123 62.2999 0.084045 61.9013 0.0710534C59.3278 -0.023136 56.7479 -0.023136 54.1744 0.0678055C53.766 0.0807971 53.3803 0.707644 52.9816 1.04867C53.39 1.43518 53.7628 2.0945 54.21 2.15296L54.2133 2.15621Z" fill="url(#paint6_linear_84_1886)"/>
<path d="M46.4248 1.84454C46.8364 2.34472 47.5916 2.36421 48.0259 1.88352C48.4408 1.42556 48.363 0.707775 47.8638 0.344009C47.6661 0.201101 47.4717 0.100416 47.274 0.097168C46.9012 0.097168 46.5285 0.454438 46.1525 0.779229C45.9581 0.948121 45.9321 1.23718 46.0942 1.43856L46.4248 1.84454Z" fill="url(#paint7_linear_84_1886)"/>
<path d="M55.0138 5.79054C54.6249 6.23225 54.6767 6.91432 55.1337 7.28783C55.3574 7.46971 55.5778 7.60612 55.8014 7.60612C56.0186 7.60612 56.2357 7.46646 56.4529 7.28133C56.9002 6.89808 56.9358 6.21601 56.5372 5.78404L56.5307 5.77755C56.119 5.32934 55.4125 5.33583 55.0138 5.79379V5.79054Z" fill="url(#paint8_linear_84_1886)"/>
<defs>
<linearGradient id="paint0_linear_84_1886" x1="67.5752" y1="77.0547" x2="68.5501" y2="76.5963" gradientUnits="userSpaceOnUse">
<stop stop-color="#009F6A"/>
<stop offset="1" stop-color="#FFCC16"/>
</linearGradient>
<linearGradient id="paint1_linear_84_1886" x1="18.8589" y1="34.1915" x2="40.5413" y2="21.1147" gradientUnits="userSpaceOnUse">
<stop stop-color="#009F6A"/>
<stop offset="1" stop-color="#FFCC16"/>
</linearGradient>
<linearGradient id="paint2_linear_84_1886" x1="-3.44925e-08" y1="50.9072" x2="13.3911" y2="44.383" gradientUnits="userSpaceOnUse">
<stop stop-color="#009F6A"/>
<stop offset="1" stop-color="#FFCC16"/>
</linearGradient>
<linearGradient id="paint3_linear_84_1886" x1="8.59052" y1="0.401023" x2="17.5007" y2="-9.34235" gradientUnits="userSpaceOnUse">
<stop stop-color="#009F6A"/>
<stop offset="1" stop-color="#FFCC16"/>
</linearGradient>
<linearGradient id="paint4_linear_84_1886" x1="27.8752" y1="15.6873" x2="34.4465" y2="13.9329" gradientUnits="userSpaceOnUse">
<stop stop-color="#009F6A"/>
<stop offset="1" stop-color="#FFCC16"/>
</linearGradient>
<linearGradient id="paint5_linear_84_1886" x1="34.0528" y1="5.60103" x2="37.6344" y2="0.750098" gradientUnits="userSpaceOnUse">
<stop stop-color="#009F6A"/>
<stop offset="1" stop-color="#FFCC16"/>
</linearGradient>
<linearGradient id="paint6_linear_84_1886" x1="52.9816" y1="0.0565146" x2="53.9786" y2="-2.09524" gradientUnits="userSpaceOnUse">
<stop stop-color="#009F6A"/>
<stop offset="1" stop-color="#FFCC16"/>
</linearGradient>
<linearGradient id="paint7_linear_84_1886" x1="45.9878" y1="0.150983" x2="47.0052" y2="-0.376812" gradientUnits="userSpaceOnUse">
<stop stop-color="#009F6A"/>
<stop offset="1" stop-color="#FFCC16"/>
</linearGradient>
<linearGradient id="paint8_linear_84_1886" x1="54.7533" y1="5.50025" x2="55.707" y2="5.06329" gradientUnits="userSpaceOnUse">
<stop stop-color="#009F6A"/>
<stop offset="1" stop-color="#FFCC16"/>
</linearGradient>
</defs>
</svg>
