<svg width="78" height="67" viewBox="0 0 78 67" fill="none" xmlns="http://www.w3.org/2000/svg">
<path d="M76.954 64.2076C76.4646 61.8886 76.0206 59.5631 75.5474 57.2441C73.2008 45.7465 70.8672 34.2456 68.4915 22.7545C67.9891 20.3218 66.7802 19.4156 64.3007 19.3929C62.8195 19.3799 61.3383 19.3929 59.6885 19.3929C59.8895 18.4997 60.0191 17.8761 60.1747 17.259C61.1633 13.3453 62.1745 9.43806 63.1436 5.52107C63.7497 3.06565 62.7417 1.72427 60.2298 1.70803C54.6291 1.67555 49.0284 1.68204 43.4277 1.70803C41.3728 1.71452 40.6241 2.30889 40.0893 4.27388C39.2174 7.4958 38.3423 10.7145 37.5418 13.9527C37.3181 14.8621 36.8935 15.1804 35.9828 15.1641C33.6686 15.1187 31.3479 15.0829 29.037 15.1999C28.4504 15.2291 27.4715 15.7747 27.4099 16.1905C27.2511 17.2623 28.1911 17.3824 29.0597 17.3792C31.7531 17.3695 34.4465 17.3175 37.1366 17.4019C38.5433 17.4474 39.1266 16.8758 39.4443 15.5409C40.2578 12.1403 41.2594 8.78198 42.0794 5.38466C42.3484 4.26738 42.8637 3.94584 43.9625 3.95558C49.1872 4.00105 54.4087 3.96857 59.6334 3.97832C60.0904 3.97832 60.5474 4.08225 61.147 4.1537C60.0224 8.63582 58.8588 12.9393 57.8962 17.2883C57.5267 18.9577 56.7391 19.4286 55.1347 19.4221C45.7646 19.3702 36.3944 19.3962 27.0243 19.3897C26.5154 19.3897 26.0065 19.3214 25.381 19.2792C25.5398 16.9342 25.65 14.7874 25.8412 12.6437C25.9514 11.3933 25.4587 10.8249 24.2174 10.8412C22.6033 10.8606 20.986 10.8671 19.3719 10.8476C18.1305 10.8314 17.6281 11.3803 17.7416 12.6372C17.9328 14.7776 18.043 16.9277 18.2115 19.3962C16.3738 19.3962 14.7727 19.3929 13.1716 19.3962C10.1314 19.4059 9.03588 20.338 8.43302 23.3164C6.32628 33.7097 4.20655 44.0998 2.09008 54.4898C1.41268 57.8124 0.715837 61.1318 0.0676083 64.4609C-0.224095 65.9615 0.469501 66.9716 1.35433 66.4389C1.80809 66.1661 2.12248 65.445 2.2424 64.8702C4.6052 53.4862 6.97123 42.1023 9.21087 30.6956C9.51553 29.1399 10.1379 28.8671 11.5381 28.8703C28.9851 28.9125 46.4355 28.8995 63.8826 28.8995C67.5256 28.8995 67.4932 28.906 68.2257 32.5437C70.3843 43.2553 72.5591 53.9637 74.7534 64.6688C74.9251 65.5035 74.9575 66.7832 76.2767 66.4909C77.5278 66.2148 77.1453 65.13 76.954 64.2173V64.2076ZM23.5433 13.2446C23.4136 14.9985 23.3682 16.6517 23.1122 18.2691C23.0538 18.6329 22.2565 19.1071 21.7963 19.1071C21.336 19.1071 20.5322 18.6361 20.4771 18.2756C20.2243 16.6582 20.179 15.005 20.0526 13.2446H23.54H23.5433ZM10.1152 26.5351C10.4166 25.1385 10.5139 23.7256 11.0714 22.5239C11.3177 21.9945 12.4845 21.6372 13.2364 21.634C25.7213 21.5787 38.2095 21.595 50.6944 21.595C54.9986 21.595 59.306 21.5917 63.6103 21.595C65.8013 21.595 66.0476 21.7996 66.4981 23.9627C66.6634 24.7455 66.7801 25.5412 66.9519 26.5351H10.1152Z" fill="url(#paint0_linear_84_1904)"/>
<path d="M59.4875 39.647C61.0951 38.9876 61.6688 37.5845 61.3058 35.9443C60.9914 34.5315 59.7922 33.6481 58.0452 33.6416C53.634 33.6221 49.2228 33.6221 44.8116 33.6416C42.9706 33.6481 41.7811 34.5282 41.4441 36.0353C41.0973 37.578 41.8006 38.8252 43.3466 39.7411C43.7226 39.962 44.1115 40.6116 44.0693 41.0176C43.2655 48.7768 42.4002 56.5328 41.5348 64.2856C41.4311 65.2113 41.1491 66.3156 42.4132 66.4942C43.7647 66.6858 43.5767 65.3931 43.8004 64.5682C43.8555 64.3636 43.8393 64.1395 43.8652 63.9251C44.1893 60.9825 44.481 58.0366 44.8796 55.1038C44.9347 54.6945 45.5052 54.0352 45.8455 54.0287C49.764 53.954 53.6826 53.98 57.8086 53.98C58.2624 57.8742 58.6545 61.5606 59.1601 65.234C59.1699 65.3152 59.199 65.3931 59.2379 65.4678C59.6139 66.1954 60.6867 66.1954 61.1146 65.4938C61.2085 65.3412 61.2669 65.1918 61.2669 65.0391C61.2669 63.5938 60.9946 62.1517 60.839 60.7064C60.1325 54.2333 59.4291 47.7602 58.7226 41.2872C58.6448 40.5824 58.5476 40.0302 59.4907 39.6437L59.4875 39.647ZM45.2167 51.6675C45.6446 47.7732 46.0594 44.0024 46.4937 40.0562H56.2853C56.7164 43.9277 57.1409 47.7375 57.5785 51.6675H45.2167ZM57.7406 37.5715C53.4914 37.6397 49.239 37.6365 44.9899 37.578C44.5426 37.5715 44.0985 37.0779 43.6545 36.8115C44.118 36.49 44.5685 35.9184 45.0449 35.8956C47.1938 35.7949 49.3492 35.8534 51.5013 35.8534C53.6016 35.8534 55.7018 35.8047 57.7956 35.8924C58.2494 35.9119 58.6837 36.4218 59.1244 36.7043C58.661 37.0064 58.204 37.565 57.7373 37.5715H57.7406Z" fill="url(#paint1_linear_84_1904)"/>
<path d="M32.1225 39.5106C33.5065 38.9455 34.0218 37.6236 33.7236 36.149C33.4255 34.681 32.5017 33.6871 30.9492 33.6709C26.1556 33.6221 21.3652 33.6286 16.5715 33.6709C15.2524 33.6839 14.3189 34.4699 13.9656 35.7171C13.5929 37.0292 13.6383 38.6174 14.951 39.1663C16.9637 40.0075 16.5099 41.3619 16.2928 42.83C16.1664 43.6809 16.1177 44.5449 16.0237 45.4023C15.3269 51.7228 14.6138 58.0399 13.9429 64.3604C13.8522 65.2178 13.5281 66.4228 14.9055 66.504C16.0918 66.5722 16.0432 65.4874 16.1404 64.6202C16.5261 61.1449 16.9378 57.6729 17.3624 53.9736C21.4819 53.9736 25.4069 53.9346 29.3286 54.0353C29.6949 54.045 30.2848 54.9025 30.3529 55.4189C30.7775 58.6213 31.027 61.8497 31.4808 65.0489C31.5132 65.273 31.659 65.4809 31.8567 65.6823C32.3462 66.189 33.1792 66.0655 33.5065 65.4419C33.6038 65.26 33.6621 65.0814 33.6426 64.9093C32.855 57.137 31.9961 49.3713 31.1048 41.6088C30.9881 40.6019 30.9752 39.9783 32.1323 39.5041L32.1225 39.5106ZM17.6249 51.6708C17.9199 48.8451 18.1467 46.1266 18.5032 43.4276C18.9602 39.9653 19.0056 39.9718 22.5968 39.9718C24.2627 39.9718 25.9352 39.9166 27.5947 40.0205C28.0063 40.0465 28.6869 40.5532 28.7323 40.9072C29.1926 44.4215 29.5458 47.9487 29.951 51.674H17.6249V51.6708ZM30.1941 37.5716C28.0484 37.6528 25.8995 37.6073 23.7506 37.6073C21.6569 37.6041 19.5599 37.6561 17.4693 37.5619C16.9929 37.5424 16.5391 37.013 16.0756 36.7207C16.5067 36.4316 16.9313 35.8924 17.3656 35.8859C21.6634 35.8242 25.9611 35.821 30.2556 35.8892C30.6705 35.8957 31.0789 36.4771 31.4873 36.7921C31.0562 37.0649 30.6316 37.5521 30.1908 37.5684L30.1941 37.5716Z" fill="url(#paint2_linear_84_1904)"/>
<path d="M23.151 9.30174C23.4945 8.90549 23.9224 8.55472 24.1558 8.10326C24.3113 7.80445 24.2206 7.36274 24.1882 6.98923C24.0942 5.90767 24.5156 5.41724 25.65 5.41724C27.0048 5.41724 27.734 4.58252 28.1975 3.34507C28.3725 2.87737 29.0078 2.59155 29.4097 2.19531C29.7856 1.82505 30.1292 1.42555 30.4857 1.0358C30.0774 0.694774 29.7046 0.136134 29.2476 0.0516879C27.7891 -0.217889 26.7131 0.587593 26.1264 1.98744C25.9222 2.47463 25.4458 3.10148 24.9985 3.18917C22.6778 3.65687 21.9875 4.43312 21.9907 6.92752C21.9907 7.30427 21.8578 7.75898 22.0198 8.0383C22.2953 8.51575 22.7589 8.88276 23.1446 9.29849L23.151 9.30174Z" fill="url(#paint3_linear_84_1904)"/>
<defs>
<linearGradient id="paint0_linear_84_1904" x1="3" y1="7.53409" x2="42.3149" y2="-10.3039" gradientUnits="userSpaceOnUse">
<stop stop-color="#009F6A"/>
<stop offset="1" stop-color="#FFCC16"/>
</linearGradient>
<linearGradient id="paint1_linear_84_1904" x1="42.1369" y1="36.5904" x2="53.8248" y2="33.8708" gradientUnits="userSpaceOnUse">
<stop stop-color="#009F6A"/>
<stop offset="1" stop-color="#FFCC16"/>
</linearGradient>
<linearGradient id="paint2_linear_84_1904" x1="14.5429" y1="36.5988" x2="26.2241" y2="33.881" gradientUnits="userSpaceOnUse">
<stop stop-color="#009F6A"/>
<stop offset="1" stop-color="#FFCC16"/>
</linearGradient>
<linearGradient id="paint3_linear_84_1904" x1="22.2717" y1="0.83821" x2="26.9477" y2="-0.801259" gradientUnits="userSpaceOnUse">
<stop stop-color="#009F6A"/>
<stop offset="1" stop-color="#FFCC16"/>
</linearGradient>
</defs>
</svg>
