<svg width="34" height="80" viewBox="0 0 34 80" fill="none" xmlns="http://www.w3.org/2000/svg">
<path d="M29.3829 61.4862C30.3715 61.4862 31.2693 61.4862 32.1703 61.4862C33.2885 61.4862 33.8492 62.0189 33.8363 63.1751C33.8168 65.4941 33.8168 67.8099 33.8363 70.1289C33.846 71.2884 33.3015 71.7853 32.1606 71.7691C30.2937 71.7431 28.4236 71.7626 26.5988 71.7626C26.4984 72.1134 26.4076 72.2693 26.4206 72.4154C26.8451 76.9138 23.147 79.7459 18.671 79.7265C16.7944 79.72 14.8886 79.746 13.0508 79.4342C9.70922 78.8658 7.7678 76.563 7.65436 73.1982C7.61547 72.0549 7.23944 71.6911 6.13745 71.7496C4.74376 71.8243 3.34036 71.7204 1.94343 71.7788C0.588627 71.8341 -0.040152 71.3306 0.00198292 69.9048C0.0668058 67.7514 0.0635647 65.5916 0.00198292 63.4382C-0.0369108 62.0578 0.527083 61.431 1.90133 61.483C2.70189 61.5122 3.50888 61.4895 4.43585 61.4895V18.25C3.48943 18.25 2.54302 18.263 1.5966 18.25C0.559434 18.2338 0.0117222 17.7238 0.0182045 16.6455C0.0279279 14.2746 0.0279279 11.9036 0.0182045 9.53261C0.0117222 8.4543 0.520541 7.96062 1.5966 7.97361C3.5186 7.9931 5.44064 7.98012 7.31403 7.98012C7.4145 7.60985 7.49878 7.45395 7.48906 7.30454C7.12605 2.54635 11.0802 -0.0324976 15.2613 0.0064773C16.8722 0.0227169 18.5024 -0.0714718 20.0906 0.149386C24.1517 0.711275 26.1094 2.94584 26.3525 7.03821C26.3687 7.2948 26.4368 7.55139 26.5113 7.97686C28.3588 7.97686 30.177 8.01583 31.9921 7.96386C33.282 7.92489 33.8719 8.43157 33.846 9.75996C33.8006 11.9685 33.8039 14.1804 33.846 16.3889C33.8719 17.6816 33.3307 18.2987 32.031 18.263C31.1851 18.2403 30.3358 18.2597 29.3894 18.2597V61.4992L29.3829 61.4862ZM2.51063 10.2731V15.6842H31.4119C31.4119 14.2551 31.3438 12.9624 31.4314 11.6762C31.5124 10.4908 30.9971 10.2472 29.9243 10.2504C23.2605 10.2894 16.5966 10.2699 9.93282 10.2731C7.52465 10.2731 5.11975 10.2731 2.51063 10.2731ZM2.52685 69.3462H31.2888V64.0196H2.52685V69.3462ZM7.01579 46.0326C7.46631 45.6916 7.68349 45.5649 7.85527 45.3928C13.9746 39.264 20.0939 33.1352 26.2034 26.9934C26.4595 26.7368 26.79 26.3925 26.7965 26.0807C26.8484 23.9176 26.8225 21.7512 26.8225 19.4939C26.4854 19.6271 26.3687 19.6401 26.3038 19.7051C20.0646 25.9411 13.8254 32.1803 7.59921 38.4325C7.3464 38.6859 7.05146 39.0464 7.04174 39.3647C6.99312 41.4888 7.01579 43.6162 7.01579 46.0326ZM26.8549 29.8093C26.1062 30.5206 25.6816 30.9104 25.2732 31.3196C19.8313 36.7663 14.4057 42.2293 8.94433 47.6598C7.784 48.8129 6.66899 49.8359 6.94449 51.762C7.16489 53.2917 6.98991 54.8799 6.98991 56.8254C13.6796 50.1347 20.0031 43.8176 26.3038 37.4841C26.5793 37.2081 26.8225 36.7534 26.8322 36.3766C26.8841 34.3369 26.8581 32.2972 26.8581 29.8093H26.8549ZM6.75007 61.4765C8.85681 61.4765 10.4676 61.5414 12.0655 61.4407C12.636 61.405 13.3134 61.0965 13.7218 60.6905C17.8964 56.5721 22.0255 52.4115 26.1548 48.2477C26.44 47.9586 26.7933 47.5559 26.803 47.1986C26.8646 45.0745 26.8322 42.9471 26.8322 40.6671C26.4951 40.836 26.3395 40.875 26.2423 40.9692C20.0031 47.2084 13.7639 53.4444 7.55387 59.7096C7.20058 60.0669 7.10011 60.6807 6.74682 61.4732L6.75007 61.4765ZM6.99316 34.8111C12.4966 29.2994 18.0649 23.7162 23.5262 18.2468C21.8733 18.2468 19.8897 18.1948 17.9126 18.2825C17.3972 18.3052 16.8008 18.6527 16.4151 19.0295C13.4981 21.8877 10.6167 24.7815 7.75478 27.6949C7.40473 28.0489 7.04497 28.5816 7.02876 29.0428C6.95098 31.0793 6.9964 33.1189 6.9964 34.8144L6.99316 34.8111ZM23.7758 7.88916C24.181 4.68997 22.7743 2.72498 19.8378 2.48789C17.9158 2.33199 15.9614 2.33199 14.0362 2.48789C10.9733 2.73148 9.4661 4.91083 10.1889 7.88916H23.7726H23.7758ZM10.0949 71.86C9.74483 75.1502 11.2358 77.047 14.302 77.2418C16.1202 77.3587 17.9612 77.3685 19.7762 77.2321C22.8585 77.0015 24.3495 74.965 23.7726 71.86H10.0949ZM16.9337 61.4765C18.7001 61.4765 20.5087 61.4862 22.3173 61.4765C23.5846 61.47 26.722 59.0665 26.7965 57.8356C26.9261 55.7147 26.8322 53.584 26.8322 51.4956C23.523 54.8345 20.2883 58.0986 16.9337 61.4797V61.4765ZM7.0677 24.3171C9.061 22.3294 11.1029 20.2897 13.0411 18.3539H7.0677V24.3171Z" fill="#211E1E"/>
</svg>
