<svg width="79" height="80" viewBox="0 0 79 80" fill="none" xmlns="http://www.w3.org/2000/svg">
<path d="M40.0974 72.0567C39.2385 72.0307 38.3634 71.9625 37.5174 72.073C35.9228 72.2808 35.388 71.7547 35.4139 70.0658C35.5177 63.8103 35.4561 57.5548 35.4561 51.2961C35.4561 49.3149 34.4967 48.3232 32.5779 48.321C27.1944 48.321 21.8141 48.321 16.4306 48.321C13.8992 48.321 13.8668 48.3535 13.8636 50.8251C13.8636 57.243 13.8636 63.6609 13.8636 70.0788V72.0437C11.9254 72.0437 10.2529 71.943 8.6032 72.073C7.03772 72.1964 6.61963 71.6507 6.62935 70.0982C6.70066 60.4454 6.66824 50.7894 6.66824 41.1366C6.66824 40.6137 6.66824 40.0908 6.66824 39.4152C9.76029 39.5191 12.1717 38.4506 13.9154 36.0959C18.7901 40.539 21.5516 40.539 26.8249 36.1153C28.3709 38.2427 30.4907 39.3892 33.1225 39.3827C35.7478 39.3762 37.7897 38.0868 39.3973 35.9627C41.0697 38.22 43.1376 39.373 45.724 39.3827C48.3558 39.3957 50.4205 38.1388 51.9989 36.0861C56.7148 40.5325 59.6447 40.5422 64.9084 36.1023C65.239 36.4921 65.5501 36.9241 65.9294 37.2878C69.822 41.0327 76.3691 39.5549 78.0772 34.4459C78.9652 31.7859 79.1337 29.1518 76.8909 26.7971C75.0045 24.8126 73.5493 22.4157 71.6532 20.4442C69.1834 17.8783 67.887 15.0559 68.4833 11.4572C68.6065 10.7232 68.4736 9.95017 68.5028 9.19666C68.5579 7.8098 67.8902 7.27715 66.5354 7.29339C63.3072 7.33561 60.0758 7.30962 56.8477 7.30962C56.6856 7.30962 56.4717 7.25116 56.3712 7.32911C56.2319 7.43954 56.0957 7.55321 55.9628 7.67013C55.4086 8.15083 55.4572 9.06349 56.0892 9.43375C56.1832 9.48896 56.2804 9.52469 56.3776 9.53118C58.2543 9.65785 60.1407 9.5929 62.0238 9.59939C63.3526 9.59939 64.6847 9.59939 66.0525 9.59939V15.6795C62.8664 15.6795 59.8068 15.6275 56.7504 15.7282C56.18 15.7477 55.2303 16.3096 55.1461 16.7513C54.9257 17.9205 55.9466 17.8946 56.7731 17.8946C59.6253 17.8946 62.4808 17.8166 65.3297 17.9433C66.1173 17.979 67.1059 18.4272 67.6083 19.0183C70.1558 22.0097 72.4862 25.1926 75.0791 28.1482C76.4858 29.7494 76.57 31.3994 76.1098 33.2442C75.4713 35.8198 73.076 37.3788 70.3405 37.0507C67.8513 36.7519 66.0201 34.6668 65.9715 32.062C65.9553 31.2532 66.1173 30.4023 65.9099 29.6487C65.8678 29.4993 65.79 29.3597 65.6863 29.2233C65.2098 28.6062 64.2699 28.6257 63.8129 29.259C63.7124 29.4019 63.6314 29.5481 63.586 29.704C63.3883 30.4023 63.5438 31.2013 63.5341 31.9548C63.492 34.9169 61.3593 37.0702 58.4585 37.0897C55.5253 37.1125 53.3796 35.0208 53.2985 32.0522C53.2759 31.1915 53.4121 30.2918 53.2046 29.4799C53.169 29.3402 53.0911 29.2135 52.9842 29.0934C52.4915 28.5282 51.5938 28.564 51.1594 29.1713C51.0687 29.2947 51.0006 29.4247 50.9682 29.5643C50.7899 30.3308 50.939 31.172 50.9131 31.9808C50.8288 34.8941 48.6216 37.0767 45.7564 37.0962C42.888 37.1157 40.6387 34.9623 40.5187 32.0587C40.4831 31.198 40.6387 30.3016 40.4474 29.4831C40.4086 29.3207 40.3113 29.1713 40.1817 29.0317C39.7052 28.5152 38.8463 28.5412 38.4315 29.1096C38.3602 29.2103 38.3083 29.311 38.2888 29.4214C38.1171 30.4185 38.2629 31.4676 38.1625 32.4842C37.8805 35.3099 35.589 37.2196 32.7206 37.0897C29.998 36.9663 27.9366 34.8162 27.8815 32.0295C27.8653 31.2207 28.0079 30.3795 27.8264 29.613C27.794 29.4734 27.7259 29.3435 27.6384 29.2168C27.2268 28.6192 26.3582 28.551 25.8526 29.0706C25.6937 29.233 25.5706 29.4019 25.522 29.5935C25.3048 30.399 25.4734 31.3052 25.4539 32.1659C25.3826 34.9981 23.211 37.0962 20.3556 37.0962C17.4904 37.0962 15.3286 35.0208 15.2508 32.1756C15.2281 31.3669 15.4031 30.5095 15.1827 29.7657C15.1341 29.6033 15.0498 29.4539 14.9397 29.311C14.4275 28.6289 13.3547 28.7101 12.9787 29.4766C12.9334 29.5708 12.8977 29.665 12.8783 29.7657C12.7 30.6459 12.8718 31.5943 12.8102 32.5069C12.6676 34.5758 10.9822 36.4953 8.94678 36.9858C6.77521 37.5054 4.51288 36.6155 3.30718 34.7642C2.10795 32.9226 2.09173 30.2204 3.28447 28.7361C5.84821 25.5434 8.44115 22.3734 10.966 19.1515C11.6564 18.2713 12.3791 17.8361 13.5395 17.8686C16.3884 17.9465 19.2439 17.914 22.0961 17.8816C23.3245 17.8686 23.9857 17.1118 23.4217 16.3843C23.1041 15.975 22.3554 15.725 21.7947 15.712C18.7869 15.647 15.7791 15.6827 12.5153 15.6827C12.5153 14.0555 12.5704 12.5583 12.4958 11.0707C12.4407 9.93719 12.8685 9.56367 13.9835 9.58641C16.6185 9.64162 19.2601 9.66111 21.8919 9.54744C21.9405 9.54744 21.9891 9.53769 22.0378 9.52795C23.0652 9.31034 23.117 7.82929 22.1415 7.43629C22.0345 7.39407 21.9275 7.36807 21.8174 7.36158C18.5924 7.2479 15.361 7.33235 12.1328 7.29987C10.7391 7.28688 10.2076 7.92348 10.2497 9.28111C10.3048 11.0057 10.1914 12.7369 10.2854 14.4583C10.3599 15.8321 9.96771 16.9104 9.07639 17.9757C6.34735 21.2399 3.70909 24.582 1.04811 27.9046C0.749924 28.2781 0.396631 28.6679 0.270227 29.1096C-0.604882 32.1139 0.707776 36.1154 3.30393 37.9277C4.25035 38.587 4.45131 39.282 4.44807 40.3246C4.4189 50.8966 4.4286 61.4653 4.43185 72.0372C4.43185 74.1289 4.62956 74.327 6.74927 74.3303C13.2089 74.3368 19.6652 74.3335 26.1248 74.3303C30.8083 74.3303 35.4885 74.34 40.172 74.314C40.9855 74.3108 42.1166 74.5284 42.1264 73.239C42.1393 71.8651 40.979 72.0827 40.0942 72.0567H40.0974ZM33.0609 71.9528H16.2685V50.6367H33.0609V71.9528Z" fill="#211E1E"/>
<path d="M77.3414 44.453C74.1651 44.4627 70.9887 44.3653 67.8156 44.4789C60.1212 44.755 54.4427 48.4187 50.7413 55.1224C49.2342 57.8506 48.5114 60.8419 48.6281 63.9729C48.6313 64.0704 48.6637 64.1678 48.7188 64.2652C49.0851 64.9343 50.0348 64.9928 50.5339 64.4179C50.6182 64.3237 50.696 64.223 50.7705 64.1223C50.9002 63.9404 50.8061 63.5961 50.8256 63.3298C51.3085 56.6619 54.514 51.7608 60.374 48.594C65.5015 45.8236 71.0601 46.8564 76.7547 46.6518C76.7547 49.5489 76.7872 52.183 76.7483 54.8138C76.5668 66.7791 66.9049 74.7462 53.1787 72.3915C53.6227 71.9206 54.0052 71.4886 54.4103 71.0826C59.6966 65.7787 64.9894 60.4782 70.2757 55.1776C70.616 54.8333 71.0892 54.528 71.2351 54.109C71.3842 53.6835 71.3874 52.9755 71.1281 52.7059C70.8818 52.4526 70.1623 52.4688 69.7442 52.6247C69.3261 52.7806 69.0182 53.2451 68.6778 53.5861C63.6152 58.6593 58.5557 63.7326 53.4963 68.8058C50.6797 71.6282 47.8373 74.4247 45.0855 77.3056C45.024 77.3705 44.9753 77.4453 44.9364 77.5297C44.554 78.3579 45.3967 79.2381 46.2685 78.9783C46.3917 78.9425 46.5019 78.8906 46.5991 78.8191C47.6201 78.0461 48.3753 76.9191 49.406 76.1623C50.2066 75.5744 51.2372 75.045 52.1966 74.9833C54.984 74.8112 57.7941 74.9898 60.588 74.8437C68.9598 74.402 76.557 68.4518 78.1743 60.2313C79.1078 55.4894 78.7513 50.4876 78.9295 45.6027C78.9684 44.5764 78.1744 44.4497 77.3479 44.453H77.3414Z" fill="#211E1E"/>
<path d="M29.9526 15.4361C31.7093 15.3841 33.4725 15.4231 35.3848 15.4231C35.3848 17.4498 35.4399 19.2232 35.3654 20.99C35.3103 22.3444 35.8904 22.8283 37.1837 22.7796C38.6876 22.7244 40.1979 22.7309 41.7018 22.7731C42.9367 22.8056 43.452 22.2827 43.4131 21.0322C43.3548 19.2232 43.3969 17.4141 43.3969 15.4231C45.186 15.4231 46.7353 15.4296 48.2878 15.4231C50.6344 15.4134 50.7867 15.2607 50.7932 12.9839C50.7932 12.5519 50.7932 12.12 50.7932 11.6912C50.7867 7.00451 51.2988 7.29033 46.489 7.30982C45.4939 7.31307 44.4989 7.30982 43.4002 7.30982C43.4002 5.3091 43.3483 3.59096 43.4164 1.87282C43.4682 0.580149 43.0047 -0.0402052 41.6629 0.00201768C40.1039 0.0507364 38.5417 0.0409823 36.9827 0.0117511C35.8159 -0.0109843 35.3394 0.502201 35.3718 1.67145C35.4237 3.48703 35.3848 5.30261 35.3848 7.31307C33.3461 7.31307 31.5343 7.32606 29.7193 7.30982C28.5168 7.30007 27.9399 7.81324 27.982 9.06693C28.0307 10.522 28.0631 11.9836 27.9691 13.4321C27.8751 14.9294 28.5201 15.4783 29.9494 15.4361H29.9526ZM30.199 11.4899C30.2573 10.967 30.2087 10.4278 30.2087 9.59959C31.8163 9.59959 33.2975 9.59959 34.7787 9.59959C36.6499 9.59526 37.5856 8.6826 37.5856 6.8616C37.5856 5.41628 37.5856 3.97421 37.5856 2.3535H41.1897C41.1897 4.19832 41.2545 5.95868 41.1702 7.71256C41.1022 9.13514 41.7148 9.65806 43.0663 9.60609C44.298 9.55737 45.5426 9.68728 46.7677 9.57685C48.2003 9.44694 48.761 9.97961 48.5503 11.3957C48.4726 11.9121 48.4758 12.4415 48.4305 13.1333C46.7094 13.1333 45.1115 13.1301 43.5104 13.1333C41.3453 13.1398 41.1962 13.2827 41.193 15.3906C41.1897 17.0406 41.193 18.6937 41.193 20.4346H37.5856C37.5856 18.5898 37.5402 16.7775 37.6017 14.9716C37.6471 13.653 37.0929 13.0911 35.7997 13.1236C34.4579 13.156 33.1063 13.0391 31.7742 13.1561C30.4259 13.273 30.0564 12.6981 30.1957 11.4866L30.199 11.4899Z" fill="#211E1E"/>
</svg>
