<svg width="79" height="72" viewBox="0 0 79 72" fill="none" xmlns="http://www.w3.org/2000/svg">
<path d="M52.7767 49.3067C57.3823 48.9007 61.9945 48.5856 66.6099 48.2901C69.8024 48.0855 72.7032 47.1176 75.3156 45.2533C77.2051 43.9021 78.3623 42.171 78.0057 39.7708C77.6395 37.3154 75.98 35.935 73.7371 35.1912C70.872 34.2396 67.9582 34.0707 64.9925 34.6846C60.2086 35.6752 55.4247 36.6658 50.6213 37.5655C49.6587 37.7441 48.5697 37.6921 47.6232 37.4323C40.9465 35.5875 34.2989 33.6485 27.6286 31.7874C26.8896 31.5828 25.9659 31.4334 25.3015 31.6965C23.6615 32.3493 22.0992 33.2198 20.5499 34.0772C19.3442 34.7463 19.3799 35.6687 20.6148 36.354C21.8367 37.0328 23.1007 37.6304 24.3453 38.267C26.3224 39.2804 28.2963 40.297 30.3998 41.3753C30.0595 41.6156 29.9428 41.7585 29.8034 41.7845C25.859 42.59 21.9177 43.4215 17.957 44.1457C17.3574 44.2562 16.5731 44.0191 16.0383 43.6813C14.1746 42.5055 12.2299 41.3818 10.5996 39.9235C8.36972 37.926 6.05554 37.5557 3.38484 38.673C3.33622 38.6925 3.27789 38.6828 3.22603 38.699C1.79992 39.1082 1.56657 39.8812 2.57133 41.0342C3.63118 42.2522 4.71696 43.4507 5.82543 44.6264C6.84963 45.7112 8.06505 46.7083 6.84962 48.4037C6.74267 48.5532 6.73294 48.8585 6.80749 49.0338C7.5335 50.7812 6.28242 51.827 5.43 53.0125C4.96004 53.6686 4.39609 54.2695 4.00715 54.9678C3.77379 55.3868 3.57608 56.0753 3.76731 56.4163C3.9553 56.7574 4.65214 56.9912 5.11886 56.9782C7.99376 56.9068 10.8233 56.6827 12.6967 53.9902C13.0564 53.4705 13.575 53.0223 14.1033 52.6683C14.6154 52.324 15.2183 51.97 15.8082 51.918C19.2373 51.6257 22.6729 51.4276 26.1053 51.184C28.3579 51.0248 30.6137 50.9014 32.8501 50.6156C33.2941 50.5604 33.6572 49.8426 34.0558 49.4301C33.5729 49.0956 33.1256 48.6831 32.5973 48.4557C32.2926 48.3258 31.8615 48.5077 31.4856 48.5369C26.8248 48.8682 22.164 49.1962 17.5584 49.521C16.4985 47.6275 16.1452 47.569 14.6543 48.9786C13.011 50.5311 11.4164 52.1388 9.71805 53.6329C9.16705 54.1168 8.36326 54.3117 7.67613 54.6397C7.56269 54.4611 7.44924 54.2825 7.3358 54.1006C8.01968 53.3828 8.78135 52.7202 9.36151 51.9277C9.6759 51.4958 9.96438 50.713 9.77963 50.3103C8.90452 48.394 8.86562 48.3485 10.8881 47.9393C29.2524 44.2107 47.6135 40.4756 65.9876 36.786C67.8837 36.406 69.8348 36.3995 71.7211 37.2569C70.0552 37.9487 68.3406 38.3222 66.6941 38.8971C66.1302 39.0952 65.3199 39.8098 65.3458 40.2482C65.4106 41.3623 66.4121 41.2843 67.2095 41.044C69.7473 40.2742 72.2689 39.4493 74.9655 38.5918C76.2652 39.9527 76.343 41.7715 74.4858 42.944C72.5736 44.1522 70.4409 45.237 68.2596 45.7307C65.6148 46.3283 62.8177 46.2536 60.0822 46.4647C58.5135 46.5849 56.9415 46.6954 54.9936 46.8383C55.3955 46.3413 55.5997 46.2017 55.6289 46.036C55.7196 45.4709 55.7455 44.896 55.7942 44.3244C55.2205 44.3633 54.6241 44.3211 54.0764 44.4673C53.749 44.555 53.4994 44.9317 53.2175 45.1818C46.7903 50.9176 40.3242 56.6112 33.9715 62.4282C32.5876 63.6949 31.2198 63.8053 29.3853 63.5033C29.784 62.8992 30.0822 62.412 30.4128 61.9508C33.8516 57.1926 37.3164 52.4571 40.6969 47.66C41.021 47.1988 40.8103 46.3576 40.846 45.6917C40.2205 45.8899 39.3226 45.8866 39.0083 46.3153C34.717 52.1129 30.4906 57.9624 26.2836 63.8248C25.4182 65.0298 25.8589 65.8808 27.3531 65.962C28.6398 66.0334 29.9396 65.91 31.2231 66.0009C32.6654 66.1049 33.7608 65.6307 34.8401 64.6498C40.1394 59.8331 45.497 55.0815 50.8611 50.3395C51.3959 49.8686 52.1057 49.3651 52.7702 49.3067H52.7767ZM8.29194 44.0028C7.32284 42.9343 6.36346 41.8592 5.09293 40.4496C6.08472 40.4496 6.8075 40.2255 7.22561 40.4886C9.3518 41.8267 11.4002 43.2883 13.5394 44.7498C10.846 46.1757 10.1621 46.0685 8.29194 44.0061V44.0028ZM34.7786 40.7517C34.5355 40.8004 34.2308 40.7257 34.0039 40.612C30.523 38.8679 27.0517 37.1075 23.4508 35.2854C25 34.1389 26.3127 33.6193 28.1764 34.2136C33.2585 35.8376 38.4216 37.2017 43.5556 39.001C40.6321 39.5889 37.7086 40.1833 34.7818 40.7484L34.7786 40.7517Z" fill="#211E1E"/>
<path d="M3.0186 17.5029C3.54043 18.5032 4.26644 18.8735 5.3587 18.8085C6.45745 18.7436 7.55943 18.7955 8.75541 18.7955C8.75541 23.8103 8.74894 28.549 8.7619 33.2845C8.7619 34.1679 8.53827 35.3306 9.92224 35.3209C11.2381 35.3144 10.9562 34.1744 10.9626 33.3689C10.9886 29.1109 10.9756 24.8529 10.9886 20.5949C10.9886 20.0297 11.0599 19.4678 11.0988 18.8962H13.857C13.857 19.679 13.857 20.3643 13.857 21.0496C13.8602 24.3365 13.8246 27.6266 13.9153 30.9135C13.9283 31.3649 14.5798 31.8002 14.9395 32.2419C15.3187 31.8132 15.792 31.4364 16.0415 30.9427C16.2133 30.5984 16.0772 30.0983 16.0772 29.6663C16.0772 26.1196 16.0772 22.5728 16.0772 18.7955C17.4028 18.7955 18.4756 18.7371 19.542 18.8118C20.6602 18.8897 21.3408 18.4318 21.8561 17.4574C22.6859 15.8886 23.6388 14.3849 24.4815 12.8226C25.2464 11.4098 24.825 10.6465 23.2109 10.64C16.0026 10.6108 8.79431 10.6075 1.586 10.6465C-0.00215721 10.6563 -0.391095 11.4423 0.390021 12.8746C1.24244 14.4336 2.19858 15.9341 3.02183 17.5061L3.0186 17.5029ZM21.4964 13.0532C20.4138 16.3206 20.1707 16.5025 17.0171 16.4993C13.9574 16.4993 10.8978 16.496 7.83819 16.5025C4.70724 16.5122 4.43821 16.3141 3.34919 13.05H21.4996L21.4964 13.0532Z" fill="#211E1E"/>
<path d="M76.4662 59.9466C76.0772 59.7354 75.5327 59.7809 75.053 59.7809C70.3242 59.7712 65.5954 59.7744 60.8633 59.7744C55.8654 59.7712 50.8676 59.7354 45.8697 59.8199C45.2993 59.8296 44.3432 60.4175 44.2557 60.8722C44.0417 61.9765 45.04 62.0577 45.873 62.0967C46.142 62.1097 46.411 62.0999 46.68 62.0999C56.0858 62.0999 65.4916 62.0999 74.8974 62.0934C75.429 62.0934 75.9994 62.1064 76.4791 61.918C76.8032 61.7914 77.2181 61.3074 77.1954 61.0151C77.163 60.6286 76.8194 60.1317 76.4694 59.9433L76.4662 59.9466Z" fill="#211E1E"/>
<path d="M4.1303 8.80509C5.15774 9.21108 5.60178 8.40884 5.81246 7.58062C6.12685 6.34967 6.88851 6.08659 8.07152 6.12881C10.645 6.2165 13.2249 6.23599 15.7952 6.12881C17.4676 6.0606 18.8743 6.10607 19.3021 8.15875C19.3669 8.47055 20.0022 8.81808 20.3976 8.85056C20.6926 8.87329 21.1917 8.4803 21.3148 8.162C21.8529 6.77839 19.8174 3.85202 18.346 3.82929C16.7675 3.80655 15.1858 3.82279 13.5134 3.82279C13.5134 2.74773 13.656 1.96174 13.4648 1.26669C13.3319 0.779499 12.7452 0.415733 12.3596 0C12.0127 0.402741 11.4682 0.763259 11.3678 1.21797C11.2025 1.97473 11.3224 2.7932 11.3224 3.82604H7.82195C5.80812 3.82604 4.45116 4.79716 3.75107 6.73942C3.47882 7.49943 3.05747 8.38286 4.12057 8.80509H4.1303Z" fill="#211E1E"/>
<path d="M21.7783 59.7744C18.4432 59.7744 15.1081 59.7744 11.7729 59.7744C10.4278 59.7711 9.08278 59.7711 7.73771 59.7711C5.64069 59.7711 3.53717 59.6996 1.44663 59.8328C0.957221 59.8653 0.509938 60.5896 0.0432129 60.9956C0.496973 61.3593 0.934544 61.7491 1.41747 62.0739C1.56657 62.1746 1.83881 62.0999 2.05273 62.0999C8.61604 62.0999 15.1794 62.1031 21.7427 62.0999C22.6113 62.0999 23.6809 62.1226 23.6938 60.9533C23.7068 59.7873 22.6664 59.7776 21.7783 59.7776V59.7744Z" fill="#211E1E"/>
<path d="M46.5439 69.4339C46.1453 69.2488 45.5813 69.3267 45.1114 69.4047C44.2136 69.5541 42.7227 68.8201 42.6805 70.4213C42.6351 72.1719 44.2233 71.3697 44.9915 71.584C45.6235 71.584 46.1615 71.7172 46.5764 71.5483C46.8195 71.4509 47.0301 71.2755 47.2343 71.0839C47.539 70.7948 47.5552 70.3141 47.2667 70.012C47.0431 69.7782 46.813 69.5638 46.5407 69.4372L46.5439 69.4339Z" fill="#211E1E"/>
<path d="M72.6676 69.4339C72.269 69.2455 71.705 69.3235 71.235 69.4047C70.3405 69.5573 68.8495 68.8135 68.8042 70.4148C68.7523 72.1686 70.3405 71.3697 71.1151 71.584C71.7439 71.584 72.2819 71.7172 72.6968 71.5483C72.9399 71.4508 73.1505 71.2755 73.3547 71.0806C73.6594 70.7948 73.6788 70.3141 73.3904 70.012C73.17 69.7782 72.9399 69.5606 72.6676 69.4339Z" fill="#211E1E"/>
<path d="M7.2256 69.4243C6.8788 69.2554 6.37965 69.3399 5.96155 69.3983C5.01837 69.5315 3.50152 68.8332 3.53718 70.5253C3.5469 71.0223 4.90819 71.4867 5.65041 71.9642C5.7995 71.7271 6.06851 71.5907 6.35049 71.6166C6.63895 71.6426 6.92741 71.6621 7.15753 71.5582C7.42006 71.4413 7.66639 71.2789 7.90299 71.1002C8.29841 70.8047 8.31462 70.22 7.93217 69.905C7.70853 69.7199 7.47841 69.5477 7.2256 69.4276V69.4243Z" fill="#211E1E"/>
<path d="M20.3392 69.4371C19.4609 69.2779 18.5112 69.2844 17.6329 69.4468C17.3768 69.4955 17.1564 69.7229 16.9393 69.9762C16.6897 70.2685 16.693 70.6973 16.949 70.9831C17.1597 71.2169 17.3769 71.4345 17.6361 71.5385C18.0964 71.7204 18.6863 71.5774 19.2211 71.5774V71.5872C19.5938 71.5872 20.0443 71.7204 20.3263 71.558C20.5953 71.4053 20.8384 71.2007 21.075 70.9863C21.4088 70.681 21.4121 70.1484 21.0685 69.8561C20.8351 69.6547 20.5953 69.4858 20.336 69.4371H20.3392Z" fill="#211E1E"/>
<path d="M32.1306 69.4273C31.1712 69.4078 29.596 68.8719 29.5765 70.4699C29.5571 72.0159 31.0091 71.4832 32.0074 71.5969C32.0949 71.6067 32.1824 71.6002 32.27 71.5872C33.2099 71.4183 34.7591 72.1393 34.717 70.4244C34.6749 68.8232 33.0835 69.4468 32.1338 69.4273H32.1306Z" fill="#211E1E"/>
<path d="M58.2477 68.8265C57.2105 69.4663 55.7391 69.9535 55.7358 70.4504C55.7261 72.0647 57.2332 71.5742 58.1991 71.5515C59.1974 71.5255 60.7693 72.1686 60.7985 70.431C60.805 69.9568 59.3075 69.4598 58.2509 68.8232L58.2477 68.8265Z" fill="#211E1E"/>
</svg>
