<svg width="79" height="70" viewBox="0 0 79 70" fill="none" xmlns="http://www.w3.org/2000/svg">
<path d="M57.6874 43.3039C57.5384 42.0925 56.8739 41.5955 55.6098 41.6183C51.7399 41.68 47.8667 41.641 43.9936 41.641C41.0474 41.641 40.9826 41.628 40.4251 44.4472C39.994 46.6298 39.7477 48.8514 39.4009 51.1541H19.3771C18.8942 48.3902 18.4209 45.8763 18.0223 43.3494C17.8148 42.0243 17.118 41.5955 15.8151 41.6118C11.5659 41.6702 7.31681 41.6637 3.07091 41.6183C1.82955 41.6053 1.33365 42.1055 0.964163 43.2909C-0.533246 48.0978 0.205703 53.0217 0.0404047 57.8935C-0.0730354 61.1772 -0.00173496 64.4413 0.967367 67.647C1.32713 68.8358 1.83279 69.3619 3.06766 69.3522C7.3168 69.3197 11.5659 69.31 15.8151 69.3587C17.1083 69.3717 17.8148 68.9202 18.0255 67.6016C18.4274 65.0779 18.8974 62.5673 19.3577 59.9625C19.3188 59.982 19.4128 59.9008 19.51 59.9008C25.908 59.878 32.306 59.8715 38.7073 59.839C39.6213 59.8358 39.6666 60.3685 39.7509 61.0895C40.0005 63.2136 40.4056 65.3183 40.639 67.4457C40.8075 68.9722 41.6275 69.3814 43.0342 69.3619C47.1213 69.3067 51.2084 69.2905 55.2954 69.3684C56.8317 69.3976 57.3762 68.774 57.7911 67.3352C59.3015 62.1386 58.5949 56.8412 58.6241 51.5926C58.6403 48.8319 58.031 46.0679 57.6907 43.3039H57.6874ZM16.1554 65.6755C16.0711 66.7084 15.559 67.1014 14.47 67.0754C11.3552 67.0007 8.23403 67.0527 5.11605 67.0494C3.66618 67.0494 2.8937 66.1714 2.79862 64.4154C5.97494 64.4154 9.02811 64.4154 12.0845 64.4154C12.6225 64.4154 13.2157 64.5485 13.6824 64.3601C13.8542 64.2919 14.0163 64.1848 14.1686 64.0613C14.671 63.6553 14.6677 62.8726 14.1686 62.4634C14 62.3269 13.8282 62.2263 13.6532 62.2165C11.6729 62.0931 9.6796 62.1581 7.68954 62.1581C5.97173 62.1581 4.25713 62.1581 2.39023 62.1581V48.7344C5.42719 48.7344 8.42203 48.7344 11.4136 48.7344C12.1137 48.7344 12.8527 48.8773 13.4976 48.689C13.6532 48.6435 13.8023 48.5688 13.9449 48.4746C14.6094 48.0426 14.5964 47.0748 13.9125 46.6753C13.7829 46.6006 13.6532 46.5518 13.5204 46.5453C10.5677 46.4382 7.60847 46.4869 4.65255 46.4836C4.06914 46.4836 3.48898 46.4836 2.91854 46.4836C2.75324 44.0997 2.93802 43.8821 5.01235 43.8821C8.13033 43.8821 11.2483 43.9405 14.3663 43.8528C15.5104 43.8203 16.1132 44.1809 16.1716 45.3014C16.3823 49.5302 16.6837 53.759 16.7258 57.991C16.7517 60.5503 16.3725 63.1129 16.1651 65.6723L16.1554 65.6755ZM39.7412 55.305C39.6472 55.9805 39.725 56.6821 39.725 57.533H19.0984V53.4731C19.7401 53.4439 20.3656 53.3919 20.9912 53.3919C26.5757 53.3855 32.1634 53.4374 37.7479 53.3562C39.255 53.3335 39.9616 53.6972 39.7412 55.305ZM56.4396 62.1808C56.3456 66.5817 55.8724 67.0527 51.5649 67.0527C49.3577 67.0527 47.1537 67.0527 44.9465 67.0527C43.4188 67.0527 42.5859 66.1736 42.4476 64.4154C43.7311 64.4154 44.9984 64.4154 46.2657 64.4154C48.2039 64.4154 50.142 64.4771 52.0738 64.3894C53.0169 64.3471 54.5921 64.9837 54.5564 63.2558C54.524 61.7456 53.072 62.1938 52.1288 62.1808C49.3317 62.1386 46.5347 62.1678 43.7375 62.1678C43.2092 62.1678 42.6842 62.1678 42.0424 62.1678V48.7409C43.0472 48.7409 44.0422 48.7409 45.0405 48.7409C47.6237 48.7409 50.2101 48.8091 52.7868 48.6922C53.4221 48.663 54.5014 48.0914 54.5597 47.6594C54.7315 46.4089 53.6068 46.5031 52.7512 46.4999C49.899 46.4869 47.0467 46.4999 44.1978 46.4869C43.6241 46.4869 43.0504 46.4349 42.4767 46.4089C42.5761 44.7287 43.3497 43.8886 44.7974 43.8886C47.8635 43.8886 50.9329 43.9568 53.9957 43.8528C55.2468 43.8106 55.7525 44.2913 55.8789 45.4248C56.0668 47.13 56.378 48.8319 56.4201 50.537C56.5044 53.9863 56.4461 57.4388 56.4461 60.8881C56.4461 61.3201 56.4525 61.7521 56.4461 62.1808H56.4396Z" fill="#211E1E"/>
<path d="M65.4792 18.3893C64.8699 17.9606 64.3772 17.0901 64.2216 16.3431C63.5053 12.9198 63.0127 9.45104 62.2834 6.03424C61.4926 2.33487 58.5269 0.0450881 54.7348 0.0158569C51.6686 -0.00687846 48.6025 -0.00363055 45.5331 0.0158569C41.566 0.0385923 38.5258 2.55572 37.8063 6.44672C37.2293 9.56796 36.6719 12.6957 36.1695 15.8299C35.9621 17.1194 35.4078 17.9768 34.2994 18.7823C24.9292 25.5964 21.0171 34.8237 22.4692 46.3278C22.5761 47.1723 22.709 48.2343 23.9374 47.9778C25.0005 47.7569 24.8352 46.8183 24.712 45.9933C23.5679 38.2015 25.4478 31.2315 30.504 25.2002C31.7939 23.6606 33.3724 22.3647 34.5716 21.1922L35.2652 21.6892C36.0204 22.2283 37.1256 21.9295 37.4141 21.0461C37.4303 20.9974 37.4433 20.9519 37.453 20.9032C38.3346 16.3593 39.1222 11.7993 39.9487 7.24896C40.5548 3.91335 42.5707 2.22768 45.9934 2.21144C48.6835 2.19845 51.3737 2.19845 54.0638 2.21144C57.6842 2.23093 59.6775 3.86788 60.3225 7.41785C61.1231 11.8123 61.8458 16.2197 62.6788 20.6076C62.6918 20.6823 62.7112 20.757 62.7371 20.8317C63.045 21.7834 64.1762 22.1861 65.0449 21.6989L65.625 21.3741C74.0326 27.2334 77.9381 39.1077 74.7002 49.4231C72.5449 56.2859 68.2536 61.3819 61.9366 64.776C61.2041 65.169 60.3647 65.6009 60.8476 66.598C61.337 67.6081 62.1797 67.2249 62.9219 66.8156C72.1105 61.7489 77.3936 53.9831 77.99 43.5054C78.5961 32.8945 74.1752 24.5116 65.4727 18.3893H65.4792Z" fill="#211E1E"/>
<path d="M57.4347 9.40548C56.942 6.92408 55.3862 5.54372 52.8743 5.40406C51.0528 5.30337 49.2151 5.30987 47.3936 5.40081C45.1054 5.51124 43.1898 7.17092 42.7263 9.41847C42.5027 10.4968 42.3277 11.5848 42.1364 12.6729C41.728 15.0049 41.2775 17.3304 40.9664 19.6721C40.9534 19.7761 40.9761 19.8865 41.0215 19.9969C41.284 20.627 42.0976 20.8154 42.6486 20.4094C42.8074 20.2925 42.9565 20.1691 43.0926 20.0294C43.2741 19.8443 43.2417 19.4123 43.2449 19.094C43.2708 17.2492 44.2497 16.4437 46.0323 16.4112C48.3367 16.369 50.6444 16.3268 52.9424 16.1644C53.1401 16.1514 53.3346 16.0734 53.5258 15.9663C54.0768 15.6577 54.1416 14.8945 53.6717 14.4755C53.4772 14.3001 53.273 14.1377 53.0559 13.998C52.7804 13.8226 52.3202 13.9233 51.9442 13.9233C49.4323 13.9201 46.9236 13.9233 44.2173 13.9233C44.4441 12.6534 44.6516 11.1691 44.9822 9.71079C45.2966 8.33042 46.23 7.63212 47.6658 7.63862C49.1178 7.64511 50.5699 7.62563 52.022 7.63862C54.2259 7.65486 54.9001 8.18102 55.3182 10.3279C55.934 13.4946 56.4494 16.6808 57.13 19.8345C57.1527 19.9385 57.2045 20.0326 57.2791 20.1268C57.8171 20.8056 58.9385 20.5848 59.2011 19.7598C59.24 19.6396 59.2562 19.526 59.2368 19.4155C58.7149 16.0702 58.0894 12.7378 57.4282 9.41523L57.4347 9.40548Z" fill="#211E1E"/>
<path d="M65.3495 58.6603C69.845 54.4542 72.1688 49.2186 72.5351 42.4564C72.3892 42.2746 72.023 41.3554 71.485 41.2385C70.383 40.9981 70.3247 42.0505 70.2372 42.8592C70.1335 43.8238 70.1107 44.7982 69.9422 45.7498C69.1578 50.193 67.103 53.9541 63.8229 57.0396C63.1066 57.7119 62.4066 58.5044 63.5961 59.2254C63.9526 59.4398 64.9282 59.0598 65.3527 58.6635L65.3495 58.6603Z" fill="#211E1E"/>
</svg>
