<svg width="33" height="32" viewBox="0 0 33 32" fill="none" xmlns="http://www.w3.org/2000/svg">
<path d="M16.2464 0C7.27443 0 0 7.16408 0 16C0 24.8359 7.27443 32 16.2464 32C25.2185 32 32.4929 24.8359 32.4929 16C32.4929 7.16408 25.2185 0 16.2464 0ZM21.7892 9.19849H20.153C18.544 9.19849 18.0463 10.1855 18.0463 11.1926V13.5829H21.6392L21.0597 17.2757H18.0463V26.1922H13.9966V17.2757H10.7037V13.5829H13.9966V10.7763C13.9966 7.57365 15.926 5.80781 18.8917 5.80781C20.3098 5.80781 21.7892 6.05623 21.7892 6.05623V9.19849Z" fill="#211E1E"/>
</svg>
