<svg width="33" height="32" viewBox="0 0 33 32" fill="none" xmlns="http://www.w3.org/2000/svg">
<path d="M20.1258 9.23877H13.3696C11.447 9.23877 9.88574 10.783 9.88574 12.6765V19.3235C9.88574 21.2169 11.447 22.7612 13.3696 22.7612H20.1258C22.0484 22.7612 23.6097 21.2169 23.6097 19.3235V12.6765C23.6097 10.783 22.0484 9.23877 20.1258 9.23877ZM16.8193 20.1024C14.5217 20.1024 12.6537 18.2627 12.6537 16C12.6537 13.7373 14.5217 11.8976 16.8193 11.8976C19.1168 11.8976 20.9849 13.7373 20.9849 16C20.9849 18.2627 19.11 20.1024 16.8193 20.1024ZM21.2235 12.6026C20.6781 12.6026 20.2349 12.1595 20.2349 11.6223C20.2349 11.0852 20.6781 10.6488 21.2235 10.6488C21.7689 10.6488 22.2189 11.0852 22.2189 11.6223C22.2189 12.1595 21.7689 12.6026 21.2235 12.6026ZM16.8193 13.3747C15.3467 13.3747 14.1468 14.5497 14.1468 16C14.1468 17.4503 15.3467 18.6253 16.8193 18.6253C18.2919 18.6253 19.485 17.4503 19.485 16C19.485 14.5497 18.2851 13.3747 16.8193 13.3747Z" fill="#211E1E"/>
<path d="M16.7445 0C7.77247 0 0.498047 7.16408 0.498047 16C0.498047 24.8359 7.77247 32 16.7445 32C25.7165 32 32.9978 24.8359 32.9978 16C32.9978 7.16408 25.7233 0 16.7445 0ZM25.2052 19.3235C25.2052 22.0831 22.9213 24.3256 20.126 24.3256H13.3698C10.5745 24.3256 8.29062 22.0831 8.29062 19.3235V12.6765C8.29062 9.91691 10.5745 7.67436 13.3698 7.67436H20.126C22.9213 7.67436 25.2052 9.91691 25.2052 12.6765V19.3235Z" fill="#211E1E"/>
</svg>
