<svg width="33" height="32" viewBox="0 0 33 32" fill="none" xmlns="http://www.w3.org/2000/svg">
<path d="M16.2489 0C7.27687 0 0.00244141 7.16408 0.00244141 16C0.00244141 24.8359 7.27687 32 16.2489 32C25.2209 32 32.4953 24.8359 32.4953 16C32.4953 7.16408 25.2209 0 16.2489 0ZM23.2642 14.2879C23.1143 14.3013 22.9643 14.308 22.8143 14.308C21.1712 14.308 19.6373 13.4889 18.7305 12.1326V19.5317C18.7305 22.5531 16.2489 25.0038 13.181 25.0038C10.113 25.0038 7.62456 22.5531 7.62456 19.5317C7.62456 16.5103 10.113 14.0663 13.181 14.0663C13.2969 14.0663 13.4128 14.0663 13.5218 14.0797V16.7789C13.4128 16.7654 13.2969 16.7453 13.181 16.7453C11.6129 16.7453 10.3448 17.9941 10.3448 19.5317C10.3448 21.0692 11.6129 22.3248 13.181 22.3248C14.749 22.3248 16.1262 21.1095 16.1262 19.572L16.1534 7.00294H18.7714C19.0237 9.31263 20.9122 11.1188 23.2711 11.2866V14.2879H23.2642Z" fill="#211E1E"/>
</svg>
