<svg width="33" height="32" viewBox="0 0 33 32" fill="none" xmlns="http://www.w3.org/2000/svg">
<path d="M16.7538 0C7.78174 0 0.507324 7.16408 0.507324 16C0.507324 24.8359 7.78174 32 16.7538 32C25.7258 32 33.0002 24.8359 33.0002 16C33.0002 7.16408 25.7258 0 16.7538 0ZM16.8356 24.0571C15.4652 24.0571 14.1153 23.7146 12.9018 23.0701L8.38852 24.2585L9.59524 19.8405C8.91347 18.632 8.55214 17.2757 8.55214 15.8993C8.55214 11.4008 12.2677 7.7415 16.8356 7.7415C21.4034 7.7415 25.119 11.4008 25.119 15.8993C25.119 20.3978 21.4034 24.0571 16.8356 24.0571ZM16.8356 9.28577C13.1336 9.28577 10.1202 12.2535 10.1202 15.8993C10.1202 17.1011 10.4611 18.2896 11.1019 19.3303L11.2792 19.6123L10.6043 22.0764L13.1268 21.4117L13.4063 21.5795C14.4494 22.1905 15.6357 22.5195 16.8356 22.5195C20.5444 22.5195 23.5578 19.5451 23.5578 15.8993C23.5578 12.2535 20.5444 9.28577 16.8356 9.28577ZM20.783 18.397C20.5307 18.9945 19.9103 19.3773 19.2831 19.4981C18.6832 19.6123 18.1855 19.4243 17.6264 19.243C17.1287 19.0818 16.6515 18.8401 16.2084 18.5715C15.3152 18.0344 14.5449 17.316 13.9244 16.4901C13.7404 16.235 13.5631 15.9731 13.3995 15.7046C13.1881 15.342 12.9972 14.966 12.895 14.5632C12.8541 14.3886 12.8336 14.2207 12.8336 14.0462C12.8336 13.4285 13.0654 12.8107 13.5563 12.4146C13.8426 12.1863 14.2653 12.0856 14.5858 12.2602C14.9335 12.4549 15.1107 12.945 15.2743 13.2875C15.4039 13.556 15.547 13.9119 15.4925 14.214C15.438 14.5094 15.1993 14.7646 15.0084 14.9929C14.8789 15.1406 14.8585 15.2681 14.9675 15.4293C15.6016 16.4834 16.4879 17.2421 17.6469 17.692C17.8037 17.7591 17.9264 17.739 18.0287 17.6114C18.2264 17.3697 18.4241 16.893 18.7309 16.7721C19.1331 16.611 19.5763 16.8326 19.9172 17.034C20.2376 17.222 20.7694 17.4503 20.8512 17.8397C20.8921 18.0277 20.858 18.2224 20.783 18.397Z" fill="#211E1E"/>
</svg>
