<svg width="80" height="78" viewBox="0 0 80 78" fill="none" xmlns="http://www.w3.org/2000/svg">
<path d="M77.8497 54.2725C76.7672 54.1003 75.6392 54.2205 74.3914 54.2205C74.3914 53.4053 74.3914 52.8239 74.3914 52.2425C74.3914 44.48 74.3395 36.7175 74.4303 28.955C74.4497 27.2564 73.7561 26.5353 72.2555 26.4606C70.5215 26.3762 68.7777 26.4411 66.8428 26.4411C66.8363 26.2885 66.7844 25.7169 66.7812 25.1485C66.7715 22.0759 66.7455 19.0034 66.7812 15.9309C66.7942 14.6317 66.2432 14.0958 64.95 14.0698C62.2825 14.0146 60.166 15.1417 58.3931 17.0092C58.0528 17.3697 57.9556 17.9641 57.7449 18.448C57.5083 18.2532 57.2717 18.0583 57.0351 17.8634C57.0351 15.4502 56.7207 12.985 57.1031 10.6336C57.8292 6.15793 55.4793 3.96559 51.8395 2.46831C51.2431 2.22471 50.6533 1.96813 50.0504 1.74077C45.2535 -0.0813039 40.2719 -0.292418 35.2675 0.28571C30.9439 0.785888 26.8438 2.11428 23.4827 5.03091C22.8183 5.60904 22.3094 6.71657 22.2673 7.60325C22.1182 10.6693 22.2155 13.7451 22.2025 16.8176C22.2025 17.2041 22.1117 17.5906 22.1085 17.6231C20.2935 16.535 18.5919 15.1482 16.6472 14.4304C13.3801 13.2221 12.4985 13.9984 12.4985 17.4152C12.4985 20.5722 12.4985 23.7259 12.4985 26.714C10.6446 26.6035 8.99482 26.3632 7.35804 26.4411C5.20592 26.5418 4.89801 26.9803 4.89477 29.1304C4.88829 33.9276 4.89477 38.7247 4.89477 43.5219C4.89477 46.7016 4.8656 49.8846 4.91098 53.0643C4.92718 54.1198 4.54797 54.5258 3.50108 54.4544C2.64542 54.3959 1.76707 54.3797 0.92761 54.5193C0.561361 54.581 -0.0220455 55.104 0.000642466 55.367C0.0395362 55.7958 0.431715 56.2764 0.807688 56.5655C1.05726 56.7571 1.53046 56.6727 1.90644 56.6727C6.26253 56.6792 10.6219 56.6759 14.978 56.6727C15.2988 56.6727 15.7105 56.7669 15.9244 56.6077C16.3133 56.3219 16.7606 55.9094 16.8384 55.484C16.8902 55.2144 16.3263 54.5453 16.0313 54.5388C14.6603 54.5161 14.6928 53.6651 14.6928 52.6843C14.7057 41.4173 14.7025 30.1535 14.7025 18.8865C14.7025 18.0875 14.7025 17.2918 14.7025 16.3889C18.3974 16.7429 22.1895 20.8352 22.196 24.2163C22.2122 31.654 22.1895 39.095 22.2187 46.5327C22.2219 47.4714 21.7779 48.9297 23.2948 48.9589C25.032 48.9914 24.3578 47.4129 24.4194 46.471C24.5167 44.9153 24.3935 43.3433 24.4875 41.7843C24.5167 41.2971 24.8505 40.5631 25.2297 40.4137C26.3576 39.9687 27.5763 39.7608 28.9959 39.3971C28.9959 41.1314 28.889 42.6385 29.0445 44.1195C29.1126 44.7756 29.6539 45.8442 30.0947 45.9059C31.349 46.078 31.2226 44.9315 31.2388 44.0903C31.2647 42.7976 31.1902 41.4985 31.2874 40.2123C31.3198 39.7868 31.7185 39.0723 32.0134 39.0365C34.0618 38.7994 36.1264 38.7052 38.3207 38.5526C38.3207 39.8777 38.3142 40.8943 38.3207 41.9142C38.3272 42.7749 38.1943 43.8045 39.4745 43.798C40.6835 43.7915 40.5085 42.7944 40.5279 42.0051C40.5798 39.5281 41.8676 38.4422 44.3914 38.7475C44.4983 38.7605 44.6053 38.7832 44.709 38.7962C45.6651 38.9066 46.9195 38.689 47.4931 39.2152C48.0247 39.7024 47.7395 41.0113 47.9955 41.9077C48.1252 42.3624 48.66 42.7034 49.01 43.0964C49.3892 42.7197 49.9888 42.3949 50.0958 41.9499C50.2773 41.2061 50.1444 40.3877 50.1444 39.3353C51.8233 39.7868 53.2267 40.1116 54.5977 40.5468C56.5262 41.1607 57.0124 40.8456 57.0156 38.7832C57.0286 34.3076 57.0545 29.8352 57.0091 25.3596C56.9702 21.618 58.9668 19.1009 61.8384 17.1261C62.5288 16.6519 63.4558 16.522 64.5059 16.155V18.4253C64.5059 26.5646 64.4994 34.7038 64.5156 42.8431C64.5156 43.7557 64.211 45.0614 65.6727 45.0452C67.1863 45.0289 66.7229 43.6648 66.7358 42.8009C66.7877 39.2444 66.7585 35.6847 66.7617 32.1282C66.7617 29.4487 67.5818 28.6822 70.2881 28.536C71.7726 28.4581 72.2133 28.9745 72.2004 30.4685C72.1291 38.5006 72.2004 46.5327 72.1323 54.5648C72.1194 56.0913 72.6315 56.6045 74.1029 56.4778C75.3313 56.3739 76.5889 56.5493 77.8076 56.3901C78.3359 56.3219 78.7896 55.7146 79.279 55.354C78.7994 54.974 78.3586 54.3472 77.8335 54.266L77.8497 54.2725ZM12.4953 52.6031C12.4953 53.1292 12.4953 53.6554 12.4953 54.4219C10.8941 54.4219 9.4583 54.4836 8.0322 54.3732C7.72429 54.3504 7.21867 53.7106 7.21543 53.3501C7.16681 45.4836 7.16033 37.6172 7.22191 29.7508C7.22191 29.3545 7.87662 28.6952 8.29473 28.6335C9.05964 28.523 9.88938 28.7017 10.664 28.8803C11.9767 29.1856 12.5406 29.9619 12.5277 31.4267C12.4531 38.4844 12.4953 45.5453 12.4953 52.6031ZM28.9668 36.357C28.957 36.6753 28.5973 37.1787 28.3056 37.2599C27.1388 37.5912 25.933 37.7926 24.4972 38.0946C24.4972 36.0842 24.4583 34.2264 24.5361 32.3751C24.5491 32.0665 25.0061 31.654 25.3496 31.5046C26.4646 31.0272 27.6217 30.6472 28.9992 30.147C28.9992 32.3978 29.0283 34.379 28.97 36.357H28.9668ZM38.2559 36.2726C35.9871 36.4317 33.7734 36.5876 31.2907 36.763C31.2907 34.5284 31.268 32.4076 31.3231 30.2899C31.3295 30.0398 31.7509 29.6241 32.0199 29.5884C34.0229 29.3285 36.0357 29.1499 38.2559 28.9225V36.2758V36.2726ZM47.9307 36.7045C45.5809 36.5876 43.4968 36.5291 41.4257 36.3408C41.1048 36.3115 40.6025 35.6879 40.5863 35.3209C40.4987 33.5541 40.489 31.7775 40.5927 30.0138C40.6154 29.6533 41.2669 29.0297 41.6072 29.0427C43.4223 29.1142 45.2341 29.3123 47.0329 29.5689C47.3667 29.6176 47.8756 30.1308 47.8886 30.4458C47.9663 32.4693 47.9275 34.4992 47.9275 36.7045H47.9307ZM54.8019 38.1011C53.3531 37.7926 52.1863 37.6172 51.0714 37.2664C50.6986 37.1495 50.2287 36.5876 50.2125 36.2109C50.125 34.2848 50.1736 32.3556 50.1736 30.0983C51.658 30.6537 52.948 31.0857 54.1893 31.6345C54.481 31.7645 54.763 32.2809 54.7728 32.6317C54.8311 34.3953 54.7987 36.1621 54.7987 38.1044L54.8019 38.1011ZM54.8732 9.59422C54.6723 15.5119 54.8052 21.4394 54.8052 27.3635C54.8052 27.9417 54.8052 28.523 54.8052 29.1759C44.6928 25.8825 34.7392 25.8695 24.5329 29.1596C24.5005 28.5263 24.4518 28.0001 24.4518 27.4772C24.4486 21.1763 24.4778 14.8753 24.4259 8.57438C24.4162 7.41163 24.8181 6.6776 25.7515 6.04101C28.7042 4.02081 31.994 2.92301 35.5009 2.53326C41.309 1.88693 46.9648 2.3189 52.2414 5.19655C54.0338 6.17417 54.951 7.32718 54.8732 9.59747V9.59422Z" fill="white"/>
<path d="M70.1942 71.389C69.6691 65.2179 69.1667 59.0469 68.5574 52.8856C68.5055 52.3465 67.7925 51.5442 67.2771 51.4468C66.1363 51.2324 64.9111 51.2909 63.7475 51.4468C63.673 51.4565 63.6049 51.4825 63.5336 51.5215C62.8011 51.9372 62.8011 53.061 63.5336 53.48C63.6017 53.519 63.673 53.5482 63.7475 53.5644C64.5611 53.7333 65.4329 53.6132 66.4442 53.6132C67.0503 60.8657 67.6402 67.917 68.2365 75.0331H42.5245C43.1306 67.8553 43.7205 60.8463 44.3169 53.7756H50.1671C50.219 54.0614 50.2741 54.2173 50.2709 54.3732C50.2611 55.2793 50.2968 56.2797 51.4863 56.231C52.5915 56.1888 52.504 55.1852 52.5105 54.3699C52.517 52.9701 52.4748 51.5637 52.5429 50.1671C52.6077 48.9069 53.1198 47.689 54.3903 47.4194C55.259 47.2343 56.4485 47.4551 57.181 47.9553C58.2506 48.6893 58.4904 49.9593 58.0107 51.3786C57.1745 51.3786 56.335 51.2357 55.5831 51.4306C55.4113 51.476 55.2557 51.58 55.1099 51.7131C54.601 52.1776 54.6432 53.0188 55.2104 53.4085C55.3173 53.4832 55.4308 53.5385 55.5474 53.5677C56.3577 53.7626 57.2296 53.6911 58.0982 53.7333C58.1663 54.1296 58.1436 54.4284 58.27 54.6395C58.3802 54.8214 58.4969 55 58.6168 55.1754C59.0057 55.747 59.8711 55.7503 60.2276 55.1559C60.3411 54.9675 60.4221 54.7727 60.4416 54.5745C60.5842 53.0253 60.5615 51.4468 60.4545 49.8911C60.2633 47.1076 58.2538 45.0679 55.6576 44.8763C53.2527 44.7009 51.0163 46.4613 50.4459 49.0336C50.2871 49.7482 50.2579 50.4952 50.1769 51.1805C49.9824 51.2552 49.8852 51.3266 49.7879 51.3266C48.3359 51.3461 46.8839 51.3656 45.4351 51.3689C43.4947 51.3732 42.3549 52.301 42.0157 54.1523C41.967 54.4121 41.873 54.6622 41.7466 55.1007C41.0628 55.1007 40.3432 54.9773 39.6982 55.1429C39.6334 55.1592 39.5718 55.1819 39.5102 55.2111C38.7615 55.5619 38.6902 56.5818 39.345 57.0852C39.4454 57.1631 39.5524 57.2248 39.6658 57.2638C40.2622 57.4684 40.9817 57.3125 41.7272 57.3125C41.5975 59.0209 41.4938 60.4143 41.3836 61.8109C41.0077 66.4262 40.6382 71.0415 40.246 75.6567C40.1099 77.258 40.8877 77.3099 43.3316 77.2677C51.6581 77.1183 59.077 77.1475 67.3711 77.2807C69.8668 77.3197 70.716 77.2677 70.5442 75.5755C70.4016 74.1822 70.3206 72.7856 70.2007 71.389H70.1942Z" fill="white"/>
<path d="M35.8542 75.1922C31.712 75.1824 27.5731 75.1922 23.4309 75.1824C22.8669 75.1824 22.303 75.1337 21.5769 75.098C22.0923 69.0699 22.5882 63.2496 23.0906 57.3871H27.7286C27.8161 57.6599 27.8291 57.8321 27.9134 57.9523C28.0819 58.1894 28.2569 58.4265 28.4287 58.6571C28.7626 59.1053 29.44 59.0825 29.7479 58.6181C29.9196 58.3583 30.059 58.0952 30.1044 57.8126C30.2729 56.7603 30.14 55.6657 30.1562 54.5874C30.1822 52.8173 30.986 51.7975 32.357 51.7682C33.7183 51.739 34.642 52.7686 34.7101 54.4802C34.7587 55.7177 34.6225 56.9714 34.7781 58.1926C34.8138 58.4654 35.0212 58.7188 35.2611 58.9656C35.5657 59.2807 36.0713 59.2872 36.3825 58.9818C36.6353 58.735 36.8525 58.4849 36.8784 58.2153C37.021 56.8285 36.9789 55.4156 36.914 54.019C36.7909 51.4662 34.9272 49.5597 32.5482 49.4655C30.1887 49.3713 28.2148 51.1576 27.9976 53.7592C27.9069 54.8375 27.4855 55.1396 26.497 55.1006C25.1552 55.0486 23.8101 55.1006 22.465 55.0909C21.5056 55.0844 20.9773 55.4644 20.8931 56.4907C20.3745 62.7689 19.8073 69.0439 19.3017 75.3221C19.1493 77.2026 19.3924 77.4073 21.2334 77.4105C26.0724 77.4202 30.9147 77.4137 35.7537 77.4105C36.6126 77.4105 37.6401 77.5404 37.6368 76.2607C37.6368 75.0655 36.6515 75.1954 35.8542 75.1954V75.1922Z" fill="white"/>
</svg>
