<svg width="79" height="73" viewBox="0 0 79 73" fill="none" xmlns="http://www.w3.org/2000/svg">
<path d="M33.8765 34.9945C32.7454 34.9881 31.611 35.0628 30.4928 34.9491C30.0941 34.9101 29.4556 34.4651 29.4102 34.1403C29.138 32.0714 29.0019 29.983 28.8139 27.8167H40.9293C40.8806 28.8138 40.7153 29.6875 40.845 30.5157C40.858 30.5936 40.8774 30.6683 40.9033 30.743C41.2112 31.607 42.4364 31.7596 42.8869 30.9639C42.9323 30.8827 42.9647 30.8015 42.9809 30.717C43.5416 27.7322 43.493 27.7257 46.4619 27.6803C46.6758 27.6803 46.9448 27.755 47.0972 27.6543C47.2171 27.5731 47.3338 27.4919 47.4505 27.4042C48.1441 26.891 48.0079 25.751 47.1847 25.4944C47.1393 25.4814 47.0972 25.4717 47.0518 25.4652C45.9174 25.2963 44.7409 25.4132 43.4638 25.4132C43.6907 22.8863 43.8949 20.6485 44.1023 18.3587C44.5658 18.2905 44.9256 18.1931 45.2886 18.1899C49.0451 18.1769 52.8016 18.1834 56.8465 18.1834C56.6099 19.2682 56.4738 20.0542 56.2599 20.8174C56.0265 21.6619 55.8677 22.5193 56.9535 22.7792C58.0652 23.0455 58.2499 22.0873 58.4671 21.3143C58.7296 20.3822 58.9435 19.4371 59.1769 18.4984C59.7247 16.2703 59.4848 15.965 57.1674 15.965C42.8059 15.965 28.4411 15.9326 14.0796 16.0073C12.3715 16.017 11.6455 15.611 11.3733 13.8506C10.939 11.0412 10.268 8.25774 9.56794 5.49702C8.69608 2.05099 6.18418 0.0989916 2.67402 0.115231C1.68223 0.118479 0.0130427 -0.527855 7.80894e-05 1.20653C-0.0128865 2.82399 1.59148 2.22637 2.5541 2.27509C5.14054 2.4115 6.75787 3.63597 7.43851 6.15635C7.64918 6.9326 7.79828 7.72833 7.96682 8.51758C10.2648 19.2454 12.5628 29.9765 14.8543 40.7044C15.2626 42.6141 16.1215 44.1991 17.6643 45.4788C18.319 46.0212 18.7663 46.7715 18.8765 47.6159C19.2363 50.3539 19.5377 53.0562 22.0561 54.7548C20.0692 57.4506 19.9072 59.7209 21.4759 61.6469C22.8858 63.3813 25.3102 63.9172 27.3035 62.9396C29.6566 61.7833 30.3307 59.7014 29.4686 55.9046C30.6775 55.9046 31.8443 55.9143 33.0079 55.9046C33.8506 55.8949 34.8392 55.7974 34.6285 54.6899C34.541 54.2352 33.601 53.67 33.0209 53.6343C30.9303 53.5044 28.8203 53.4784 26.733 53.6018C22.7432 53.8422 20.9476 51.377 21.3754 46.6708C21.9459 46.6708 22.5293 46.6708 23.1127 46.6708C26.7687 46.6708 30.4247 46.7065 34.0775 46.6156C34.165 46.6156 34.2525 46.5928 34.3368 46.5636C35.1697 46.2551 35.1892 45.0826 34.421 44.6376C34.3011 44.5694 34.1747 44.5142 34.0451 44.4882C33.1181 44.2933 32.1133 44.4979 31.154 44.394C30.8039 44.355 30.2465 43.9458 30.2108 43.6567C29.9645 41.5846 29.8316 39.5026 29.6436 37.2064C31.1248 37.2064 32.4537 37.1999 33.7825 37.2064C34.6187 37.2129 35.5425 37.2226 35.5943 36.1151C35.6527 34.9296 34.6868 34.9945 33.87 34.9913L33.8765 34.9945ZM25.2551 56.028C26.6326 56.0702 27.741 57.2655 27.7119 58.6751C27.6827 60.0814 26.4997 61.2377 25.1319 61.1954C23.7544 61.1532 22.6492 59.9612 22.6784 58.5484C22.7076 57.1356 23.8841 55.989 25.2551 56.0313V56.028ZM13.6161 24.1368C13.3082 22.2432 12.8285 20.3789 12.378 18.297H25.6862C25.9001 20.6388 26.1075 22.8701 26.3311 25.306C25.5111 25.345 24.7851 25.4035 24.0591 25.4067C21.1096 25.4165 18.1602 25.3807 15.2108 25.4294C14.2352 25.4457 13.7847 25.1729 13.6161 24.1368ZM15.7845 33.9877C15.2399 32.0357 14.8996 30.0252 14.4199 27.6997C18.345 27.6997 22.0334 27.6803 25.7218 27.7387C26.033 27.7452 26.5678 28.2584 26.6034 28.5832C26.8335 30.6034 26.9502 32.6366 27.1187 34.8744C26.2663 34.9198 25.5468 34.9848 24.8273 34.9913C22.3057 35.0043 19.784 35.0498 17.2657 34.9491C16.7406 34.9296 15.9076 34.4294 15.7877 33.9909L15.7845 33.9877ZM20.7758 44.2673C19.6803 44.1114 18.3676 43.1111 17.8069 42.1205C17.0226 40.7434 16.854 39.0155 16.3776 37.2843H27.3327C27.5498 39.6033 27.7637 41.9126 27.9906 44.3648C25.4528 44.3648 23.077 44.5921 20.7758 44.2673ZM27.9776 18.2646H41.8108C41.6067 20.6388 41.4154 22.9091 41.2112 25.2898H28.6129C28.4055 23 28.2013 20.7265 27.9776 18.2646Z" fill="white"/>
<path d="M78.5654 69.9452C78.2867 65.9145 77.9334 61.8904 77.619 57.8629C77.0615 50.7208 76.5073 43.5786 75.9596 36.4365C75.8883 35.5076 75.4928 34.8612 74.5043 34.8418C72.5693 34.8093 70.6279 34.7638 68.6994 34.8937C68.6022 34.9002 68.5082 34.9392 68.4142 34.9977C67.6817 35.4589 67.7498 36.5891 68.5179 36.9919C68.6054 37.0373 68.6962 37.0698 68.7901 37.0828C69.8954 37.2485 71.0492 37.2192 72.1707 37.125C73.4153 37.0211 73.7912 37.4563 73.882 38.7295C74.42 46.3036 75.0747 53.8713 75.6711 61.4422C75.8883 64.2126 76.0633 66.9863 76.261 69.8348H39.8046C40.67 58.8925 41.5224 48.0835 42.3748 37.2907H51.4144C51.4468 37.9143 51.4792 38.3917 51.4954 38.8692C51.5246 39.6746 51.4046 40.6847 52.5423 40.701C53.748 40.7172 53.7253 39.7071 53.7221 38.814C53.7156 36.7126 53.6799 34.6079 53.7383 32.5065C53.7869 30.7039 54.649 29.3203 56.2664 28.5311C57.6568 27.8523 59.339 28.0211 60.5609 28.9695C62.4537 30.4408 62.6255 32.4578 62.2884 34.8158C60.7002 34.8158 59.1964 34.7151 57.7152 34.8645C57.122 34.9262 56.1886 35.4621 56.1011 35.9168C55.8904 37.0211 56.8725 37.1283 57.7184 37.1348C59.2126 37.1478 60.7067 37.138 62.4537 37.138C62.4537 37.9922 62.3208 38.71 62.4958 39.3466C62.4958 39.3564 62.5023 39.3661 62.5056 39.3791C62.7811 40.282 64.0581 40.4379 64.5248 39.6162C64.5831 39.5122 64.622 39.4083 64.6253 39.3011C64.7387 36.9367 64.7938 34.5527 64.6253 32.1915C64.3563 28.3979 61.4036 25.7833 57.767 25.9003C54.2601 26.0139 51.6088 28.8526 51.5084 32.6137C51.4922 33.2503 51.5084 33.8869 51.5084 34.8158C48.9446 34.8158 46.6402 34.8093 44.3357 34.8158C39.7527 34.8353 40.3686 34.3643 39.9796 39.0316C39.124 49.3372 38.3753 59.6526 37.5682 69.9614C37.4191 71.8712 37.6233 72.1603 39.4999 72.1603C51.8195 72.1668 64.1359 72.1668 76.4555 72.1603C78.533 72.1603 78.7145 72.0141 78.5719 69.9419L78.5654 69.9452Z" fill="white"/>
</svg>
