<svg width="74" height="69" viewBox="0 0 74 69" fill="none" xmlns="http://www.w3.org/2000/svg">
<path d="M73.7555 16.4279C73.7231 11.5918 71.4219 7.91516 66.9329 5.9924C65.3123 5.29735 63.4 5.17392 61.6012 5.0505C59.3713 4.89785 57.1219 5.01478 54.7202 5.01478C54.7202 3.5792 54.8337 2.38396 54.6651 1.2342C54.5971 0.772999 53.9002 0.409237 53.4919 0C53.158 0.418981 52.6654 0.789247 52.5292 1.26344C52.3574 1.86106 52.4125 2.55286 52.4839 3.18945C52.6329 4.54708 52.2084 5.06674 50.7239 5.05375C41.5288 4.98554 32.3304 5.01802 23.1353 5.01152C22.5616 5.01152 21.9879 4.93359 21.2716 4.88162C21.2716 3.87152 21.3008 3.01732 21.2619 2.16312C21.223 1.30242 21.5698 0.0454723 20.2118 0.0422244C18.7727 0.0389765 19.0936 1.33164 19.0644 2.25405C19.0352 3.09851 19.0579 3.94622 19.0579 5.02453C16.3094 5.02453 13.7392 4.96606 11.1722 5.03751C4.77097 5.20965 0.0324114 10.0458 0.0194469 16.4442C-0.00648229 29.8093 -0.00648229 43.1745 0.0194469 56.5429C0.0324114 63.1394 4.95247 68.099 11.5612 68.1119C28.4475 68.1477 45.3371 68.1509 62.2235 68.1119C68.7544 68.0957 73.7198 63.2466 73.762 56.6858C73.8527 43.2654 73.8495 29.8483 73.7555 16.4279ZM2.2137 17.0548C2.22667 11.0721 6.00584 7.28831 11.9955 7.26558C14.2513 7.25583 16.5072 7.26558 19.0547 7.26558C19.0547 8.58423 19.0644 9.70151 19.0547 10.822C19.045 11.7152 19.019 12.7383 20.2085 12.7286C21.3073 12.7188 21.2716 11.7347 21.2652 10.9032C21.2554 9.77946 21.2652 8.65893 21.2652 7.40523H52.4709C52.4709 8.58098 52.4579 9.78597 52.4741 10.9942C52.4871 11.8192 52.5325 12.8617 53.6183 12.6799C54.0785 12.6019 54.5809 11.5593 54.6911 10.8935C54.8693 9.79571 54.7397 8.6492 54.7397 7.0967C58.3147 7.29482 61.9091 6.93755 65.1827 7.80474C70.3944 9.1851 71.8821 13.7549 71.4575 18.4644C71.4316 18.7697 70.7639 19.2276 70.3782 19.2471C68.7155 19.3348 67.0463 19.2861 65.3771 19.2861C45.0454 19.2861 24.7137 19.2861 4.38527 19.2861C2.9354 19.2861 2.21262 18.5423 2.21694 17.0548H2.2137ZM71.5094 56.0719C71.4899 60.8594 69.1401 64.2112 65.04 65.4032C63.8732 65.741 62.6059 65.8774 61.3873 65.8806C44.9838 65.9099 28.5804 65.9099 12.177 65.8904C6.02853 65.8839 2.22991 62.0513 2.22018 55.8803C2.20398 44.9933 2.2137 34.1063 2.22018 23.2193C2.22018 22.7419 2.26556 22.2677 2.30121 21.5986H71.4121C71.4543 22.141 71.5256 22.6152 71.5256 23.0894C71.5321 34.0836 71.558 45.0778 71.5126 56.0719H71.5094Z" fill="white"/>
<path d="M24.7202 44.8764C26.0847 44.8732 27.0084 43.9605 27.0052 42.8497C27.0019 41.7812 25.9907 40.7093 24.9373 40.797C23.7251 40.8977 22.9213 41.5571 22.9246 42.8595C22.9311 44.1554 23.6927 44.7855 24.7202 44.8797V44.8764Z" fill="white"/>
<path d="M36.9134 40.7968C35.7012 40.878 34.8877 41.5243 34.8715 42.83C34.8553 44.1291 35.6072 44.769 36.8097 44.8924C38.145 44.8307 38.8354 44.1129 38.9326 42.8787C39.0169 41.8166 37.9668 40.7253 36.9102 40.7968H36.9134Z" fill="white"/>
<path d="M12.9354 51.6904C11.6325 51.7261 11.0329 52.4959 10.9615 53.5352C10.994 54.8669 11.9566 55.799 13.0488 55.7665C14.1184 55.734 15.1459 54.698 15.0421 53.6359C14.9222 52.4082 14.2416 51.6514 12.9354 51.6904Z" fill="white"/>
<path d="M12.9678 34.0966C14.0211 34.1908 15.1037 33.132 15.0453 32.0667C14.9805 30.8357 14.3193 30.0465 13.0196 30.0335C11.7264 30.0172 11.0749 30.7545 10.9518 31.9627C11.0166 33.3041 11.7523 33.9894 12.9678 34.0998V34.0966Z" fill="white"/>
<path d="M24.9665 34.1161C26.0296 34.0998 27.0797 33.0735 26.989 32.0147C26.8853 30.7902 26.2143 30.0172 24.9114 30.0335C23.6085 30.0497 22.9894 30.8064 22.9116 31.849C22.9311 33.1904 23.8742 34.1356 24.9665 34.1193V34.1161Z" fill="white"/>
<path d="M36.8356 30.0303C35.5327 30.0562 34.9266 30.826 34.8521 31.8751C34.8845 33.2035 35.8438 34.1421 36.9296 34.1129C38.0024 34.0837 39.0331 33.0606 38.9327 31.992C38.8192 30.7643 38.1353 30.001 36.8356 30.027V30.0303Z" fill="white"/>
<path d="M48.9996 30.0142C47.58 30.0531 46.7665 30.9236 46.8022 32.109C46.8378 33.2231 47.8134 34.1585 48.8992 34.113C49.972 34.0676 50.9897 33.0315 50.8795 31.9726C50.7531 30.7417 50.0498 30.0369 48.9996 30.0174V30.0142Z" fill="white"/>
<path d="M60.7585 34.0935C61.8119 34.191 62.888 33.1224 62.8264 32.0571C62.7551 30.8229 62.0842 30.0888 60.7715 30.0044C59.5334 30.0921 58.7782 30.7189 58.7588 32.0181C58.7393 33.3335 59.5528 33.9798 60.7553 34.0903L60.7585 34.0935Z" fill="white"/>
<path d="M13.0423 40.7777C11.9501 40.7452 10.9647 41.6806 10.9712 42.8011C10.9777 44.0938 11.6908 44.7499 12.877 44.8895C14.2318 44.8473 14.9319 44.136 15.0421 42.9018C15.1393 41.8398 14.1119 40.8102 13.0423 40.7777Z" fill="white"/>
<path d="M48.7759 40.8003C47.5637 40.9302 46.7794 41.6058 46.8183 42.9114C46.8572 44.2106 47.6318 44.8212 48.8861 44.8959C50.1631 44.7725 50.8373 44.0352 50.8794 42.7978C50.9183 41.7195 49.8358 40.6899 48.7759 40.8035V40.8003Z" fill="white"/>
<path d="M60.7553 40.8004C59.5431 40.9076 58.7458 41.5702 58.7652 42.8791C58.7847 44.175 59.5464 44.8019 60.7747 44.8993C62.0744 44.7921 62.7616 44.0678 62.8296 42.8336C62.888 41.7716 61.8119 40.7095 60.7553 40.8037V40.8004Z" fill="white"/>
<path d="M24.973 51.6937C23.696 51.6904 22.9602 52.3725 22.9278 53.6619C22.8954 54.9741 23.7025 55.6301 24.9082 55.7471C25.9648 55.851 26.9825 54.7987 27.0084 53.5872C26.8528 52.5219 26.2856 51.6969 24.973 51.6904V51.6937Z" fill="white"/>
<path d="M36.7221 51.6777C35.5391 51.8077 34.852 52.4865 34.8682 53.7759C34.8812 54.8964 35.8859 55.8805 36.962 55.7506C38.1677 55.6045 38.9812 54.8802 38.9229 53.6167C38.8645 52.3793 38.0931 51.6907 36.7254 51.6777H36.7221Z" fill="white"/>
</svg>
