<svg width="81" height="53" viewBox="0 0 81 53" fill="none" xmlns="http://www.w3.org/2000/svg">
<path d="M8.05561 27.0117C8.05561 28.4537 7.98107 29.9023 8.09127 31.3346C8.13341 31.89 8.48669 32.7118 8.89831 32.8612C9.3067 33.0106 10.104 32.5981 10.4865 32.1953C11.475 31.1592 12.3307 29.9965 13.3257 28.7785C14.3434 30.0257 15.1991 31.2047 16.2006 32.2441C16.5733 32.6338 17.3318 32.9391 17.8147 32.8319C18.155 32.7572 18.5213 31.929 18.5407 31.4223C18.6218 29.3242 18.5764 27.2195 18.5764 25.1181C18.5764 23.6338 18.5764 22.1496 18.5764 20.5808C19.2603 20.5808 19.6913 20.597 20.1159 20.5776C21.0072 20.5353 22.1481 20.7367 22.1676 19.3856C22.187 18.0344 21.0753 18.1644 20.1613 18.1644C16.0742 18.1579 11.9839 18.1579 7.8968 18.1644C7.00225 18.1644 5.87433 17.9695 5.77061 19.2751C5.66365 20.6263 6.84343 20.4899 7.70882 20.6555C7.79633 20.6717 7.87087 20.7724 7.95838 20.8406V24.3224C5.12886 24.5855 2.74986 22.6919 2.45492 20.0254C2.08218 16.6833 4.41257 14.1954 7.97459 14.1922C21.7981 14.1824 35.6248 14.1954 49.4483 14.1662C50.278 14.1662 51.1823 14.0298 51.9277 13.6855C59.8815 10.0186 67.8191 6.31923 75.7307 2.5549C75.9965 2.42823 76.2072 2.18789 76.3984 1.90532C76.7808 1.34993 76.5993 0.576912 75.9997 0.26836C75.7404 0.135196 75.4812 0.0377709 75.2219 0.0377709C63.1194 -0.00769984 51.0138 -0.0207018 38.9113 0.0475043C37.3167 0.0572481 35.735 0.352809 34.2441 0.921193C24.3424 4.69202 14.4666 8.53755 4.60704 12.4156C1.66732 13.5718 -0.202819 16.6963 0.0175793 19.7428C0.257424 23.0265 2.39009 25.6768 5.54373 26.5472C6.3054 26.7583 7.10272 26.8363 8.05886 27.0052L8.05561 27.0117ZM10.5967 20.6912H16.0126V28.0088C14.2343 26.387 12.429 26.3902 10.5967 28.0185V20.688V20.6912ZM23.4802 7.63787C27.0811 6.23153 30.6464 4.7375 34.2959 3.46756C35.991 2.87969 37.8353 2.4542 39.6179 2.43471C49.1857 2.32428 58.7536 2.36001 68.3215 2.35351C68.7752 2.35351 69.229 2.42822 69.7281 2.76275C68.7785 3.22071 67.8353 3.68517 66.8792 4.13013C61.8197 6.49136 56.7668 8.86558 51.6879 11.1878C50.9295 11.5354 50.0544 11.7952 49.2344 11.7984C37.8385 11.8374 26.4426 11.8244 15.0468 11.8179C14.6449 11.8179 14.2397 11.7465 13.8378 11.7075C13.8249 11.6133 13.8119 11.5191 13.7989 11.4249C17.0271 10.1648 20.2553 8.90131 23.4835 7.64112L23.4802 7.63787Z" fill="white"/>
<path d="M80.2878 26.8231C79.9896 26.4724 79.322 26.3132 78.8099 26.3165C78.4404 26.3165 78.0644 26.703 77.7014 26.9303C72.7878 30.0321 67.8775 33.1403 62.9639 36.2421C62.5102 36.5279 62.0661 36.8689 61.567 37.0411C60.3807 37.4568 59.5704 37.145 60.2673 34.4785C60.5428 33.4261 60.3937 32.3446 60.0501 31.3117C59.7617 30.4446 60.7729 28.4796 58.8509 28.499C57.1623 28.5153 57.7651 30.0613 57.7295 31.0194C57.6549 33.0364 57.7068 35.0566 57.7068 37.0606H53.2178C41.9192 37.0606 30.6173 37.0346 19.3187 37.08C16.7711 37.0898 14.8297 36.3298 13.6596 33.9133C13.6175 33.8256 13.5462 33.7477 13.4554 33.6827C12.7975 33.1955 11.8478 33.595 11.6533 34.3908C11.6112 34.5629 11.595 34.7318 11.6242 34.8909C11.7538 35.6282 12.2757 36.294 12.6516 37.0346C11.6015 37.1645 10.6745 37.1742 9.80265 37.4016C6.26981 38.3175 3.84219 41.8187 4.25381 45.307C4.73675 49.3864 7.69267 52.1146 11.9029 52.1276C25.9468 52.1698 39.9907 52.1568 54.0345 52.1179C54.78 52.1179 55.626 51.8191 56.258 51.4033C62.1115 47.574 67.9293 43.6863 73.7537 39.8148C74.0648 39.6069 74.4829 39.4348 74.6353 39.136C74.8265 38.7559 75.0048 38.1129 74.8168 37.8563C74.564 37.512 73.9514 37.2652 73.5041 37.2879C73.0763 37.3074 72.6549 37.7036 72.253 37.97C66.6912 41.6563 61.1392 45.3557 55.5709 49.0291C55.0037 49.4026 54.3425 49.6397 53.4576 50.0717C53.4576 47.4344 53.4576 45.229 53.4576 43.027C53.4576 42.1565 53.5451 41.1269 52.3362 41.0717C50.9911 41.01 51.056 42.1078 51.0495 43.0334C51.0365 45.2323 51.0462 47.4279 51.0462 49.8313C50.1549 49.8313 49.5683 49.8313 48.9849 49.8313C39.4591 49.8313 29.9366 49.8313 20.4109 49.8313C17.5587 49.8313 14.7065 49.8801 11.8543 49.8119C8.48674 49.7307 6.18553 47.0056 6.67171 43.7902C7.07037 41.1594 9.30352 39.4705 12.4345 39.4705C28.5235 39.4705 44.6093 39.4932 60.6983 39.4478C61.6999 39.4478 62.6819 39.1684 63.5343 38.6455C68.7169 35.4626 73.8412 32.1854 78.9849 28.9375C79.3479 28.7069 79.8276 28.5348 80.0221 28.2002C80.2587 27.8007 80.4855 27.0505 80.2878 26.8199V26.8231Z" fill="white"/>
<path d="M76.1553 9.80428C75.721 9.82377 75.2997 10.22 74.8783 10.4571C67.0023 14.8873 59.1329 19.3239 51.2504 23.7411C50.6832 24.0594 50.0414 24.2413 49.1599 24.5985C49.1599 22.0132 49.1599 19.7624 49.1599 17.5083C49.1599 16.5957 49.0594 15.6181 47.8926 15.6603C46.8554 15.696 46.7517 16.5892 46.7614 17.4661C46.7841 19.7267 46.7679 21.9872 46.7679 24.4816H44.5996C37.8191 24.4816 31.0386 24.4816 24.2581 24.4816C23.6131 24.4816 22.9131 24.3322 22.3361 24.5368C22.3297 24.5368 22.3264 24.5401 22.3199 24.5433C21.461 24.8616 21.3638 26.0503 22.1092 26.5863C22.213 26.661 22.3167 26.7357 22.4237 26.8071C22.5339 26.8818 22.738 26.8201 22.9001 26.8201C35.654 26.8201 48.4079 26.8266 61.165 26.7974C61.8457 26.7974 62.5166 26.6187 63.1065 26.2809C68.4868 23.2084 73.8509 20.1164 79.1761 16.9497C79.2442 16.9107 79.3057 16.8652 79.3641 16.8133C80.223 16.063 79.8405 14.6924 78.7418 14.3968C78.6251 14.3644 78.5117 14.3449 78.395 14.3351C76.8425 14.2052 75.2705 14.2961 73.705 14.2961C74.8654 13.2276 76.1229 12.6105 77.2379 11.8018C77.3027 11.7563 77.3578 11.6946 77.4032 11.6231C77.8861 10.9053 77.3578 9.95044 76.5021 9.82377C76.3855 9.80753 76.272 9.79779 76.1586 9.80428H76.1553ZM74.2333 17.1023C72.454 18.1384 70.6713 19.1778 68.8919 20.2139C67.3621 21.1038 65.7221 21.8443 64.3284 22.9129C61.6285 24.985 58.6175 24.4751 55.1398 24.4134C55.9533 23.897 56.3649 23.6079 56.8025 23.3611C59.9788 21.5747 63.2718 19.9638 66.3055 17.9631C68.8563 16.2806 71.4881 16.9302 74.2366 17.1056L74.2333 17.1023Z" fill="white"/>
</svg>
