<svg width="78" height="62" viewBox="0 0 78 62" fill="none" xmlns="http://www.w3.org/2000/svg">
<path d="M38.3907 8.5224C23.9903 8.32752 11.8911 20.1304 11.7388 34.5187C11.58 49.5468 23.1736 61.4698 38.0926 61.6192C52.292 61.7621 64.4722 49.9008 64.6181 35.7886C64.7737 20.7118 53.2417 8.72377 38.394 8.5224H38.3907ZM38.1995 59.3067C24.7099 59.3002 13.9136 48.4587 13.9363 34.9474C13.9622 21.6472 24.7877 10.8544 38.1217 10.8382C51.5887 10.8219 62.4465 21.7122 62.4141 35.1942C62.3817 48.4782 51.4979 59.3132 38.1995 59.3067Z" fill="white"/>
<path d="M77.1387 8.53559C77.1192 3.18303 73.8845 -0.019399 68.582 8.84307e-05C66.5207 0.00658425 66.3651 0.146237 66.3651 2.20541C66.3586 10.0783 66.3651 17.948 66.3651 25.821C66.3651 26.1977 66.2452 26.6654 66.4234 26.9318C66.5142 27.0682 66.6244 27.1916 66.7443 27.3053C67.3115 27.8444 68.245 27.6366 68.5367 26.909L68.5431 26.896C68.7084 26.4738 68.6047 25.9412 68.6047 25.454C68.6047 18.3898 68.6047 11.3288 68.6112 4.2646C68.6112 3.6345 68.6663 3.00116 68.6955 2.4003C72.0436 1.94234 74.7694 4.32306 74.805 7.79833C74.8763 14.8073 74.831 21.8163 74.8277 28.8253C74.8277 30.7383 74.0498 32.2941 72.4941 33.3821C70.2707 34.9346 69.603 37.0588 69.7229 39.6896C70.0017 45.7209 70.1605 51.7556 70.2966 57.7934C70.2999 57.9721 70.2415 58.1507 70.1507 58.3326C69.8688 58.8977 69.133 59.0504 68.6307 58.6704C68.4816 58.5567 68.3292 58.443 68.1769 58.3358C68.0472 58.2416 67.9176 58.1507 67.7847 58.0597C67.1073 57.5921 66.1285 57.9883 66.0604 58.81C66.0572 58.8555 66.0572 58.8977 66.0604 58.9432C66.1317 60.3463 67.5222 61.5513 69.0066 61.6974C70.4424 61.8371 71.982 60.9212 72.358 59.4628C72.6075 58.4982 72.5946 57.4426 72.5654 56.4325C72.3969 50.5603 72.1991 44.6881 71.982 38.8159C71.9269 37.3413 72.452 36.2013 73.6512 35.3536C76.1534 33.59 77.1548 31.1021 77.1516 28.1108C77.1419 21.5857 77.1678 15.0639 77.1419 8.53884L77.1387 8.53559Z" fill="white"/>
<path d="M9.87839 57.3191C9.35981 57.2282 8.7926 57.6147 8.47172 58.0174C8.21567 58.3357 8.08279 58.7125 7.85267 58.9853C7.46698 59.44 6.73448 59.3231 6.45574 58.7969C6.22238 58.3585 6.22562 57.8226 6.21265 57.3289C6.20293 56.9164 6.18995 56.4714 6.19968 56.0427C6.41359 45.4318 6.62104 34.8208 6.84468 24.2099C6.88682 22.1605 6.35202 20.3547 4.69256 19.0587C2.93586 17.6881 2.21308 15.9148 2.24225 13.7127C2.29087 9.88663 2.30059 6.0606 2.20336 2.23781C2.19688 1.99097 2.04453 1.75061 1.84358 1.51026C1.43844 1.02308 0.680021 1.04258 0.297566 1.54926C0.148473 1.74413 0.0447436 1.939 0.0415025 2.13713C-0.0233204 6.39189 -0.0103503 10.6499 0.0674372 14.9047C0.109572 17.1165 1.06248 18.997 2.79001 20.3644C4.20315 21.4817 4.6569 22.8653 4.64393 24.5964C4.59856 30.0367 4.62773 35.4769 4.62773 40.9172C4.66662 40.9172 4.70876 40.9172 4.62773 40.9172C4.62773 42.6418 4.52077 44.3892 4.50132 46.1138C4.45594 50.2614 3.99895 54.383 4.00544 58.5306C4.00544 60.3137 5.48987 61.6778 7.2174 61.7136C8.86714 61.746 10.4164 60.4534 10.5169 58.7937C10.5461 58.3195 10.5169 57.4036 9.87839 57.3224V57.3191Z" fill="white"/>
<path d="M14.5553 14.2846C14.604 12.3456 14.5651 10.4033 14.5651 8.46434H14.5715C14.5715 6.47012 14.5715 4.47591 14.5715 2.48169C14.5715 1.66322 14.6493 0.711571 13.5052 0.6661C12.1731 0.610885 12.3643 1.6892 12.3611 2.52392C12.3449 6.24277 12.3546 9.96162 12.3481 13.6805C12.3449 15.6487 11.7485 17.3474 10.277 18.7602C9.90105 19.1207 9.62879 20.0886 9.84595 20.4719C10.3451 21.3553 11.1132 20.9363 11.7388 20.3972C13.6089 18.7894 14.4938 16.7108 14.5586 14.2846H14.5553Z" fill="white"/>
<path d="M4.08968 12.9074C4.10589 13.125 4.21933 13.3329 4.37166 13.5375C4.79625 14.1059 5.66163 14.0831 6.04733 13.4888C6.1478 13.3361 6.21263 13.1802 6.21587 13.0243C6.30338 9.37368 6.30013 5.71654 6.20938 2.06588C6.2029 1.85802 6.07649 1.65341 5.90147 1.44879C5.50929 0.990836 4.78652 1.00058 4.40406 1.46828C4.23228 1.67939 4.10264 1.89375 4.08319 2.11786C3.95031 3.88148 4.03132 5.66133 4.03132 7.43469C4.03132 9.26002 3.94383 11.0951 4.08644 12.9107L4.08968 12.9074Z" fill="white"/>
<path d="M8.27729 13.0566C8.29025 13.245 8.39396 13.4301 8.53657 13.6088C8.9482 14.1317 9.75848 14.1187 10.1507 13.5828C10.2835 13.4009 10.3775 13.219 10.3808 13.0339C10.4683 9.38326 10.4715 5.72611 10.3808 2.07546C10.3775 1.88058 10.2641 1.68895 10.1085 1.49732C9.70338 0.997141 8.94497 1.01013 8.54631 1.51681C8.39397 1.70843 8.28376 1.90331 8.2708 2.10468C8.14115 3.92351 8.21895 5.75532 8.21895 7.58065C8.21895 9.40598 8.14115 11.2411 8.2708 13.0566H8.27729Z" fill="white"/>
<path d="M38.2222 17.75C28.596 17.7403 20.8496 25.4248 20.8205 35.0127C20.7881 44.607 28.5344 52.402 38.099 52.402C47.7317 52.402 55.4424 44.7629 55.5266 35.1361C55.6109 25.61 47.7965 17.7598 38.2222 17.75ZM37.5318 50.1772C29.5975 49.9855 22.8948 42.9278 23.0471 34.9315C23.2124 26.2888 30.1387 19.78 38.9449 19.9943C46.8015 20.1827 53.394 27.2112 53.2287 35.2173C53.0504 43.8697 46.2116 50.3883 37.5318 50.1772Z" fill="white"/>
</svg>
