<svg width="20" height="20" viewBox="0 0 20 20" fill="none" xmlns="http://www.w3.org/2000/svg">
<g clip-path="url(#clip0_84_643)">
<path d="M19.9829 9.42933C19.9125 8.15484 19.6005 6.94312 19.0926 5.83983C18.9119 5.44417 18.7065 5.06372 18.4763 4.6985C17.0515 2.42914 14.7403 0.768499 12.0316 0.207343C11.556 0.108427 11.0691 0.0437512 10.5707 0.01712C10.3957 0.00570668 10.2188 0 10.0418 0C10.0266 0.0114134 10.0133 0.0209245 10 0.0323378C9.98668 0.0209245 9.97337 0.0114134 9.95815 0C9.78124 0 9.60434 0.00570668 9.42933 0.01712C8.93095 0.0437512 8.44208 0.108427 7.96652 0.207343C5.25775 0.768499 2.94845 2.42914 1.52368 4.6985C1.29351 5.06372 1.08807 5.44417 0.907362 5.83983C0.399467 6.94312 0.0875024 8.15484 0.01712 9.42933C0.00570668 9.61765 0 9.80788 0 10C0 10.1921 0.00570668 10.3823 0.01712 10.5707C0.0875024 11.8452 0.399467 13.055 0.907362 14.1583C1.08807 14.5539 1.29351 14.9344 1.52368 15.2996C3.06068 17.7478 5.62678 19.4883 8.61138 19.903C8.88149 19.941 9.15351 19.9677 9.42933 19.9829V19.9753C9.42933 19.9753 9.43504 19.981 9.43884 19.9848C9.62336 19.9943 9.81168 20 10 20C10.1883 20 10.3766 19.9943 10.5612 19.9848C10.565 19.981 10.5688 19.9791 10.5707 19.9753V19.9829C10.8465 19.9677 11.1185 19.941 11.3886 19.903C14.3732 19.4883 16.9393 17.7478 18.4763 15.2996C18.7065 14.9344 18.9119 14.5539 19.0926 14.1583C19.6005 13.055 19.9125 11.8452 19.9829 10.5707C19.9943 10.3823 20 10.1921 20 10C20 9.80788 19.9943 9.61765 19.9829 9.42933ZM8.69888 1.23835C7.80103 2.218 7.05155 3.38977 6.4923 4.6985H2.9066C4.2762 2.87046 6.33631 1.58646 8.69888 1.23835ZM2.18185 5.83983H6.0662C5.70287 6.96405 5.4727 8.17006 5.40422 9.42933H1.16036C1.24215 8.13772 1.60167 6.9222 2.18185 5.83983ZM2.17995 14.1583C1.60167 13.0759 1.24215 11.8604 1.16036 10.5707H5.3852C5.41183 11.8223 5.59825 13.0283 5.91782 14.1583H2.17995ZM2.9047 15.2996H6.29637C6.77192 16.5551 7.42248 17.6945 8.2081 18.6761C6.05098 18.2309 4.17919 17.0021 2.9047 15.2996ZM9.42933 18.1834C8.7141 17.3559 8.11109 16.3801 7.65075 15.2996H9.42933V18.1834ZM9.42933 14.1583H7.23036C6.88225 13.0398 6.67681 11.8318 6.64828 10.5707H9.42933V14.1583ZM9.42933 9.42933H6.6673C6.74339 8.16055 6.99639 6.95073 7.39585 5.83983H9.42933V9.42933ZM9.42933 4.6985H7.87331C8.29751 3.81206 8.82252 3.00552 9.42933 2.3036V4.6985ZM17.0934 4.6985H13.5096C12.9504 3.38977 12.199 2.218 11.3011 1.23835C13.6637 1.58646 15.7238 2.87046 17.0934 4.6985ZM10.5707 2.3036C11.1756 3.00552 11.7006 3.81206 12.1267 4.6985H10.5707V2.3036ZM10.5707 5.83983H12.6041C13.0036 6.95073 13.2566 8.16055 13.3327 9.42933H10.5707V5.83983ZM10.5707 10.5707H13.3517C13.3232 11.8318 13.1177 13.0398 12.7696 14.1583H10.5707V10.5707ZM10.5707 18.1834V15.2996H12.3492C11.8889 16.3801 11.2859 17.3559 10.5707 18.1834ZM11.7919 18.6761C12.5775 17.6945 13.2281 16.5551 13.7055 15.2996H17.0953C15.8208 17.0021 13.949 18.2309 11.7919 18.6761ZM17.82 14.1583H14.0841C14.4037 13.0283 14.5901 11.8223 14.6167 10.5707H18.8396C18.7578 11.8604 18.3983 13.0759 17.82 14.1583ZM14.5977 9.42933C14.5292 8.17006 14.299 6.96405 13.9357 5.83983H17.8181C18.3983 6.9222 18.7578 8.13772 18.8396 9.42933H14.5977Z" fill="white"/>
<path d="M1.52367 4.6985C1.2935 5.06373 1.08806 5.44417 0.907349 5.83983L1.52367 4.6985Z" fill="#231F20"/>
</g>
<defs>
<clipPath id="clip0_84_643">
<rect width="20" height="20" fill="white"/>
</clipPath>
</defs>
</svg>
