<svg width="30" height="30" viewBox="0 0 30 30" fill="none" xmlns="http://www.w3.org/2000/svg">
<g clip-path="url(#clip0_170_5059)">
<path d="M15.001 30C6.72857 30 0 23.2714 0 15.001C0 6.73051 6.72857 0 15.001 0C23.2734 0 30.0019 6.72857 30.0019 15.001C30.0019 23.2734 23.2734 30.0019 15.001 30.0019V30ZM15.001 2.14161C7.91062 2.14161 2.14161 7.91062 2.14161 15.001C2.14161 22.0913 7.91062 27.8584 14.999 27.8584C22.0874 27.8584 27.8564 22.0894 27.8564 15.001C27.8564 7.91255 22.0894 2.14161 15.001 2.14161Z" fill="url(#paint0_linear_170_5059)"/>
<path d="M15.0009 21.6115C14.7262 21.6115 14.4534 21.507 14.2445 21.2981L7.03997 14.0936C6.62209 13.6757 6.62209 12.9967 7.03997 12.5788C7.45785 12.1609 8.13689 12.1609 8.55477 12.5788L15.0009 19.0249L21.447 12.5788C21.8649 12.1609 22.5439 12.1609 22.9618 12.5788C23.3797 12.9967 23.3797 13.6757 22.9618 14.0936L15.7573 21.2981C15.5484 21.507 15.2737 21.6115 15.0009 21.6115Z" fill="url(#paint1_linear_170_5059)"/>
</g>
<defs>
<linearGradient id="paint0_linear_170_5059" x1="0" y1="15.001" x2="30" y2="15.001" gradientUnits="userSpaceOnUse">
<stop stop-color="#009F6A"/>
<stop offset="1" stop-color="#FFCC16"/>
</linearGradient>
<linearGradient id="paint1_linear_170_5059" x1="6.72463" y1="16.9394" x2="23.2752" y2="16.9394" gradientUnits="userSpaceOnUse">
<stop stop-color="#009F6A"/>
<stop offset="1" stop-color="#FFCC16"/>
</linearGradient>
<clipPath id="clip0_170_5059">
<rect width="30" height="30" fill="white"/>
</clipPath>
</defs>
</svg>
