<svg width="157" height="47" viewBox="0 0 157 47" fill="none" xmlns="http://www.w3.org/2000/svg">
<path d="M151.194 46.5438H6.03948C2.78802 46.5438 0.233307 43.989 0.233307 40.7376V5.90053C0.233307 2.64908 2.78802 0.0943604 6.03948 0.0943604H151.194C154.445 0.0943604 157 2.64908 157 5.90053V40.7376C157 43.989 154.445 46.5438 151.194 46.5438Z" fill="black"/>
<path d="M151.194 1.02335C153.865 1.02335 156.071 3.22969 156.071 5.90053V40.7376C156.071 43.4084 153.865 45.6148 151.194 45.6148H6.03948C3.36864 45.6148 1.16229 43.4084 1.16229 40.7376V5.90053C1.16229 3.22969 3.36864 1.02335 6.03948 1.02335H151.194ZM151.194 0.0943604H6.03948C2.78802 0.0943604 0.233307 2.7652 0.233307 5.90053V40.7376C0.233307 43.989 2.78802 46.5438 6.03948 46.5438H151.194C154.445 46.5438 157 43.989 157 40.7376V5.90053C157 2.7652 154.445 0.0943604 151.194 0.0943604Z" fill="#A6A6A6"/>
<path d="M55.2758 11.9389C55.2758 12.8679 55.0436 13.6808 54.463 14.2614C53.7662 14.9582 52.9534 15.3065 51.9083 15.3065C50.8632 15.3065 50.0503 14.9582 49.3535 14.2614C48.6568 13.5647 48.3084 12.7518 48.3084 11.7067C48.3084 10.6616 48.6568 9.84872 49.3535 9.15198C50.0503 8.45524 50.8632 8.10687 51.9083 8.10687C52.3728 8.10687 52.8373 8.223 53.3017 8.45524C53.7662 8.68749 54.1146 8.91974 54.3469 9.26811L53.7662 9.84872C53.3017 9.26811 52.7211 9.03586 51.9083 9.03586C51.2115 9.03586 50.5148 9.26811 50.0503 9.84872C49.4697 10.3132 49.2374 11.01 49.2374 11.8228C49.2374 12.6357 49.4697 13.3324 50.0503 13.7969C50.6309 14.2614 51.2115 14.6098 51.9083 14.6098C52.7211 14.6098 53.3017 14.3775 53.8824 13.7969C54.2307 13.4486 54.463 12.9841 54.463 12.4034H51.9083V11.4745H55.2758V11.9389ZM60.6175 9.03586H57.4822V11.2422H60.3853V12.0551H57.4822V14.2614H60.6175V15.1904H56.5532V8.223H60.6175V9.03586ZM64.4496 15.1904H63.5206V9.03586H61.5465V8.223H66.4237V9.03586H64.4496V15.1904ZM69.7913 15.1904V8.223H70.7203V15.1904H69.7913ZM74.6685 15.1904H73.7395V9.03586H71.7654V8.223H76.5264V9.03586H74.5523V15.1904H74.6685ZM85.7002 14.2614C85.0035 14.9582 84.1906 15.3065 83.1455 15.3065C82.1004 15.3065 81.2875 14.9582 80.5908 14.2614C79.894 13.5647 79.5457 12.7518 79.5457 11.7067C79.5457 10.6616 79.894 9.84872 80.5908 9.15198C81.2875 8.45524 82.1004 8.10687 83.1455 8.10687C84.1906 8.10687 85.0035 8.45524 85.7002 9.15198C86.3969 9.84872 86.7453 10.6616 86.7453 11.7067C86.7453 12.7518 86.3969 13.5647 85.7002 14.2614ZM81.2875 13.6808C81.752 14.1453 82.4487 14.4937 83.1455 14.4937C83.8422 14.4937 84.539 14.2614 85.0035 13.6808C85.468 13.2163 85.8163 12.5196 85.8163 11.7067C85.8163 10.8938 85.5841 10.1971 85.0035 9.7326C84.539 9.26811 83.8422 8.91974 83.1455 8.91974C82.4487 8.91974 81.752 9.15198 81.2875 9.7326C80.823 10.1971 80.4746 10.8938 80.4746 11.7067C80.4746 12.5196 80.7069 13.2163 81.2875 13.6808ZM88.0227 15.1904V8.223H89.0678L92.4354 13.6808V8.223H93.3643V15.1904H92.4354L88.8355 9.50035V15.1904H88.0227Z" fill="white" stroke="white" stroke-width="1.18519" stroke-miterlimit="10"/>
<path d="M79.3134 25.4093C76.5265 25.4093 74.3201 27.4995 74.3201 30.4026C74.3201 33.1896 76.5265 35.3959 79.3134 35.3959C82.1004 35.3959 84.3067 33.3057 84.3067 30.4026C84.3067 27.3834 82.1004 25.4093 79.3134 25.4093ZM79.3134 33.3057C77.8038 33.3057 76.5265 32.0283 76.5265 30.2865C76.5265 28.5446 77.8038 27.2673 79.3134 27.2673C80.823 27.2673 82.1004 28.4285 82.1004 30.2865C82.1004 32.0283 80.823 33.3057 79.3134 33.3057ZM68.5139 25.4093C65.727 25.4093 63.5206 27.4995 63.5206 30.4026C63.5206 33.1896 65.727 35.3959 68.5139 35.3959C71.3009 35.3959 73.5072 33.3057 73.5072 30.4026C73.5072 27.3834 71.3009 25.4093 68.5139 25.4093ZM68.5139 33.3057C67.0043 33.3057 65.727 32.0283 65.727 30.2865C65.727 28.5446 67.0043 27.2673 68.5139 27.2673C70.0235 27.2673 71.3009 28.4285 71.3009 30.2865C71.3009 32.0283 70.0235 33.3057 68.5139 33.3057ZM55.6242 26.9189V29.0091H60.6175C60.5014 30.1703 60.0369 31.0993 59.4563 31.6799C58.7596 32.3767 57.5983 33.1896 55.6242 33.1896C52.4889 33.1896 50.1664 30.751 50.1664 27.6156C50.1664 24.4803 52.605 22.0417 55.6242 22.0417C57.25 22.0417 58.5273 22.7384 59.4563 23.5513L60.9659 22.0417C59.6886 20.8805 58.0628 19.9515 55.7404 19.9515C51.5599 19.9515 47.9601 23.4352 47.9601 27.6156C47.9601 31.7961 51.5599 35.2798 55.7404 35.2798C58.0628 35.2798 59.6886 34.583 61.082 33.0734C62.4755 31.6799 62.94 29.7058 62.94 28.1962C62.94 27.7318 62.94 27.2673 62.8239 26.9189H55.6242ZM108.344 28.5446C107.88 27.3834 106.719 25.4093 104.164 25.4093C101.609 25.4093 99.5189 27.3834 99.5189 30.4026C99.5189 33.1896 101.609 35.3959 104.396 35.3959C106.602 35.3959 107.996 34.0024 108.46 33.1896L106.835 32.0283C106.254 32.8412 105.557 33.4218 104.396 33.4218C103.235 33.4218 102.538 32.9573 101.958 31.9122L108.577 29.1252L108.344 28.5446ZM101.609 30.1703C101.609 28.3124 103.119 27.2673 104.164 27.2673C104.977 27.2673 105.79 27.7317 106.022 28.3124L101.609 30.1703ZM96.1513 34.9314H98.3577V20.416H96.1513V34.9314ZM92.6676 26.4544C92.087 25.8738 91.158 25.2932 89.9968 25.2932C87.5582 25.2932 85.2357 27.4995 85.2357 30.2865C85.2357 33.0734 87.4421 35.1637 89.9968 35.1637C91.158 35.1637 92.087 34.583 92.5515 34.0024H92.6676V34.6992C92.6676 36.5571 91.6225 37.6022 89.9968 37.6022C88.7194 37.6022 87.7904 36.6733 87.5582 35.8604L85.7002 36.6733C86.2808 37.9506 87.6743 39.5763 90.1129 39.5763C92.6676 39.5763 94.7579 38.0667 94.7579 34.4669V25.6415H92.6676V26.4544ZM90.1129 33.3057C88.6033 33.3057 87.3259 32.0283 87.3259 30.2865C87.3259 28.5446 88.6033 27.2673 90.1129 27.2673C91.6225 27.2673 92.7837 28.5446 92.7837 30.2865C92.7837 32.0283 91.6225 33.3057 90.1129 33.3057ZM118.447 20.416H113.221V34.9314H115.428V29.4736H118.447C120.886 29.4736 123.208 27.7317 123.208 24.9448C123.208 22.1578 120.886 20.416 118.447 20.416ZM118.563 27.3834H115.428V22.3901H118.563C120.189 22.3901 121.118 23.7836 121.118 24.8287C121.002 26.106 120.073 27.3834 118.563 27.3834ZM131.917 25.2932C130.292 25.2932 128.666 25.9899 128.085 27.4995L130.059 28.3124C130.524 27.4995 131.221 27.2673 132.033 27.2673C133.195 27.2673 134.24 27.964 134.356 29.1252V29.2414C134.008 29.0091 133.079 28.6607 132.15 28.6607C130.059 28.6607 127.969 29.822 127.969 31.9122C127.969 33.8863 129.711 35.1637 131.569 35.1637C133.079 35.1637 133.775 34.4669 134.356 33.7702H134.472V34.9314H136.562V29.3575C136.33 26.8028 134.356 25.2932 131.917 25.2932ZM131.685 33.3057C130.988 33.3057 129.943 32.9573 129.943 32.0283C129.943 30.8671 131.221 30.5187 132.266 30.5187C133.195 30.5187 133.659 30.751 134.24 30.9832C134.008 32.3767 132.846 33.3057 131.685 33.3057ZM143.878 25.6415L141.439 31.9122H141.323L138.769 25.6415H136.446L140.278 34.4669L138.072 39.3441H140.278L146.201 25.6415H143.878ZM124.369 34.9314H126.576V20.416H124.369V34.9314Z" fill="white"/>
<path d="M12.3101 8.80365C11.9618 9.15202 11.8456 9.73264 11.8456 10.4294V36.0927C11.8456 36.7894 12.0779 37.37 12.4263 37.7184L12.5424 37.8345L26.9417 23.4352V23.203L12.3101 8.80365Z" fill="url(#paint0_linear_15_38)"/>
<path d="M31.5866 28.3124L26.8256 23.5513V23.203L31.5866 18.4419L31.7027 18.558L37.3928 21.8095C39.0185 22.7385 39.0185 24.2481 37.3928 25.1771L31.5866 28.3124Z" fill="url(#paint1_linear_15_38)"/>
<path d="M31.7028 28.1962L26.8256 23.319L12.3102 37.8345C12.8908 38.4151 13.7036 38.4151 14.7487 37.9506L31.7028 28.1962Z" fill="url(#paint2_linear_15_38)"/>
<path d="M31.7028 18.4419L14.7487 8.8036C13.7036 8.22298 12.8908 8.33911 12.3102 8.91973L26.8256 23.319L31.7028 18.4419Z" fill="url(#paint3_linear_15_38)"/>
<path opacity="0.2" d="M31.5866 28.0801L14.7487 37.6022C13.8198 38.1828 13.0069 38.0667 12.4263 37.6022L12.3102 37.7183L12.4263 37.8344C13.0069 38.2989 13.8198 38.4151 14.7487 37.8344L31.5866 28.0801Z" fill="black"/>
<path opacity="0.12" d="M12.3101 37.6022C11.9618 37.2538 11.8456 36.6732 11.8456 35.9765V36.0926C11.8456 36.7894 12.0779 37.37 12.4263 37.7183V37.6022H12.3101ZM37.3928 24.8286L31.5866 28.0801L31.7028 28.1962L37.3928 24.9448C38.2057 24.4803 38.554 23.8996 38.554 23.319C38.554 23.8996 38.0895 24.3641 37.3928 24.8286Z" fill="black"/>
<path opacity="0.25" d="M14.7487 8.91974L37.3928 21.8094C38.0895 22.2739 38.554 22.7384 38.554 23.319C38.554 22.7384 38.2057 22.1578 37.3928 21.6933L14.7487 8.80362C13.123 7.87463 11.8456 8.57137 11.8456 10.4293V10.5455C11.8456 8.80362 13.123 7.99075 14.7487 8.91974Z" fill="white"/>
<defs>
<linearGradient id="paint0_linear_15_38" x1="25.5482" y1="10.2087" x2="6.05921" y2="29.6966" gradientUnits="userSpaceOnUse">
<stop stop-color="#00A0FF"/>
<stop offset="0.007" stop-color="#00A1FF"/>
<stop offset="0.26" stop-color="#00BEFF"/>
<stop offset="0.512" stop-color="#00D2FF"/>
<stop offset="0.76" stop-color="#00DFFF"/>
<stop offset="1" stop-color="#00E3FF"/>
</linearGradient>
<linearGradient id="paint1_linear_15_38" x1="39.5225" y1="23.3202" x2="11.4241" y2="23.3202" gradientUnits="userSpaceOnUse">
<stop stop-color="#FFE000"/>
<stop offset="0.409" stop-color="#FFBD00"/>
<stop offset="0.775" stop-color="#FFA500"/>
<stop offset="1" stop-color="#FF9C00"/>
</linearGradient>
<linearGradient id="paint2_linear_15_38" x1="29.0633" y1="25.9852" x2="2.63591" y2="52.4126" gradientUnits="userSpaceOnUse">
<stop stop-color="#FF3A44"/>
<stop offset="1" stop-color="#C31162"/>
</linearGradient>
<linearGradient id="paint3_linear_15_38" x1="8.70684" y1="0.298719" x2="20.5085" y2="12.1003" gradientUnits="userSpaceOnUse">
<stop stop-color="#32A071"/>
<stop offset="0.069" stop-color="#2DA771"/>
<stop offset="0.476" stop-color="#15CF74"/>
<stop offset="0.801" stop-color="#06E775"/>
<stop offset="1" stop-color="#00F076"/>
</linearGradient>
</defs>
</svg>
