<svg width="157" height="47" viewBox="0 0 157 47" fill="none" xmlns="http://www.w3.org/2000/svg">
<path d="M155.768 40.9767C155.768 41.5614 155.653 42.1405 155.429 42.6807C155.205 43.2209 154.877 43.7116 154.463 44.1249C154.049 44.5382 153.558 44.8659 153.017 45.0892C152.477 45.3126 151.897 45.4272 151.312 45.4266H5.49591C4.31406 45.4278 3.18011 44.9597 2.34343 44.1252C1.50676 43.2908 1.03587 42.1582 1.03433 40.9767V5.48987C1.03587 4.3078 1.50657 3.17465 2.34308 2.33923C3.17959 1.50382 4.31352 1.03443 5.49591 1.03412H151.311C151.896 1.03412 152.476 1.14938 153.017 1.37331C153.557 1.59725 154.049 1.92548 154.462 2.33925C154.876 2.75302 155.204 3.24422 155.428 3.78481C155.652 4.3254 155.767 4.90478 155.767 5.48987L155.768 40.9767Z" fill="white"/>
<path d="M151.312 46.4618H5.49591C4.04001 46.4615 2.64369 45.8838 1.61334 44.8554C0.582988 43.8271 0.00277018 42.4321 0 40.9766L0 5.49097C0.0021538 4.03473 0.581988 2.6388 1.6123 1.60941C2.64262 0.580024 4.03929 0.00122912 5.49591 0L151.311 0C152.768 0.00184242 154.164 0.580834 155.194 1.61009C156.224 2.63935 156.804 4.03492 156.807 5.49097V40.9766C156.809 44.0021 154.34 46.4618 151.312 46.4618Z" fill="#A6A6A6"/>
<path d="M155.768 40.9767C155.768 41.5614 155.653 42.1405 155.429 42.6807C155.205 43.2209 154.877 43.7116 154.463 44.1249C154.049 44.5382 153.558 44.8659 153.017 45.0892C152.477 45.3126 151.897 45.4272 151.312 45.4266H5.49591C4.31406 45.4278 3.18011 44.9597 2.34343 44.1252C1.50676 43.2908 1.03587 42.1582 1.03433 40.9767V5.48987C1.03587 4.3078 1.50657 3.17465 2.34308 2.33923C3.17959 1.50382 4.31352 1.03443 5.49591 1.03412H151.311C151.896 1.03412 152.476 1.14938 153.017 1.37331C153.557 1.59725 154.049 1.92548 154.462 2.33925C154.876 2.75302 155.204 3.24422 155.428 3.78481C155.652 4.3254 155.767 4.90478 155.767 5.48987L155.768 40.9767Z" fill="black"/>
<path d="M35.0139 22.9863C34.9802 19.2416 38.0809 17.4198 38.2227 17.335C36.4666 14.7754 33.7448 14.4257 32.7883 14.3978C30.5023 14.1573 28.2849 15.7653 27.1204 15.7653C25.9327 15.7653 24.1395 14.421 22.2068 14.4605C19.7197 14.4989 17.3931 15.9384 16.117 18.1738C13.4835 22.7318 15.4476 29.43 17.9707 33.1142C19.2328 34.9198 20.7076 36.9333 22.6379 36.8624C24.5265 36.7857 25.2319 35.6599 27.5109 35.6599C29.769 35.6599 30.4315 36.8624 32.4002 36.8171C34.427 36.7857 35.7031 35.0046 36.921 33.184C38.3795 31.117 38.9653 29.0791 38.9885 28.9745C38.942 28.9583 35.0534 27.4734 35.0139 22.9863ZM31.2949 11.9741C32.3107 10.7042 33.0057 8.97652 32.8127 7.22327C31.3426 7.28833 29.504 8.2399 28.4453 9.48193C27.5086 10.5764 26.6718 12.3703 26.888 14.0574C28.5394 14.1805 30.235 13.2243 31.2949 11.9741Z" fill="white"/>
<path d="M151.312 0H73.2087L103.801 46.4618H151.312C152.769 46.4605 154.165 45.8821 155.195 44.8532C156.225 43.8243 156.806 42.429 156.808 40.9731V5.49097C156.806 4.03482 156.226 2.63908 155.196 1.60975C154.165 0.580429 152.769 0.00153589 151.312 0Z" fill="url(#paint0_linear_15_28)"/>
<path d="M62.3679 36.6034H59.7287L58.2829 32.0617H53.2577L51.8805 36.6034H49.3109L54.2908 21.1413H57.366L62.3679 36.6034ZM57.8471 30.1562L56.5397 26.1187C56.4014 25.7063 56.141 24.7349 55.7598 23.2059H55.7133C55.5599 23.8635 55.3147 24.8349 54.9789 26.1187L53.6935 30.1562H57.8471ZM75.1495 30.8917C75.1495 32.7878 74.6347 34.2866 73.6038 35.3869C72.6811 36.3664 71.534 36.8555 70.1661 36.8555C68.689 36.8555 67.6268 36.3292 66.9818 35.2742V41.1242H64.504V29.1187C64.504 27.9277 64.4726 26.7066 64.4122 25.4541H66.5913L66.7296 27.2213H66.7761C67.6024 25.8898 68.8563 25.2241 70.5392 25.2241C71.8547 25.2241 72.953 25.7434 73.8316 26.7833C74.709 27.8255 75.1495 29.1942 75.1495 30.8917ZM72.6253 30.9823C72.6253 29.8971 72.3812 29.0025 71.8908 28.2972C71.355 27.5641 70.6356 27.1969 69.7338 27.1969C69.1225 27.1969 68.567 27.4014 68.0707 27.8046C67.5733 28.2112 67.2479 28.7422 67.0957 29.3998C67.0277 29.6458 66.9891 29.8989 66.9806 30.1539V32.014C66.9806 32.8238 67.2293 33.5082 67.7267 34.0682C68.2241 34.6259 68.8703 34.9059 69.6652 34.9059C70.5984 34.9059 71.3248 34.5446 71.8443 33.8277C72.3649 33.1085 72.6253 32.1604 72.6253 30.9823ZM87.9764 30.8917C87.9764 32.7878 87.4616 34.2866 86.4307 35.3869C85.5068 36.3664 84.3609 36.8555 82.9918 36.8555C81.5147 36.8555 80.4525 36.3292 79.8075 35.2742V41.1242H77.3297V29.1187C77.3297 27.9277 77.2984 26.7066 77.2379 25.4541H79.417L79.5553 27.2213H79.6018C80.4269 25.8898 81.6809 25.2241 83.3649 25.2241C84.6793 25.2241 85.7776 25.7434 86.6585 26.7833C87.5348 27.8255 87.9764 29.1942 87.9764 30.8917ZM85.451 30.9823C85.451 29.8971 85.2058 29.0025 84.7153 28.2972C84.1796 27.5641 83.4625 27.1969 82.5607 27.1969C81.9494 27.1969 81.3939 27.4014 80.8953 27.8046C80.3979 28.2112 80.0736 28.7422 79.9214 29.3998C79.8458 29.7066 79.8052 29.9564 79.8052 30.1539V32.014C79.8052 32.8238 80.055 33.5082 80.5501 34.0682C81.0475 34.6247 81.6937 34.9059 82.491 34.9059C83.4253 34.9059 84.1517 34.5446 84.67 33.8277C85.1907 33.1085 85.451 32.1604 85.451 30.9823ZM102.318 32.2661C102.318 33.5825 101.857 34.6526 100.943 35.4787C99.9363 36.3803 98.5312 36.8323 96.7299 36.8323C95.0656 36.8323 93.7315 36.5116 92.725 35.8691L93.298 33.8045C94.3846 34.4481 95.5782 34.7688 96.8775 34.7688C97.8119 34.7688 98.5382 34.5573 99.0565 34.1379C99.576 33.7173 99.8387 33.155 99.8387 32.4532C99.8387 31.8246 99.6214 31.2983 99.1948 30.8696C98.766 30.442 98.0571 30.0435 97.0611 29.6775C94.3532 28.6679 92.9981 27.1911 92.9981 25.2485C92.9981 23.9797 93.477 22.941 94.4323 22.1289C95.3876 21.3179 96.6543 20.9124 98.2302 20.9124C99.6376 20.9124 100.81 21.1576 101.741 21.6467L101.119 23.666C100.243 23.192 99.2541 22.955 98.1477 22.955C97.2738 22.955 96.5881 23.1699 96.0977 23.5975C95.6851 23.9797 95.4759 24.4456 95.4759 24.9987C95.4759 25.6087 95.7141 26.1152 96.1883 26.5126C96.5997 26.8786 97.3505 27.2771 98.4359 27.7047C99.7678 28.2415 100.746 28.8665 101.373 29.5846C102.004 30.3026 102.318 31.1984 102.318 32.2661ZM110.531 27.3131H107.8V32.7262C107.8 34.1031 108.281 34.7897 109.245 34.7897C109.688 34.7897 110.055 34.7525 110.346 34.6747L110.414 36.5557C109.926 36.7382 109.284 36.8299 108.488 36.8299C107.509 36.8299 106.744 36.5314 106.192 35.9342C105.643 35.337 105.366 34.3366 105.366 32.9284V27.3085H103.739V25.4495H105.366V23.4081L107.8 22.6738V25.4495H110.531V27.3131ZM122.829 30.937C122.829 32.6507 122.338 34.0577 121.36 35.158C120.336 36.2908 118.974 36.8555 117.276 36.8555C115.637 36.8555 114.334 36.3129 113.363 35.2289C112.391 34.1426 111.906 32.7739 111.906 31.1229C111.906 29.3952 112.408 27.98 113.408 26.8797C114.411 25.7783 115.762 25.2276 117.46 25.2276C119.096 25.2276 120.41 25.7713 121.405 26.8565C122.356 27.9092 122.829 29.2685 122.829 30.937ZM120.26 30.9939C120.26 29.9726 120.04 29.0966 119.597 28.3634C119.077 27.4781 118.333 27.0354 117.37 27.0354C116.378 27.0354 115.616 27.4781 115.098 28.3634C114.654 29.0966 114.433 29.9877 114.433 31.0404C114.433 32.0628 114.654 32.9412 115.098 33.672C115.634 34.5573 116.381 35 117.349 35C118.296 35 119.039 34.548 119.576 33.6499C120.031 32.8994 120.26 32.0175 120.26 30.9939ZM130.886 27.6326C130.628 27.5861 130.367 27.5632 130.105 27.5641C129.233 27.5641 128.559 27.8917 128.085 28.5517C127.674 29.1326 127.467 29.8669 127.467 30.7534V36.6034H124.989V28.9653C124.991 27.7949 124.967 26.6246 124.917 25.4553H127.075L127.166 27.5885H127.235C127.497 26.8553 127.909 26.264 128.473 25.8213C128.99 25.4345 129.619 25.225 130.264 25.2241C130.493 25.2241 130.7 25.2404 130.884 25.2694L130.886 27.6326ZM141.967 30.5013C141.974 30.8778 141.943 31.2541 141.877 31.6248H134.444C134.471 32.7262 134.832 33.5698 135.522 34.1507C136.148 34.6689 136.958 34.9291 137.953 34.9291C139.054 34.9291 140.058 34.7549 140.961 34.4028L141.349 36.1212C140.294 36.5813 139.048 36.8102 137.61 36.8102C135.881 36.8102 134.524 36.3013 133.536 35.2858C132.55 34.2692 132.056 32.9029 132.056 31.1914C132.056 29.5114 132.515 28.1113 133.435 26.9948C134.397 25.8027 135.697 25.2067 137.334 25.2067C138.941 25.2067 140.158 25.8027 140.984 26.9948C141.639 27.9394 141.967 29.1105 141.967 30.5013ZM139.605 29.8588C139.622 29.1233 139.459 28.4901 139.124 27.9545C138.695 27.2643 138.035 26.9204 137.15 26.9204C136.34 26.9204 135.68 27.2562 135.178 27.9301C134.765 28.4657 134.52 29.1094 134.445 29.8564L139.605 29.8588Z" fill="white"/>
<path d="M52.543 15.6747C51.8538 15.6747 51.2576 15.641 50.7614 15.5841V8.10866C51.4554 8.00148 52.1568 7.94864 52.8591 7.95065C55.7006 7.95065 57.0092 9.34837 57.0092 11.6268C57.0092 14.2549 55.4635 15.6747 52.543 15.6747ZM52.959 8.90919C52.5755 8.90919 52.2489 8.93242 51.9781 8.98819V14.6709C52.1246 14.6941 52.4058 14.7046 52.801 14.7046C54.6628 14.7046 55.7227 13.6449 55.7227 11.6605C55.7227 9.89096 54.7639 8.90919 52.959 8.90919ZM61.0872 15.7317C59.4858 15.7317 58.448 14.5361 58.448 12.913C58.448 11.2213 59.5079 10.0153 61.1779 10.0153C62.7561 10.0153 63.8172 11.1539 63.8172 12.8235C63.8172 14.5361 62.7236 15.7317 61.0872 15.7317ZM61.1337 10.9053C60.254 10.9053 59.6903 11.7279 59.6903 12.8781C59.6903 14.0063 60.2656 14.8289 61.1221 14.8289C61.9786 14.8289 62.5539 13.9494 62.5539 12.8549C62.5539 11.7395 61.9903 10.9053 61.1337 10.9053ZM72.9495 10.128L71.2353 15.6073H70.1185L69.4084 13.2278C69.2318 12.6458 69.0848 12.0552 68.9679 11.4583H68.9447C68.8552 12.0555 68.6855 12.6539 68.5054 13.2278L67.75 15.6073H66.6215L65.0084 10.128H66.2601L66.8807 12.7329C67.0271 13.3533 67.1503 13.9389 67.2526 14.4919H67.2758C67.3653 14.0307 67.5117 13.4544 67.7267 12.7445L68.5054 10.1291H69.4979L70.2428 12.6887C70.423 13.3092 70.5694 13.918 70.6833 14.4931H70.7158C70.7949 13.9296 70.9192 13.3312 71.0877 12.6887L71.7537 10.1291L72.9495 10.128ZM79.2601 15.6073H78.0422V12.461C78.0422 11.492 77.6703 11.0064 76.9369 11.0064C76.2152 11.0064 75.719 11.6268 75.719 12.3483V15.6073H74.501V11.6942C74.501 11.2097 74.4894 10.6903 74.4557 10.1268H75.5272L75.5842 10.9727H75.6179C75.9456 10.3871 76.6104 10.0153 77.3553 10.0153C78.5059 10.0153 79.2613 10.8948 79.2613 12.3262L79.2601 15.6073ZM82.6188 15.6073H81.3997V7.61371H82.6188V15.6073ZM87.0595 15.7317C85.4591 15.7317 84.4202 14.5361 84.4202 12.913C84.4202 11.2213 85.4801 10.0153 87.1489 10.0153C88.7283 10.0153 89.7882 11.1539 89.7882 12.8235C89.7894 14.5361 88.6946 15.7317 87.0595 15.7317ZM87.1048 10.9053C86.225 10.9053 85.6614 11.7279 85.6614 12.8781C85.6614 14.0063 86.2378 14.8289 87.092 14.8289C87.9497 14.8289 88.5238 13.9494 88.5238 12.8549C88.525 11.7395 87.9625 10.9053 87.1048 10.9053ZM94.5903 15.6073L94.502 14.9764H94.4695C94.0976 15.4842 93.5548 15.7317 92.8668 15.7317C91.8848 15.7317 91.1875 15.0438 91.1875 14.119C91.1875 12.7666 92.3601 12.0671 94.3904 12.0671V11.9661C94.3904 11.2445 94.0081 10.8832 93.2527 10.8832C92.7123 10.8832 92.2381 11.0191 91.8209 11.2898L91.5733 10.4893C92.08 10.1733 92.7123 10.0153 93.4549 10.0153C94.8867 10.0153 95.6096 10.7705 95.6096 12.2821V14.3002C95.6096 14.8533 95.634 15.282 95.6886 15.6085L94.5903 15.6073ZM94.423 12.8781C93.0702 12.8781 92.3915 13.2058 92.3915 13.983C92.3915 14.5582 92.7413 14.8393 93.2271 14.8393C93.8465 14.8393 94.423 14.3665 94.423 13.724V12.8781ZM101.524 15.6073L101.467 14.7278H101.433C101.083 15.3924 100.495 15.7317 99.6737 15.7317C98.3523 15.7317 97.3737 14.5698 97.3737 12.935C97.3737 11.2213 98.3883 10.0141 99.7736 10.0141C100.507 10.0141 101.026 10.2616 101.319 10.7589H101.344V7.61371H102.563V14.1306C102.563 14.6604 102.576 15.1565 102.608 15.6073H101.524ZM101.344 12.3832C101.344 11.6163 100.836 10.9622 100.061 10.9622C99.1577 10.9622 98.6056 11.7627 98.6056 12.8897C98.6056 13.9947 99.1786 14.751 100.036 14.751C100.802 14.751 101.344 14.0853 101.344 13.2964V12.3832ZM110.292 15.7317C108.692 15.7317 107.654 14.5361 107.654 12.913C107.654 11.2213 108.714 10.0153 110.383 10.0153C111.962 10.0153 113.022 11.1539 113.022 12.8235C113.024 14.5361 111.93 15.7317 110.292 15.7317ZM110.338 10.9053C109.459 10.9053 108.895 11.7279 108.895 12.8781C108.895 14.0063 109.471 14.8289 110.326 14.8289C111.184 14.8289 111.758 13.9494 111.758 12.8549C111.76 11.7395 111.197 10.9053 110.338 10.9053ZM119.572 15.6073H118.353V12.461C118.353 11.492 117.981 11.0064 117.248 11.0064C116.526 11.0064 116.031 11.6268 116.031 12.3483V15.6073H114.812V11.6942C114.812 11.2097 114.8 10.6903 114.767 10.1268H115.838L115.895 10.9727H115.929C116.256 10.3871 116.921 10.0141 117.665 10.0141C118.816 10.0141 119.572 10.8937 119.572 12.3251V15.6073ZM127.767 11.0412H126.427V13.7019C126.427 14.3792 126.662 14.7173 127.136 14.7173C127.351 14.7173 127.531 14.6941 127.676 14.6604L127.71 15.5853C127.474 15.6759 127.158 15.7212 126.765 15.7212C125.805 15.7212 125.231 15.1914 125.231 13.8041V11.0412H124.431V10.128H125.231V9.12413L126.427 8.76279V10.1268H127.767V11.0412ZM134.215 15.6073H132.998V12.4842C132.998 11.5036 132.627 11.0075 131.893 11.0075C131.261 11.0075 130.673 11.4362 130.673 12.3042V15.6073H129.457V7.61371H130.673V10.9053H130.698C131.081 10.3081 131.637 10.0141 132.346 10.0141C133.506 10.0141 134.215 10.9157 134.215 12.3483V15.6073ZM140.82 13.1604H137.165C137.189 14.198 137.875 14.7836 138.892 14.7836C139.433 14.7836 139.93 14.6929 140.369 14.5245L140.559 15.3703C140.041 15.5957 139.43 15.7084 138.72 15.7084C137.006 15.7084 135.992 14.6256 135.992 12.9467C135.992 11.2666 137.031 10.0037 138.583 10.0037C139.984 10.0037 140.862 11.0412 140.862 12.6086C140.87 12.7935 140.856 12.9788 140.82 13.1604ZM139.704 12.2925C139.704 11.4467 139.277 10.8495 138.498 10.8495C137.799 10.8495 137.246 11.4583 137.166 12.2925H139.704Z" fill="white"/>
<defs>
<linearGradient id="paint0_linear_15_28" x1="115.007" y1="46.5851" x2="115.007" y2="-120.978" gradientUnits="userSpaceOnUse">
<stop stop-color="#1A1A1A" stop-opacity="0.1"/>
<stop offset="0.123" stop-color="#212121" stop-opacity="0.151"/>
<stop offset="0.308" stop-color="#353535" stop-opacity="0.227"/>
<stop offset="0.532" stop-color="#575757" stop-opacity="0.318"/>
<stop offset="0.783" stop-color="#858585" stop-opacity="0.421"/>
<stop offset="1" stop-color="#B3B3B3" stop-opacity="0.51"/>
</linearGradient>
</defs>
</svg>
