<svg width="150" height="53" viewBox="0 0 150 53" fill="none" xmlns="http://www.w3.org/2000/svg">
<g clip-path="url(#clip0_39_520)">
<path d="M8.84685 36.165H4.4973V42.2627H0V21.1294H9.14595C11.3441 21.1294 13.1748 21.8404 14.6342 23.2587C16.0937 24.677 16.8252 26.4544 16.8252 28.5873C16.8252 30.7203 16.0541 32.4904 14.5153 33.9595C12.9766 35.4286 11.0847 36.165 8.84685 36.165ZM8.84685 25.5984H4.4973V31.696H8.84685C9.84505 31.696 10.6775 31.3986 11.3369 30.8037C11.9964 30.2088 12.3279 29.4724 12.3279 28.5837C12.3279 27.695 11.9964 27.0022 11.3369 26.4399C10.6775 25.8777 9.84865 25.5947 8.84685 25.5947V25.5984Z" fill="white"/>
<path d="M21.0847 40.5143C19.4847 38.9835 18.6847 37.0428 18.6847 34.6887C18.6847 32.3345 19.4847 30.3902 21.0847 28.863C22.6847 27.3323 24.6523 26.5669 26.9946 26.5669C29.3369 26.5669 31.3045 27.3323 32.9045 28.863C34.5045 30.3938 35.3045 32.3345 35.3045 34.6887C35.3045 37.0428 34.5045 38.9871 32.9045 40.5143C31.3045 42.045 29.3369 42.8104 26.9946 42.8104C24.6523 42.8104 22.6847 42.045 21.0847 40.5143ZM24.2955 31.9246C23.5568 32.6392 23.1856 33.5605 23.1856 34.6887C23.1856 35.8168 23.5568 36.7381 24.2955 37.4527C25.0342 38.1673 25.9351 38.5228 26.9946 38.5228C28.0541 38.5228 28.955 38.1673 29.6937 37.4527C30.4324 36.7381 30.8036 35.8168 30.8036 34.6887C30.8036 33.5605 30.4324 32.6392 29.6937 31.9246C28.955 31.21 28.0541 30.8545 26.9946 30.8545C25.9351 30.8545 25.0342 31.2136 24.2955 31.9246Z" fill="white"/>
<path d="M57.5243 27.1689H62.2018L58.1838 42.2626H52.036L49.337 32.9329L46.9081 42.2626H40.7604L36.5009 27.1689H41.1784L44.0288 38.0657L47.027 27.1689H51.6757L54.764 38.0657L57.5243 27.1689Z" fill="white"/>
<path d="M68.1406 36.4989C68.3604 37.1845 68.7604 37.7105 69.3406 38.0841C69.9207 38.4577 70.6018 38.6427 71.3802 38.6427C72 38.6427 72.573 38.523 73.1063 38.28C73.636 38.037 74.0324 37.696 74.2919 37.2534L78.4324 38.8531C77.773 40.061 76.8108 41.0223 75.5532 41.7369C74.2955 42.4515 72.9153 42.807 71.4126 42.807C69.1135 42.807 67.2 42.0344 65.6685 40.4818C64.1369 38.9329 63.373 36.9886 63.373 34.6562C63.373 32.3238 64.1189 30.4158 65.6072 28.8741C67.0955 27.3361 68.9514 26.5635 71.1712 26.5635C73.391 26.5635 75.3406 27.347 76.9009 28.9177C78.4613 30.4883 79.2397 32.4181 79.2397 34.7143C79.2397 35.2366 79.1784 35.8315 79.0595 36.4953H68.1442L68.1406 36.4989ZM74.6487 32.8461C74.4505 32.2041 74.0505 31.689 73.4487 31.3081C72.8505 30.9272 72.1406 30.735 71.3189 30.735C70.4973 30.735 69.8703 30.92 69.3081 31.2936C68.7496 31.6672 68.3568 32.186 68.137 32.8498H74.6451L74.6487 32.8461Z" fill="white"/>
<path d="M81.7261 42.2624V27.1688H86.2234V42.2624H81.7261ZM90.2451 31.4564C89.1243 31.4564 88.1766 31.7647 87.3946 32.3778C86.6162 32.9908 86.2234 33.7199 86.2234 34.5651H84.573C84.573 32.3524 85.1135 30.5242 86.191 29.0841C87.2721 27.644 88.609 26.9258 90.209 26.9258H91.0487V31.4528H90.2379L90.2451 31.4564Z" fill="white"/>
<path d="M101.121 21.2566C106.627 14.1723 112.137 7.08795 117.643 0C108.818 8.45185 99.9928 16.9037 91.164 25.3556C95.5532 25.3556 99.9388 25.3556 104.328 25.3556C98.7604 32.4725 93.1964 39.5859 87.6288 46.7028C96.5153 38.2183 105.402 29.7375 114.288 21.253C109.899 21.253 105.51 21.253 101.121 21.253V21.2566Z" fill="white"/>
<path d="M83.845 52.9965C85.5288 52.9965 86.8937 51.6225 86.8937 49.9277C86.8937 48.2328 85.5288 46.8589 83.845 46.8589C82.1613 46.8589 80.7964 48.2328 80.7964 49.9277C80.7964 51.6225 82.1613 52.9965 83.845 52.9965Z" fill="white"/>
<path d="M121.326 42.5966C119.027 42.5966 117.121 41.882 115.614 40.4528C114.105 39.0236 113.351 37.2135 113.351 35.0189C113.351 34.4966 113.402 33.9742 113.503 33.4483L115.632 21.1296H117.132L115.031 33.2669C114.93 33.8291 114.879 34.3733 114.879 34.8956C114.879 36.7673 115.485 38.2655 116.695 39.3936C117.906 40.5217 119.521 41.084 121.539 41.084C123.557 41.084 125.114 40.4963 126.443 39.3174C127.773 38.1385 128.616 36.5352 128.977 34.5002L131.286 21.126H132.786L130.386 34.9536C130.007 37.1881 128.966 39.02 127.265 40.4492C125.564 41.8784 123.586 42.593 121.326 42.593V42.5966Z" fill="white"/>
<path d="M135.124 27.1694H136.595L132.937 48.3026H131.438L135.128 27.1694H135.124ZM134.285 35.7119C134.285 34.1014 134.656 32.6032 135.395 31.2139C136.133 29.8246 137.153 28.7183 138.454 27.8912C139.755 27.0678 141.182 26.6543 142.742 26.6543C144.76 26.6543 146.476 27.3254 147.885 28.6639C149.294 30.0024 150 31.7472 150 33.9018C150 36.3576 149.16 38.4724 147.481 40.2426C145.802 42.0127 143.751 42.8978 141.333 42.8978C139.272 42.8978 137.586 42.2195 136.263 40.8592C134.941 39.4989 134.285 37.7868 134.285 35.7119ZM142.411 28.1343C140.411 28.1343 138.721 28.8525 137.341 30.2926C135.96 31.7327 135.272 33.4484 135.272 35.4399C135.272 37.1919 135.856 38.6138 137.027 39.713C138.198 40.8084 139.64 41.3598 141.362 41.3598C143.362 41.3598 145.052 40.6452 146.432 39.216C147.813 37.7868 148.501 36.0674 148.501 34.0542C148.501 32.3239 147.921 30.9056 146.76 29.7993C145.6 28.6929 144.151 28.1379 142.411 28.1379V28.1343Z" fill="white"/>
</g>
<defs>
<clipPath id="clip0_39_520">
<rect width="150" height="53" fill="white"/>
</clipPath>
</defs>
</svg>
