<svg width="20" height="20" viewBox="0 0 20 20" fill="none" xmlns="http://www.w3.org/2000/svg">
<path d="M10 0C4.47639 0 0 4.47758 0 10C0 15.5224 4.47639 20 10 20C15.5236 20 20 15.5224 20 10C20 4.47758 15.5224 0 10 0ZM10 16.0088C10 16.0088 6.1117 11.2105 6.1117 9.06283C6.1117 6.91516 7.85233 5.17454 10 5.17454C12.1477 5.17454 13.8883 6.91516 13.8883 9.06283C13.8883 11.2105 10 16.0088 10 16.0088Z" fill="url(#paint0_linear_28_372)"/>
<path d="M10 7.17676C9.00012 7.17676 8.18839 7.9885 8.18839 8.98838C8.18839 9.98826 9.00012 10.8 10 10.8C10.9999 10.8 11.8104 9.98826 11.8104 8.98838C11.8104 7.9885 10.9999 7.17676 10 7.17676Z" fill="url(#paint1_linear_28_372)"/>
<defs>
<linearGradient id="paint0_linear_28_372" x1="0.599929" y1="6.5791" x2="19.3989" y2="13.4209" gradientUnits="userSpaceOnUse">
<stop stop-color="#009F6A"/>
<stop offset="1" stop-color="#FFCC16"/>
</linearGradient>
<linearGradient id="paint1_linear_28_372" x1="8.29725" y1="8.36833" x2="11.7016" y2="9.60724" gradientUnits="userSpaceOnUse">
<stop stop-color="#009F6A"/>
<stop offset="1" stop-color="#FFCC16"/>
</linearGradient>
</defs>
</svg>
