<svg width="150" height="52" viewBox="0 0 150 52" fill="none" xmlns="http://www.w3.org/2000/svg">
<mask id="mask0_2_47" style="mask-type:luminance" maskUnits="userSpaceOnUse" x="0" y="0" width="118" height="52">
<path d="M8.84684 35.4829H4.49731V41.4655H0V20.731H9.14595C11.3441 20.731 13.1748 21.4285 14.6342 22.8201C16.0937 24.2116 16.8252 25.9555 16.8252 28.0482C16.8252 30.1409 16.0541 31.8776 14.5153 33.319C12.9766 34.7604 11.0847 35.4829 8.84684 35.4829ZM8.84684 25.1156H4.49731V31.0982H8.84684C9.84504 31.0982 10.6775 30.8064 11.3369 30.2227C11.9964 29.639 12.3279 28.9166 12.3279 28.0446C12.3279 27.1727 11.9964 26.4965 11.3369 25.9413C10.6775 25.3896 9.84864 25.112 8.84684 25.112V25.1156ZM21.0847 39.7465C19.4847 38.2446 18.6847 36.3406 18.6847 34.0308C18.6847 31.721 19.4847 29.8134 21.0847 28.3151C22.6847 26.8132 24.6523 26.0623 26.9946 26.0623C29.3369 26.0623 31.3045 26.8132 32.9045 28.3151C34.5045 29.817 35.3045 31.721 35.3045 34.0308C35.3045 36.3406 34.5045 38.2482 32.9045 39.7465C31.3045 41.2484 29.3369 41.9993 26.9946 41.9993C24.6523 41.9993 22.6847 41.2484 21.0847 39.7465ZM24.2955 31.3189C23.5568 32.02 23.1856 32.924 23.1856 34.0308C23.1856 35.1376 23.5568 36.0416 24.2955 36.7427C25.0342 37.4438 25.9351 37.7926 26.9946 37.7926C28.0541 37.7926 28.955 37.4438 29.6937 36.7427C30.4324 36.0416 30.8036 35.1376 30.8036 34.0308C30.8036 32.924 30.4324 32.02 29.6937 31.3189C28.955 30.6178 28.0541 30.2654 26.9946 30.2654C25.9351 30.2654 25.0342 30.6178 24.2955 31.3189ZM57.5279 26.6531H62.2054L58.1874 41.4619H52.0396L49.3405 32.3083L46.9117 41.4619H40.764L36.5045 26.6531H41.182L44.0324 37.3442L47.0306 26.6531H51.6793L54.7676 37.3442L57.5279 26.6531ZM68.1441 35.8067C68.364 36.4794 68.7639 36.9954 69.3441 37.362C69.9243 37.7286 70.6054 37.9101 71.3838 37.9101C72.0036 37.9101 72.5766 37.7926 73.1099 37.5542C73.6396 37.3157 74.036 36.9812 74.2955 36.547L78.436 38.1165C77.7766 39.3016 76.8144 40.2447 75.5567 40.9459C74.2991 41.647 72.9189 41.9993 71.4162 41.9993C69.1171 41.9993 67.2036 41.2377 65.6721 39.718C64.1405 38.1983 63.3766 36.2907 63.3766 34.0023C63.3766 31.7139 64.1225 29.8419 65.6108 28.3293C67.0991 26.8203 68.955 26.0623 71.1748 26.0623C73.3946 26.0623 75.3441 26.831 76.9045 28.372C78.4648 29.9131 79.2432 31.8064 79.2432 34.0593C79.2432 34.5718 79.182 35.1554 79.063 35.8067H68.1478H68.1441ZM74.6522 32.2228C74.454 31.5893 74.054 31.0875 73.4522 30.7103C72.854 30.3366 72.1441 30.148 71.3225 30.148C70.5009 30.148 69.8739 30.3295 69.3117 30.6961C68.7532 31.0626 68.3604 31.5716 68.1405 32.2228H74.6486H74.6522ZM81.7297 41.4655V26.6566H86.227V41.4655H81.7297ZM90.2486 30.8633C89.1279 30.8633 88.1802 31.1658 87.3982 31.7673C86.6198 32.3688 86.227 33.0841 86.227 33.9134H84.5766C84.5766 31.7424 85.1171 29.9487 86.1946 28.5358C87.2721 27.1229 88.6126 26.4182 90.2126 26.4182H91.0522V30.8598H90.2414L90.2486 30.8633ZM101.128 20.8555C106.631 13.9013 112.137 6.95065 117.643 0C108.818 8.29238 99.9928 16.5848 91.164 24.8771C95.5532 24.8771 99.9387 24.8771 104.328 24.8771C98.7604 31.8598 93.1964 38.839 87.6288 45.8216C96.5153 37.4972 105.402 29.1764 114.288 20.852C109.899 20.852 105.51 20.852 101.121 20.852L101.128 20.8555ZM83.8522 45.9782C82.1694 45.9782 80.8036 47.3271 80.8036 48.9891C80.8036 50.6511 82.1694 52 83.8522 52C85.5351 52 86.9009 50.6511 86.9009 48.9891C86.9009 47.3271 85.5351 45.9782 83.8522 45.9782Z" fill="white"/>
</mask>
<g mask="url(#mask0_2_47)">
<path d="M81.1964 45.9747H80.7964V51.9965H81.1964V45.9747Z" fill="#4FAD50"/>
<path d="M81.6577 45.9747H81.1964V51.9965H81.6577V45.9747Z" fill="#4EAD50"/>
<path d="M82.1189 45.9747H81.6577V51.9965H82.1189V45.9747Z" fill="#4DAD51"/>
<path d="M82.5802 45.9747H82.1189V51.9965H82.5802V45.9747Z" fill="#4CAC51"/>
<path d="M83.0414 45.9747H82.5802V51.9965H83.0414V45.9747Z" fill="#4BAC51"/>
<path d="M83.5027 45.9747H83.0414V51.9965H83.5027V45.9747Z" fill="#4AAC52"/>
<path d="M83.9676 45.9747H83.5063V51.9965H83.9676V45.9747Z" fill="#49AC52"/>
<path d="M84.4288 45.9747H83.9676V51.9965H84.4288V45.9747Z" fill="#48AC52"/>
<path d="M84.8901 45.9747H84.4288V51.9965H84.8901V45.9747Z" fill="#47AC53"/>
<path d="M85.3513 45.9747H84.8901V51.9965H85.3513V45.9747Z" fill="#46AB53"/>
<path d="M85.8127 45.9747H85.3514V51.9965H85.8127V45.9747Z" fill="#45AB53"/>
<path d="M86.2738 45.9747H85.8126V51.9965H86.2738V45.9747Z" fill="#44AB54"/>
<path d="M86.7351 45.9747H86.2739V51.9965H86.7351V45.9747Z" fill="#43AB54"/>
<path d="M86.8973 45.9747H86.7351V51.9965H86.8973V45.9747Z" fill="#42AB54"/>
<path d="M87.6577 -1.90735e-06H87.6288V45.8216H87.6577V-1.90735e-06Z" fill="#41AB55"/>
<path d="M88.1189 -1.90735e-06H87.6577V45.8216H88.1189V-1.90735e-06Z" fill="#40AA55"/>
<path d="M88.5802 -1.90735e-06H88.1189V45.8216H88.5802V-1.90735e-06Z" fill="#3FAA55"/>
<path d="M89.0414 -1.90735e-06H88.5802V45.8216H89.0414V-1.90735e-06Z" fill="#3EAA55"/>
<path d="M89.5027 -1.90735e-06H89.0414V45.8216H89.5027V-1.90735e-06Z" fill="#3DAA56"/>
<path d="M89.9639 -1.90735e-06H89.5027V45.8216H89.9639V-1.90735e-06Z" fill="#3CAA56"/>
<path d="M90.4252 -1.90735e-06H89.964V45.8216H90.4252V-1.90735e-06Z" fill="#3BA956"/>
<path d="M90.8865 -1.90735e-06H90.4252V45.8216H90.8865V-1.90735e-06Z" fill="#3AA957"/>
<path d="M91.3477 -1.90735e-06H90.8865V45.8216H91.3477V-1.90735e-06Z" fill="#39A957"/>
<path d="M91.809 -1.90735e-06H91.3477V45.8216H91.809V-1.90735e-06Z" fill="#38A957"/>
<path d="M92.2703 -1.90735e-06H91.809V45.8216H92.2703V-1.90735e-06Z" fill="#37A958"/>
<path d="M92.7315 -1.90735e-06H92.2703V45.8216H92.7315V-1.90735e-06Z" fill="#36A958"/>
<path d="M93.1928 -1.90735e-06H92.7315V45.8216H93.1928V-1.90735e-06Z" fill="#35A858"/>
<path d="M93.6541 -1.90735e-06H93.1928V45.8216H93.6541V-1.90735e-06Z" fill="#34A859"/>
<path d="M94.1153 -1.90735e-06H93.6541V45.8216H94.1153V-1.90735e-06Z" fill="#33A859"/>
<path d="M94.5766 -1.90735e-06H94.1153V45.8216H94.5766V-1.90735e-06Z" fill="#32A859"/>
<path d="M95.0378 -1.90735e-06H94.5766V45.8216H95.0378V-1.90735e-06Z" fill="#31A85A"/>
<path d="M95.4991 -1.90735e-06H95.0378V45.8216H95.4991V-1.90735e-06Z" fill="#30A85A"/>
<path d="M95.9603 -1.90735e-06H95.4991V45.8216H95.9603V-1.90735e-06Z" fill="#2FA75A"/>
<path d="M96.4216 -1.90735e-06H95.9603V45.8216H96.4216V-1.90735e-06Z" fill="#2EA75B"/>
<path d="M96.8829 -1.90735e-06H96.4216V45.8216H96.8829V-1.90735e-06Z" fill="#2DA75B"/>
<path d="M97.3441 -1.90735e-06H96.8829V45.8216H97.3441V-1.90735e-06Z" fill="#2CA75B"/>
<path d="M97.8054 -1.90735e-06H97.3441V45.8216H97.8054V-1.90735e-06Z" fill="#2BA75C"/>
<path d="M98.2666 -1.90735e-06H97.8054V45.8216H98.2666V-1.90735e-06Z" fill="#2AA65C"/>
<path d="M98.7279 -1.90735e-06H98.2667V45.8216H98.7279V-1.90735e-06Z" fill="#29A65C"/>
<path d="M99.1892 -1.90735e-06H98.7279V45.8216H99.1892V-1.90735e-06Z" fill="#28A65D"/>
<path d="M99.6504 -1.90735e-06H99.1892V45.8216H99.6504V-1.90735e-06Z" fill="#27A65D"/>
<path d="M100.112 -1.90735e-06H99.6505V45.8216H100.112V-1.90735e-06Z" fill="#26A65D"/>
<path d="M100.573 -1.90735e-06H100.112V45.8216H100.573V-1.90735e-06Z" fill="#25A65E"/>
<path d="M101.034 -1.90735e-06H100.573V45.8216H101.034V-1.90735e-06Z" fill="#24A55E"/>
<path d="M101.495 -1.90735e-06H101.034V45.8216H101.495V-1.90735e-06Z" fill="#23A55E"/>
<path d="M101.957 -1.90735e-06H101.495V45.8216H101.957V-1.90735e-06Z" fill="#22A55F"/>
<path d="M102.418 -1.90735e-06H101.957V45.8216H102.418V-1.90735e-06Z" fill="#21A55F"/>
<path d="M102.883 -1.90735e-06H102.422V45.8216H102.883V-1.90735e-06Z" fill="#20A55F"/>
<path d="M103.344 -1.90735e-06H102.883V45.8216H103.344V-1.90735e-06Z" fill="#1FA460"/>
<path d="M103.805 -1.90735e-06H103.344V45.8216H103.805V-1.90735e-06Z" fill="#1EA460"/>
<path d="M104.267 -1.90735e-06H103.805V45.8216H104.267V-1.90735e-06Z" fill="#1DA460"/>
<path d="M104.728 -1.90735e-06H104.267V45.8216H104.728V-1.90735e-06Z" fill="#1CA461"/>
<path d="M105.189 -1.90735e-06H104.728V45.8216H105.189V-1.90735e-06Z" fill="#1BA461"/>
<path d="M105.65 -1.90735e-06H105.189V45.8216H105.65V-1.90735e-06Z" fill="#1AA461"/>
<path d="M106.112 -1.90735e-06H105.65V45.8216H106.112V-1.90735e-06Z" fill="#19A362"/>
<path d="M106.573 -1.90735e-06H106.112V45.8216H106.573V-1.90735e-06Z" fill="#18A362"/>
<path d="M107.034 -1.90735e-06H106.573V45.8216H107.034V-1.90735e-06Z" fill="#17A362"/>
<path d="M107.495 -1.90735e-06H107.034V45.8216H107.495V-1.90735e-06Z" fill="#16A363"/>
<path d="M107.957 -1.90735e-06H107.495V45.8216H107.957V-1.90735e-06Z" fill="#15A363"/>
<path d="M108.418 -1.90735e-06H107.957V45.8216H108.418V-1.90735e-06Z" fill="#14A363"/>
<path d="M108.879 -1.90735e-06H108.418V45.8216H108.879V-1.90735e-06Z" fill="#13A264"/>
<path d="M109.341 -1.90735e-06H108.879V45.8216H109.341V-1.90735e-06Z" fill="#12A264"/>
<path d="M109.802 -1.90735e-06H109.341V45.8216H109.802V-1.90735e-06Z" fill="#11A264"/>
<path d="M110.263 -1.90735e-06H109.802V45.8216H110.263V-1.90735e-06Z" fill="#10A265"/>
<path d="M110.724 -1.90735e-06H110.263V45.8216H110.724V-1.90735e-06Z" fill="#0FA265"/>
<path d="M111.186 -1.90735e-06H110.724V45.8216H111.186V-1.90735e-06Z" fill="#0EA165"/>
<path d="M111.647 -1.90735e-06H111.186V45.8216H111.647V-1.90735e-06Z" fill="#0DA166"/>
<path d="M112.108 -1.90735e-06H111.647V45.8216H112.108V-1.90735e-06Z" fill="#0CA166"/>
<path d="M112.569 -1.90735e-06H112.108V45.8216H112.569V-1.90735e-06Z" fill="#0BA166"/>
<path d="M113.031 -1.90735e-06H112.569V45.8216H113.031V-1.90735e-06Z" fill="#0AA167"/>
<path d="M113.492 -1.90735e-06H113.031V45.8216H113.492V-1.90735e-06Z" fill="#09A167"/>
<path d="M113.953 -1.90735e-06H113.492V45.8216H113.953V-1.90735e-06Z" fill="#08A067"/>
<path d="M114.414 -1.90735e-06H113.953V45.8216H114.414V-1.90735e-06Z" fill="#07A068"/>
<path d="M114.876 -1.90735e-06H114.414V45.8216H114.876V-1.90735e-06Z" fill="#06A068"/>
<path d="M115.337 -1.90735e-06H114.876V45.8216H115.337V-1.90735e-06Z" fill="#05A068"/>
<path d="M115.798 -1.90735e-06H115.337V45.8216H115.798V-1.90735e-06Z" fill="#04A069"/>
<path d="M116.259 -1.90735e-06H115.798V45.8216H116.259V-1.90735e-06Z" fill="#03A069"/>
<path d="M116.721 -1.90735e-06H116.259V45.8216H116.721V-1.90735e-06Z" fill="#029F69"/>
<path d="M117.182 -1.90735e-06H116.721V45.8216H117.182V-1.90735e-06Z" fill="#019F6A"/>
<path d="M117.643 -1.90735e-06H117.182V45.8216H117.643V-1.90735e-06Z" fill="#009F6A"/>
<path d="M84.8901 26.4182H84.5766V33.9133H84.8901V26.4182Z" fill="#47AC53"/>
<path d="M85.3513 26.4182H84.8901V33.9133H85.3513V26.4182Z" fill="#46AB53"/>
<path d="M85.8127 26.4182H85.3514V33.9133H85.8127V26.4182Z" fill="#45AB53"/>
<path d="M86.2738 26.4182H85.8126V33.9133H86.2738V26.4182Z" fill="#44AB54"/>
<path d="M86.7351 26.4182H86.2739V33.9133H86.7351V26.4182Z" fill="#43AB54"/>
<path d="M87.1964 26.4182H86.7351V33.9133H87.1964V26.4182Z" fill="#42AB54"/>
<path d="M87.6577 26.4182H87.1964V33.9133H87.6577V26.4182Z" fill="#41AB55"/>
<path d="M88.1189 26.4182H87.6577V33.9133H88.1189V26.4182Z" fill="#40AA55"/>
<path d="M88.5802 26.4182H88.1189V33.9133H88.5802V26.4182Z" fill="#3FAA55"/>
<path d="M89.0414 26.4182H88.5802V33.9133H89.0414V26.4182Z" fill="#3EAA55"/>
<path d="M89.5027 26.4182H89.0414V33.9133H89.5027V26.4182Z" fill="#3DAA56"/>
<path d="M89.9639 26.4182H89.5027V33.9133H89.9639V26.4182Z" fill="#3CAA56"/>
<path d="M90.4252 26.4182H89.964V33.9133H90.4252V26.4182Z" fill="#3BA956"/>
<path d="M90.8865 26.4182H90.4252V33.9133H90.8865V26.4182Z" fill="#3AA957"/>
<path d="M91.0558 26.4182H90.8865V33.9133H91.0558V26.4182Z" fill="#39A957"/>
<path d="M82.1189 26.6566H81.7261V41.4655H82.1189V26.6566Z" fill="#4DAD51"/>
<path d="M82.5802 26.6566H82.1189V41.4655H82.5802V26.6566Z" fill="#4CAC51"/>
<path d="M83.0414 26.6566H82.5802V41.4655H83.0414V26.6566Z" fill="#4BAC51"/>
<path d="M83.5027 26.6566H83.0414V41.4655H83.5027V26.6566Z" fill="#4AAC52"/>
<path d="M83.9676 26.6566H83.5063V41.4655H83.9676V26.6566Z" fill="#49AC52"/>
<path d="M84.4288 26.6566H83.9676V41.4655H84.4288V26.6566Z" fill="#48AC52"/>
<path d="M84.8901 26.6566H84.4288V41.4655H84.8901V26.6566Z" fill="#47AC53"/>
<path d="M85.3513 26.6566H84.8901V41.4655H85.3513V26.6566Z" fill="#46AB53"/>
<path d="M85.8127 26.6566H85.3514V41.4655H85.8127V26.6566Z" fill="#45AB53"/>
<path d="M86.227 26.6566H85.8126V41.4655H86.227V26.6566Z" fill="#44AB54"/>
<path d="M68.2811 30.1515H68.1405V32.2264H68.2811V30.1515Z" fill="#6BB247"/>
<path d="M68.7424 30.1515H68.2811V32.2264H68.7424V30.1515Z" fill="#6AB247"/>
<path d="M69.2036 30.1515H68.7424V32.2264H69.2036V30.1515Z" fill="#69B247"/>
<path d="M69.6649 30.1515H69.2036V32.2264H69.6649V30.1515Z" fill="#68B148"/>
<path d="M70.1261 30.1515H69.6649V32.2264H70.1261V30.1515Z" fill="#67B148"/>
<path d="M70.5874 30.1515H70.1261V32.2264H70.5874V30.1515Z" fill="#66B148"/>
<path d="M71.0486 30.1515H70.5874V32.2264H71.0486V30.1515Z" fill="#65B149"/>
<path d="M71.5099 30.1515H71.0486V32.2264H71.5099V30.1515Z" fill="#64B149"/>
<path d="M71.9712 30.1515H71.5099V32.2264H71.9712V30.1515Z" fill="#63B149"/>
<path d="M72.4325 30.1515H71.9712V32.2264H72.4325V30.1515Z" fill="#62B04A"/>
<path d="M72.8937 30.1515H72.4324V32.2264H72.8937V30.1515Z" fill="#61B04A"/>
<path d="M73.3549 30.1515H72.8937V32.2264H73.3549V30.1515Z" fill="#60B04A"/>
<path d="M73.8162 30.1515H73.3549V32.2264H73.8162V30.1515Z" fill="#5FB04B"/>
<path d="M74.2775 30.1515H73.8162V32.2264H74.2775V30.1515Z" fill="#5EB04B"/>
<path d="M74.6486 30.1515H74.2775V32.2264H74.6486V30.1515Z" fill="#5DAF4B"/>
<path d="M63.6685 26.0658H63.373V42.0029H63.6685V26.0658Z" fill="#75B443"/>
<path d="M64.1261 26.0658H63.6649V42.0029H64.1261V26.0658Z" fill="#74B444"/>
<path d="M64.5874 26.0658H64.1261V42.0029H64.5874V26.0658Z" fill="#73B344"/>
<path d="M65.0522 26.0658H64.591V42.0029H65.0522V26.0658Z" fill="#72B344"/>
<path d="M65.5135 26.0658H65.0522V42.0029H65.5135V26.0658Z" fill="#71B345"/>
<path d="M65.9748 26.0658H65.5135V42.0029H65.9748V26.0658Z" fill="#70B345"/>
<path d="M66.436 26.0658H65.9748V42.0029H66.436V26.0658Z" fill="#6FB345"/>
<path d="M66.8973 26.0658H66.436V42.0029H66.8973V26.0658Z" fill="#6EB246"/>
<path d="M67.3586 26.0658H66.8973V42.0029H67.3586V26.0658Z" fill="#6DB246"/>
<path d="M67.8198 26.0658H67.3586V42.0029H67.8198V26.0658Z" fill="#6CB246"/>
<path d="M68.2811 26.0658H67.8198V42.0029H68.2811V26.0658Z" fill="#6BB247"/>
<path d="M68.7424 26.0658H68.2811V42.0029H68.7424V26.0658Z" fill="#6AB247"/>
<path d="M69.2036 26.0658H68.7424V42.0029H69.2036V26.0658Z" fill="#69B247"/>
<path d="M69.6649 26.0658H69.2036V42.0029H69.6649V26.0658Z" fill="#68B148"/>
<path d="M70.1261 26.0658H69.6649V42.0029H70.1261V26.0658Z" fill="#67B148"/>
<path d="M70.5874 26.0658H70.1261V42.0029H70.5874V26.0658Z" fill="#66B148"/>
<path d="M71.0486 26.0658H70.5874V42.0029H71.0486V26.0658Z" fill="#65B149"/>
<path d="M71.5099 26.0658H71.0486V42.0029H71.5099V26.0658Z" fill="#64B149"/>
<path d="M71.9712 26.0658H71.5099V42.0029H71.9712V26.0658Z" fill="#63B149"/>
<path d="M72.4325 26.0658H71.9712V42.0029H72.4325V26.0658Z" fill="#62B04A"/>
<path d="M72.8937 26.0658H72.4324V42.0029H72.8937V26.0658Z" fill="#61B04A"/>
<path d="M73.3549 26.0658H72.8937V42.0029H73.3549V26.0658Z" fill="#60B04A"/>
<path d="M73.8162 26.0658H73.3549V42.0029H73.8162V26.0658Z" fill="#5FB04B"/>
<path d="M74.2775 26.0658H73.8162V42.0029H74.2775V26.0658Z" fill="#5EB04B"/>
<path d="M74.7387 26.0658H74.2775V42.0029H74.7387V26.0658Z" fill="#5DAF4B"/>
<path d="M75.2 26.0658H74.7387V42.0029H75.2V26.0658Z" fill="#5CAF4C"/>
<path d="M75.6613 26.0658H75.2V42.0029H75.6613V26.0658Z" fill="#5BAF4C"/>
<path d="M76.1225 26.0658H75.6613V42.0029H76.1225V26.0658Z" fill="#5AAF4C"/>
<path d="M76.5838 26.0658H76.1225V42.0029H76.5838V26.0658Z" fill="#59AF4D"/>
<path d="M77.045 26.0658H76.5837V42.0029H77.045V26.0658Z" fill="#58AF4D"/>
<path d="M77.5063 26.0658H77.045V42.0029H77.5063V26.0658Z" fill="#57AE4D"/>
<path d="M77.9676 26.0658H77.5063V42.0029H77.9676V26.0658Z" fill="#56AE4E"/>
<path d="M78.4288 26.0658H77.9676V42.0029H78.4288V26.0658Z" fill="#55AE4E"/>
<path d="M78.8901 26.0658H78.4289V42.0029H78.8901V26.0658Z" fill="#54AE4E"/>
<path d="M79.2361 26.0658H78.8901V42.0029H79.2361V26.0658Z" fill="#53AE4F"/>
<path d="M36.9081 26.6566H36.5009V41.4655H36.9081V26.6566Z" fill="#B0BE30"/>
<path d="M37.3694 26.6566H36.9081V41.4655H37.3694V26.6566Z" fill="#AFBE30"/>
<path d="M37.8307 26.6566H37.3694V41.4655H37.8307V26.6566Z" fill="#AEBE31"/>
<path d="M38.2919 26.6566H37.8306V41.4655H38.2919V26.6566Z" fill="#ADBD31"/>
<path d="M38.7532 26.6566H38.2919V41.4655H38.7532V26.6566Z" fill="#ACBD31"/>
<path d="M39.2144 26.6566H38.7532V41.4655H39.2144V26.6566Z" fill="#ABBD32"/>
<path d="M39.6757 26.6566H39.2144V41.4655H39.6757V26.6566Z" fill="#AABD32"/>
<path d="M40.1369 26.6566H39.6757V41.4655H40.1369V26.6566Z" fill="#A9BD32"/>
<path d="M40.5982 26.6566H40.1369V41.4655H40.5982V26.6566Z" fill="#A8BD33"/>
<path d="M41.0595 26.6566H40.5982V41.4655H41.0595V26.6566Z" fill="#A7BC33"/>
<path d="M41.5207 26.6566H41.0594V41.4655H41.5207V26.6566Z" fill="#A6BC33"/>
<path d="M41.982 26.6566H41.5207V41.4655H41.982V26.6566Z" fill="#A5BC34"/>
<path d="M42.4432 26.6566H41.982V41.4655H42.4432V26.6566Z" fill="#A4BC34"/>
<path d="M42.9045 26.6566H42.4433V41.4655H42.9045V26.6566Z" fill="#A3BC34"/>
<path d="M43.3658 26.6566H42.9045V41.4655H43.3658V26.6566Z" fill="#A2BC35"/>
<path d="M43.827 26.6566H43.3658V41.4655H43.827V26.6566Z" fill="#A1BB35"/>
<path d="M44.2883 26.6566H43.827V41.4655H44.2883V26.6566Z" fill="#A0BB35"/>
<path d="M44.7495 26.6566H44.2883V41.4655H44.7495V26.6566Z" fill="#9FBB36"/>
<path d="M45.2108 26.6566H44.7495V41.4655H45.2108V26.6566Z" fill="#9EBB36"/>
<path d="M45.6721 26.6566H45.2108V41.4655H45.6721V26.6566Z" fill="#9DBB36"/>
<path d="M46.1369 26.6566H45.6757V41.4655H46.1369V26.6566Z" fill="#9CBA37"/>
<path d="M46.5982 26.6566H46.1369V41.4655H46.5982V26.6566Z" fill="#9BBA37"/>
<path d="M47.0595 26.6566H46.5982V41.4655H47.0595V26.6566Z" fill="#9ABA37"/>
<path d="M47.5207 26.6566H47.0594V41.4655H47.5207V26.6566Z" fill="#99BA38"/>
<path d="M47.982 26.6566H47.5207V41.4655H47.982V26.6566Z" fill="#98BA38"/>
<path d="M48.4432 26.6566H47.982V41.4655H48.4432V26.6566Z" fill="#97BA38"/>
<path d="M48.9045 26.6566H48.4432V41.4655H48.9045V26.6566Z" fill="#96B939"/>
<path d="M49.3658 26.6566H48.9045V41.4655H49.3658V26.6566Z" fill="#95B939"/>
<path d="M49.827 26.6566H49.3658V41.4655H49.827V26.6566Z" fill="#94B939"/>
<path d="M50.2883 26.6566H49.827V41.4655H50.2883V26.6566Z" fill="#93B93A"/>
<path d="M50.7496 26.6566H50.2883V41.4655H50.7496V26.6566Z" fill="#92B93A"/>
<path d="M51.2108 26.6566H50.7495V41.4655H51.2108V26.6566Z" fill="#91B93A"/>
<path d="M51.6721 26.6566H51.2108V41.4655H51.6721V26.6566Z" fill="#90B83B"/>
<path d="M52.1334 26.6566H51.6721V41.4655H52.1334V26.6566Z" fill="#8FB83B"/>
<path d="M52.5946 26.6566H52.1334V41.4655H52.5946V26.6566Z" fill="#8EB83B"/>
<path d="M53.0558 26.6566H52.5946V41.4655H53.0558V26.6566Z" fill="#8DB83C"/>
<path d="M53.5171 26.6566H53.0559V41.4655H53.5171V26.6566Z" fill="#8CB83C"/>
<path d="M53.9784 26.6566H53.5171V41.4655H53.9784V26.6566Z" fill="#8BB73C"/>
<path d="M54.4396 26.6566H53.9784V41.4655H54.4396V26.6566Z" fill="#8AB73D"/>
<path d="M54.9009 26.6566H54.4396V41.4655H54.9009V26.6566Z" fill="#89B73D"/>
<path d="M55.3622 26.6566H54.9009V41.4655H55.3622V26.6566Z" fill="#88B73D"/>
<path d="M55.8234 26.6566H55.3622V41.4655H55.8234V26.6566Z" fill="#87B73E"/>
<path d="M56.2847 26.6566H55.8234V41.4655H56.2847V26.6566Z" fill="#86B73E"/>
<path d="M56.7459 26.6566H56.2847V41.4655H56.7459V26.6566Z" fill="#85B63E"/>
<path d="M57.2072 26.6566H56.7459V41.4655H57.2072V26.6566Z" fill="#84B63F"/>
<path d="M57.6685 26.6566H57.2072V41.4655H57.6685V26.6566Z" fill="#83B63F"/>
<path d="M58.1297 26.6566H57.6685V41.4655H58.1297V26.6566Z" fill="#82B63F"/>
<path d="M58.591 26.6566H58.1297V41.4655H58.591V26.6566Z" fill="#81B640"/>
<path d="M59.0523 26.6566H58.591V41.4655H59.0523V26.6566Z" fill="#80B640"/>
<path d="M59.5135 26.6566H59.0523V41.4655H59.5135V26.6566Z" fill="#7EB540"/>
<path d="M59.9748 26.6566H59.5135V41.4655H59.9748V26.6566Z" fill="#7DB541"/>
<path d="M60.436 26.6566H59.9748V41.4655H60.436V26.6566Z" fill="#7CB541"/>
<path d="M60.8973 26.6566H60.436V41.4655H60.8973V26.6566Z" fill="#7BB541"/>
<path d="M61.3585 26.6566H60.8973V41.4655H61.3585V26.6566Z" fill="#7AB542"/>
<path d="M61.8198 26.6566H61.3585V41.4655H61.8198V26.6566Z" fill="#79B442"/>
<path d="M62.2018 26.6566H61.8198V41.4655H62.2018V26.6566Z" fill="#78B442"/>
<path d="M23.5279 30.269H23.182V37.7926H23.5279V30.269Z" fill="#CDC327"/>
<path d="M23.9892 30.269H23.5279V37.7926H23.9892V30.269Z" fill="#CCC327"/>
<path d="M24.4505 30.269H23.9892V37.7926H24.4505V30.269Z" fill="#CBC327"/>
<path d="M24.9117 30.269H24.4505V37.7926H24.9117V30.269Z" fill="#CAC328"/>
<path d="M25.373 30.269H24.9117V37.7926H25.373V30.269Z" fill="#C9C228"/>
<path d="M25.8342 30.269H25.373V37.7926H25.8342V30.269Z" fill="#C8C228"/>
<path d="M26.2955 30.269H25.8342V37.7926H26.2955V30.269Z" fill="#C7C229"/>
<path d="M26.7568 30.269H26.2955V37.7926H26.7568V30.269Z" fill="#C6C229"/>
<path d="M27.2216 30.269H26.7604V37.7926H27.2216V30.269Z" fill="#C5C229"/>
<path d="M27.6829 30.269H27.2216V37.7926H27.6829V30.269Z" fill="#C4C22A"/>
<path d="M28.1442 30.269H27.6829V37.7926H28.1442V30.269Z" fill="#C3C12A"/>
<path d="M28.6054 30.269H28.1442V37.7926H28.6054V30.269Z" fill="#C2C12A"/>
<path d="M29.0667 30.269H28.6054V37.7926H29.0667V30.269Z" fill="#C1C12B"/>
<path d="M29.5279 30.269H29.0667V37.7926H29.5279V30.269Z" fill="#C0C12B"/>
<path d="M29.9892 30.269H29.5279V37.7926H29.9892V30.269Z" fill="#BFC12B"/>
<path d="M30.4504 30.269H29.9892V37.7926H30.4504V30.269Z" fill="#BEC02B"/>
<path d="M30.8036 30.269H30.4505V37.7926H30.8036V30.269Z" fill="#BDC02C"/>
<path d="M18.9153 26.0658H18.6847V42.0029H18.9153V26.0658Z" fill="#D7C523"/>
<path d="M19.3766 26.0658H18.9153V42.0029H19.3766V26.0658Z" fill="#D6C524"/>
<path d="M19.8378 26.0658H19.3766V42.0029H19.8378V26.0658Z" fill="#D5C524"/>
<path d="M20.2991 26.0658H19.8378V42.0029H20.2991V26.0658Z" fill="#D4C424"/>
<path d="M20.7604 26.0658H20.2991V42.0029H20.7604V26.0658Z" fill="#D3C425"/>
<path d="M21.2216 26.0658H20.7604V42.0029H21.2216V26.0658Z" fill="#D2C425"/>
<path d="M21.6829 26.0658H21.2216V42.0029H21.6829V26.0658Z" fill="#D1C425"/>
<path d="M22.1441 26.0658H21.6829V42.0029H22.1441V26.0658Z" fill="#D0C426"/>
<path d="M22.6054 26.0658H22.1441V42.0029H22.6054V26.0658Z" fill="#CFC326"/>
<path d="M23.0667 26.0658H22.6054V42.0029H23.0667V26.0658Z" fill="#CEC326"/>
<path d="M23.528 26.0658H23.0667V42.0029H23.528V26.0658Z" fill="#CDC327"/>
<path d="M23.9892 26.0658H23.5279V42.0029H23.9892V26.0658Z" fill="#CCC327"/>
<path d="M24.4505 26.0658H23.9892V42.0029H24.4505V26.0658Z" fill="#CBC327"/>
<path d="M24.9117 26.0658H24.4505V42.0029H24.9117V26.0658Z" fill="#CAC328"/>
<path d="M25.373 26.0658H24.9117V42.0029H25.373V26.0658Z" fill="#C9C228"/>
<path d="M25.8342 26.0658H25.373V42.0029H25.8342V26.0658Z" fill="#C8C228"/>
<path d="M26.2955 26.0658H25.8342V42.0029H26.2955V26.0658Z" fill="#C7C229"/>
<path d="M26.7568 26.0658H26.2955V42.0029H26.7568V26.0658Z" fill="#C6C229"/>
<path d="M27.2216 26.0658H26.7604V42.0029H27.2216V26.0658Z" fill="#C5C229"/>
<path d="M27.6829 26.0658H27.2216V42.0029H27.6829V26.0658Z" fill="#C4C22A"/>
<path d="M28.1442 26.0658H27.6829V42.0029H28.1442V26.0658Z" fill="#C3C12A"/>
<path d="M28.6054 26.0658H28.1442V42.0029H28.6054V26.0658Z" fill="#C2C12A"/>
<path d="M29.0667 26.0658H28.6054V42.0029H29.0667V26.0658Z" fill="#C1C12B"/>
<path d="M29.5279 26.0658H29.0667V42.0029H29.5279V26.0658Z" fill="#C0C12B"/>
<path d="M29.9892 26.0658H29.5279V42.0029H29.9892V26.0658Z" fill="#BFC12B"/>
<path d="M30.4504 26.0658H29.9892V42.0029H30.4504V26.0658Z" fill="#BEC02B"/>
<path d="M30.9117 26.0658H30.4505V42.0029H30.9117V26.0658Z" fill="#BDC02C"/>
<path d="M31.373 26.0658H30.9117V42.0029H31.373V26.0658Z" fill="#BCC02C"/>
<path d="M31.8342 26.0658H31.373V42.0029H31.8342V26.0658Z" fill="#BBC02C"/>
<path d="M32.2955 26.0658H31.8342V42.0029H32.2955V26.0658Z" fill="#BAC02D"/>
<path d="M32.7568 26.0658H32.2955V42.0029H32.7568V26.0658Z" fill="#B9C02D"/>
<path d="M33.218 26.0658H32.7568V42.0029H33.218V26.0658Z" fill="#B8BF2D"/>
<path d="M33.6793 26.0658H33.218V42.0029H33.6793V26.0658Z" fill="#B7BF2E"/>
<path d="M34.1405 26.0658H33.6793V42.0029H34.1405V26.0658Z" fill="#B6BF2E"/>
<path d="M34.6018 26.0658H34.1405V42.0029H34.6018V26.0658Z" fill="#B5BF2E"/>
<path d="M35.0631 26.0658H34.6018V42.0029H35.0631V26.0658Z" fill="#B4BF2F"/>
<path d="M35.3009 26.0658H35.0631V42.0029H35.3009V26.0658Z" fill="#B3BF2F"/>
<path d="M4.61261 25.1156H4.49731V31.0982H4.61261V25.1156Z" fill="#F6CA19"/>
<path d="M5.07388 25.1156H4.61261V31.0982H5.07388V25.1156Z" fill="#F5CA19"/>
<path d="M5.53515 25.1156H5.07388V31.0982H5.53515V25.1156Z" fill="#F4CA1A"/>
<path d="M5.99641 25.1156H5.53516V31.0982H5.99641V25.1156Z" fill="#F3CA1A"/>
<path d="M6.45767 25.1156H5.9964V31.0982H6.45767V25.1156Z" fill="#F2CA1A"/>
<path d="M6.91894 25.1156H6.45769V31.0982H6.91894V25.1156Z" fill="#F1CA1B"/>
<path d="M7.3802 25.1156H6.91893V31.0982H7.3802V25.1156Z" fill="#F0C91B"/>
<path d="M7.84145 25.1156H7.3802V31.0982H7.84145V25.1156Z" fill="#EFC91B"/>
<path d="M8.30631 25.1156H7.84506V31.0982H8.30631V25.1156Z" fill="#EEC91C"/>
<path d="M8.76758 25.1156H8.3063V31.0982H8.76758V25.1156Z" fill="#EDC91C"/>
<path d="M9.22885 25.1156H8.76758V31.0982H9.22885V25.1156Z" fill="#ECC91C"/>
<path d="M9.6901 25.1156H9.22885V31.0982H9.6901V25.1156Z" fill="#EBC81D"/>
<path d="M10.1514 25.1156H9.69011V31.0982H10.1514V25.1156Z" fill="#EAC81D"/>
<path d="M10.6126 25.1156H10.1514V31.0982H10.6126V25.1156Z" fill="#E9C81D"/>
<path d="M11.0739 25.1156H10.6126V31.0982H11.0739V25.1156Z" fill="#E8C81E"/>
<path d="M11.5351 25.1156H11.0739V31.0982H11.5351V25.1156Z" fill="#E7C81E"/>
<path d="M11.9964 25.1156H11.5351V31.0982H11.9964V25.1156Z" fill="#E6C81E"/>
<path d="M12.3279 25.1156H11.9964V31.0982H12.3279V25.1156Z" fill="#E5C71F"/>
<path d="M0.461272 20.7345H0V41.469H0.461272V20.7345Z" fill="#FFCC16"/>
<path d="M0.922523 20.7345H0.461273V41.469H0.922523V20.7345Z" fill="#FECC16"/>
<path d="M1.3838 20.7345H0.922531V41.469H1.3838V20.7345Z" fill="#FDCC17"/>
<path d="M1.84504 20.7345H1.38379V41.469H1.84504V20.7345Z" fill="#FCCB17"/>
<path d="M2.30632 20.7345H1.84505V41.469H2.30632V20.7345Z" fill="#FBCB17"/>
<path d="M2.76757 20.7345H2.30632V41.469H2.76757V20.7345Z" fill="#FACB18"/>
<path d="M3.22883 20.7345H2.76756V41.469H3.22883V20.7345Z" fill="#F9CB18"/>
<path d="M3.69009 20.7345H3.22884V41.469H3.69009V20.7345Z" fill="#F8CB18"/>
<path d="M4.15137 20.7345H3.69009V41.469H4.15137V20.7345Z" fill="#F7CB19"/>
<path d="M4.6126 20.7345H4.15135V41.469H4.6126V20.7345Z" fill="#F6CA19"/>
<path d="M5.07388 20.7345H4.61261V41.469H5.07388V20.7345Z" fill="#F5CA19"/>
<path d="M5.53515 20.7345H5.07388V41.469H5.53515V20.7345Z" fill="#F4CA1A"/>
<path d="M5.99641 20.7345H5.53516V41.469H5.99641V20.7345Z" fill="#F3CA1A"/>
<path d="M6.45767 20.7345H5.9964V41.469H6.45767V20.7345Z" fill="#F2CA1A"/>
<path d="M6.91894 20.7345H6.45769V41.469H6.91894V20.7345Z" fill="#F1CA1B"/>
<path d="M7.3802 20.7345H6.91893V41.469H7.3802V20.7345Z" fill="#F0C91B"/>
<path d="M7.84145 20.7345H7.3802V41.469H7.84145V20.7345Z" fill="#EFC91B"/>
<path d="M8.30631 20.7345H7.84506V41.469H8.30631V20.7345Z" fill="#EEC91C"/>
<path d="M8.76758 20.7345H8.3063V41.469H8.76758V20.7345Z" fill="#EDC91C"/>
<path d="M9.22885 20.7345H8.76758V41.469H9.22885V20.7345Z" fill="#ECC91C"/>
<path d="M9.6901 20.7345H9.22885V41.469H9.6901V20.7345Z" fill="#EBC81D"/>
<path d="M10.1514 20.7345H9.69011V41.469H10.1514V20.7345Z" fill="#EAC81D"/>
<path d="M10.6126 20.7345H10.1514V41.469H10.6126V20.7345Z" fill="#E9C81D"/>
<path d="M11.0739 20.7345H10.6126V41.469H11.0739V20.7345Z" fill="#E8C81E"/>
<path d="M11.5351 20.7345H11.0739V41.469H11.5351V20.7345Z" fill="#E7C81E"/>
<path d="M11.9964 20.7345H11.5351V41.469H11.9964V20.7345Z" fill="#E6C81E"/>
<path d="M12.4577 20.7345H11.9964V41.469H12.4577V20.7345Z" fill="#E5C71F"/>
<path d="M12.9189 20.7345H12.4577V41.469H12.9189V20.7345Z" fill="#E4C71F"/>
<path d="M13.3802 20.7345H12.9189V41.469H13.3802V20.7345Z" fill="#E3C71F"/>
<path d="M13.8415 20.7345H13.3802V41.469H13.8415V20.7345Z" fill="#E2C720"/>
<path d="M14.3027 20.7345H13.8415V41.469H14.3027V20.7345Z" fill="#E1C720"/>
<path d="M14.764 20.7345H14.3027V41.469H14.764V20.7345Z" fill="#E0C720"/>
<path d="M15.2252 20.7345H14.764V41.469H15.2252V20.7345Z" fill="#DFC621"/>
<path d="M15.6865 20.7345H15.2252V41.469H15.6865V20.7345Z" fill="#DEC621"/>
<path d="M16.1477 20.7345H15.6865V41.469H16.1477V20.7345Z" fill="#DDC621"/>
<path d="M16.609 20.7345H16.1477V41.469H16.609V20.7345Z" fill="#DCC622"/>
<path d="M16.8252 20.7345H16.609V41.469H16.8252V20.7345Z" fill="#DBC622"/>
</g>
<path d="M121.326 41.7929C119.027 41.7929 117.121 41.0918 115.614 39.6895C114.104 38.2873 113.351 36.5114 113.351 34.3582C113.351 33.8457 113.402 33.3332 113.503 32.8172L115.632 20.731H117.131L115.031 32.6392C114.93 33.1909 114.879 33.7247 114.879 34.2372C114.879 36.0736 115.485 37.5435 116.695 38.6503C117.906 39.7572 119.521 40.3088 121.539 40.3088C123.557 40.3088 125.114 39.7323 126.443 38.5756C127.773 37.4189 128.616 35.8459 128.977 33.8493L131.286 20.7274H132.786L130.386 34.2942C130.007 36.4865 128.966 38.2838 127.265 39.686C125.564 41.0882 123.586 41.7893 121.326 41.7893V41.7929Z" fill="#211E1E"/>
<path d="M135.124 26.6566H136.595L132.937 47.3911H131.438L135.128 26.6566H135.124ZM134.285 35.038C134.285 33.4578 134.656 31.988 135.395 30.6249C136.133 29.2618 137.153 28.1763 138.454 27.3649C139.755 26.557 141.182 26.1513 142.742 26.1513C144.76 26.1513 146.476 26.8097 147.885 28.1229C149.294 29.4362 150 31.148 150 33.2621C150 35.6715 149.16 37.7464 147.481 39.4831C145.802 41.2199 143.751 42.0883 141.333 42.0883C139.272 42.0883 137.586 41.4228 136.263 40.0882C134.941 38.7535 134.285 37.0737 134.285 35.038ZM142.411 27.6033C140.411 27.6033 138.721 28.308 137.341 29.7209C135.96 31.1338 135.272 32.8172 135.272 34.7711C135.272 36.49 135.856 37.8852 137.027 38.9635C138.198 40.0383 139.64 40.5793 141.362 40.5793C143.362 40.5793 145.052 39.8782 146.432 38.4759C147.813 37.0737 148.501 35.3868 148.501 33.4115C148.501 31.7139 147.921 30.3224 146.76 29.2369C145.6 28.1514 144.151 27.6069 142.411 27.6069V27.6033Z" fill="#211E1E"/>
</svg>
