<svg width="38" height="50" viewBox="0 0 38 50" fill="none" xmlns="http://www.w3.org/2000/svg">
<g clip-path="url(#clip0_31_412)">
<path d="M38 19.088C38 29.6311 19.0014 50 19.0014 50C19.0014 50 0.00283813 29.6311 0.00283813 19.088C0.00283813 8.54492 8.50772 0 18.9986 0C29.4895 0 37.9972 8.54776 37.9972 19.088H38Z" fill="url(#paint0_linear_31_412)"/>
<path d="M18.9986 31.8114C26.0036 31.8114 31.6822 26.106 31.6822 19.0681C31.6822 12.0301 26.0036 6.32471 18.9986 6.32471C11.9936 6.32471 6.31491 12.0301 6.31491 19.0681C6.31491 26.106 11.9936 31.8114 18.9986 31.8114Z" fill="white"/>
</g>
<defs>
<linearGradient id="paint0_linear_31_412" x1="5.06229e-06" y1="25" x2="38" y2="25" gradientUnits="userSpaceOnUse">
<stop stop-color="#009F6A"/>
<stop offset="1" stop-color="#FFCC16"/>
</linearGradient>
<clipPath id="clip0_31_412">
<rect width="38" height="50" fill="white"/>
</clipPath>
</defs>
</svg>
