<svg width="35" height="10" viewBox="0 0 35 10" fill="none" xmlns="http://www.w3.org/2000/svg">
<path d="M5.84239 0.446468C5.40978 0.149063 4.84526 0 4.14882 0H1.4526C1.23911 0 1.12115 0.106775 1.09875 0.32012L0.00343799 7.19551C-0.00794519 7.26304 0.00894925 7.32479 0.0539669 7.38094C0.098727 7.43718 0.155025 7.46515 0.222448 7.46515H1.50313C1.72776 7.46515 1.85122 7.35863 1.87389 7.14503L2.17716 5.29148C2.18824 5.20165 2.22774 5.12861 2.29517 5.07237C2.36254 5.01622 2.4468 4.9795 2.54791 4.96265C2.64902 4.94597 2.74436 4.93757 2.8344 4.93757C2.92418 4.93757 3.03085 4.94324 3.15462 4.95441C3.27809 4.96564 3.35679 4.9711 3.39053 4.9711C4.3566 4.9711 5.1149 4.69888 5.66546 4.15388C6.21577 3.60909 6.49123 2.85368 6.49123 1.88734C6.49123 1.22459 6.2748 0.744336 5.84239 0.446468ZM4.4522 2.51089C4.39585 2.90415 4.24998 3.16241 4.01408 3.28603C3.77812 3.4098 3.44111 3.47136 3.00303 3.47136L2.44691 3.4882L2.73344 1.68507C2.7558 1.56161 2.82878 1.4998 2.95245 1.4998H3.27273C3.72187 1.4998 4.04787 1.56454 4.25008 1.69352C4.4522 1.8228 4.51962 2.09533 4.4522 2.51089Z" fill="white"/>
<path d="M34.2959 0H33.0491C32.9252 0 32.8522 0.0618094 32.83 0.185428L31.7346 7.19556L31.7177 7.22925C31.7177 7.2857 31.7402 7.3388 31.7852 7.38938C31.8299 7.43986 31.8863 7.46515 31.9536 7.46515H33.0659C33.2791 7.46515 33.3971 7.35863 33.4199 7.14503L34.5152 0.252645V0.235905C34.5151 0.0786522 34.4419 0 34.2959 0Z" fill="white"/>
<path d="M19.2308 2.71296C19.2308 2.65692 19.2082 2.60345 19.1635 2.55297C19.1185 2.50244 19.0678 2.47705 19.0119 2.47705H17.7143C17.5904 2.47705 17.4894 2.5335 17.4109 2.64553L15.6247 5.27448L14.8833 2.74674C14.8269 2.56714 14.7034 2.47705 14.5126 2.47705H13.2485C13.1922 2.47705 13.1417 2.50239 13.097 2.55297C13.052 2.60345 13.0296 2.65697 13.0296 2.71296C13.0296 2.73562 13.1392 3.06686 13.3582 3.70721C13.5772 4.3477 13.8131 5.03863 14.0659 5.78013C14.3187 6.52148 14.4506 6.91489 14.4619 6.95955C13.5406 8.21788 13.0801 8.89196 13.0801 8.98169C13.0801 9.12787 13.1531 9.2008 13.2992 9.2008H14.5968C14.7203 9.2008 14.8213 9.14476 14.9001 9.03237L19.1972 2.83091C19.2196 2.8086 19.2308 2.76946 19.2308 2.71296Z" fill="white"/>
<path d="M31.3133 2.47733H30.0325C29.8752 2.47733 29.7799 2.66276 29.7463 3.03351C29.4538 2.58431 28.9205 2.35938 28.1452 2.35938C27.3364 2.35938 26.6481 2.66276 26.081 3.26941C25.5136 3.87607 25.23 4.5896 25.23 5.4096C25.23 6.07256 25.4237 6.60051 25.8113 6.99357C26.1989 7.38703 26.7184 7.58338 27.3702 7.58338C27.6959 7.58338 28.0273 7.51585 28.3643 7.38116C28.7014 7.24637 28.9651 7.06671 29.1564 6.84193C29.1564 6.85321 29.145 6.90369 29.1227 6.99352C29.1 7.08355 29.089 7.15108 29.089 7.19573C29.089 7.3757 29.1618 7.46532 29.3081 7.46532H30.4709C30.684 7.46532 30.8078 7.35881 30.8415 7.14521L31.5324 2.74697C31.5435 2.67955 31.5267 2.61784 31.4819 2.56159C31.4368 2.5055 31.3807 2.47733 31.3133 2.47733ZM29.1143 5.79715C28.8278 6.07802 28.4824 6.21838 28.0779 6.21838C27.752 6.21838 27.4882 6.12865 27.2859 5.94879C27.0836 5.76933 26.9825 5.52215 26.9825 5.20733C26.9825 4.79193 27.1229 4.44059 27.4038 4.15416C27.6844 3.86767 28.033 3.72443 28.4487 3.72443C28.7629 3.72443 29.0242 3.81714 29.2322 4.00242C29.4399 4.18784 29.544 4.44348 29.544 4.76931C29.544 5.1737 29.4007 5.51643 29.1143 5.79715Z" fill="white"/>
<path d="M12.1702 2.47733H10.8895C10.7319 2.47733 10.6367 2.66276 10.6029 3.03351C10.2996 2.58431 9.76592 2.35938 9.00201 2.35938C8.19313 2.35938 7.50494 2.66276 6.93769 3.26941C6.37028 3.87607 6.08673 4.5896 6.08673 5.4096C6.08673 6.07256 6.28055 6.60051 6.66815 6.99357C7.05574 7.38703 7.5752 7.58338 8.22687 7.58338C8.54127 7.58338 8.86727 7.51585 9.20423 7.38116C9.54124 7.24637 9.81089 7.06671 10.0131 6.84193C9.96804 6.97672 9.94568 7.09473 9.94568 7.19573C9.94568 7.3757 10.0187 7.46532 10.1647 7.46532H11.3275C11.5408 7.46532 11.6645 7.35881 11.6982 7.14521L12.3891 2.74697C12.4002 2.67955 12.3834 2.61784 12.3386 2.56159C12.2936 2.5055 12.2375 2.47733 12.1702 2.47733ZM9.97102 5.80549C9.68449 6.08106 9.33326 6.21838 8.91785 6.21838C8.59185 6.21838 8.33066 6.12865 8.13421 5.94879C7.9375 5.76933 7.83928 5.52215 7.83928 5.20733C7.83928 4.79193 7.97964 4.44059 8.26061 4.15416C8.54127 3.86767 8.88957 3.72443 9.30539 3.72443C9.61979 3.72443 9.88099 3.81714 10.089 4.00242C10.2967 4.18784 10.4007 4.44348 10.4007 4.76931C10.4007 5.18498 10.2575 5.53054 9.97102 5.80549Z" fill="white"/>
<path d="M24.9856 0.446468C24.553 0.149063 23.9886 0 23.292 0H20.6127C20.3878 0 20.2642 0.106775 20.2419 0.32012L19.1466 7.19551C19.1352 7.26304 19.1521 7.32479 19.1971 7.38094C19.2417 7.43718 19.2982 7.46515 19.3656 7.46515H20.7474C20.8821 7.46515 20.972 7.39222 21.017 7.24614L21.3204 5.29148C21.3315 5.20165 21.3709 5.12861 21.4383 5.07237C21.5058 5.01622 21.5899 4.9795 21.6911 4.96265C21.7922 4.94597 21.8875 4.93757 21.9776 4.93757C22.0674 4.93757 22.1741 4.94324 22.2977 4.95441C22.4212 4.96564 22.5001 4.9711 22.5336 4.9711C23.4998 4.9711 24.258 4.69888 24.8086 4.15388C25.359 3.60909 25.6343 2.85368 25.6343 1.88734C25.6343 1.22459 25.418 0.744336 24.9856 0.446468ZM23.2583 3.21861C23.0111 3.38709 22.6404 3.4713 22.1461 3.4713L21.6069 3.48815L21.8934 1.68502C21.9156 1.56156 21.9886 1.49975 22.1124 1.49975H22.4156C22.6627 1.49975 22.8593 1.51098 23.0056 1.53338C23.1514 1.55599 23.292 1.62604 23.4268 1.744C23.5617 1.86195 23.6291 2.03337 23.6291 2.25799C23.6291 2.7299 23.5053 3.04997 23.2583 3.21861Z" fill="white"/>
</svg>
