<svg width="21" height="20" viewBox="0 0 21 20" fill="none" xmlns="http://www.w3.org/2000/svg">
<path d="M10.9117 0C5.38808 0 0.911682 4.47758 0.911682 10C0.911682 15.5224 5.38808 20 10.9117 20C16.4353 20 20.9117 15.5224 20.9117 10C20.9117 4.47758 16.4341 0 10.9117 0ZM13.3919 11.6886C13.3919 12.4293 13.1765 12.9831 12.7446 13.3511C12.4263 13.6232 11.9873 13.7948 11.43 13.8646V14.2196C11.43 14.5154 11.1898 14.7557 10.8928 14.7557C10.7448 14.7557 10.6111 14.6953 10.5141 14.5983C10.4171 14.5012 10.3567 14.3675 10.3567 14.2196V13.8788C10.1733 13.8599 9.99818 13.8256 9.82779 13.7794C9.52368 13.6978 9.24087 13.5747 8.97463 13.4114C8.85867 13.3404 8.74507 13.26 8.63503 13.1724C8.39955 12.9843 8.36169 12.6399 8.55338 12.408L8.57586 12.3796C8.76401 12.1524 9.10243 12.1181 9.32962 12.3074C9.47516 12.4305 9.629 12.5311 9.79111 12.6115C10.0976 12.7642 10.4313 12.8411 10.7922 12.8411C11.2915 12.8411 11.6631 12.7429 11.9092 12.5453C12.153 12.35 12.276 12.0554 12.276 11.6625V11.6566C12.276 11.3833 12.2098 11.1738 12.0796 11.0259C11.9471 10.878 11.7743 10.768 11.5589 10.697C11.3424 10.6248 11.1069 10.5668 10.8513 10.5206C10.5886 10.4721 10.32 10.4153 10.0479 10.3503C9.7769 10.284 9.52605 10.1846 9.29886 10.0473C9.07048 9.91007 8.88707 9.71246 8.74863 9.45095C8.61018 9.18945 8.54155 8.83682 8.54155 8.39546V8.39072C8.54155 7.62513 8.74981 7.05124 9.16751 6.67022C9.46097 6.40161 9.85619 6.22648 10.3567 6.1472V5.78038C10.3567 5.48456 10.5969 5.24435 10.8928 5.24435C11.0418 5.24435 11.1756 5.3047 11.2726 5.40173C11.3696 5.49876 11.43 5.63247 11.43 5.78038V6.11762C11.6666 6.14365 11.9009 6.19453 12.1328 6.26908C12.2985 6.32351 12.463 6.39096 12.6275 6.47024C12.9316 6.61697 13.0333 7.00036 12.8345 7.27251L12.8274 7.28316C12.6736 7.49379 12.3896 7.56952 12.1577 7.45001C12.0323 7.38493 11.9068 7.33168 11.7814 7.2879C11.5329 7.20151 11.2868 7.15892 11.0454 7.15892C10.5792 7.15892 10.2313 7.25476 10.0017 7.44527C9.77099 7.63697 9.65739 7.92451 9.65739 8.30553V8.31144C9.65739 8.59898 9.73194 8.81789 9.88458 8.9658C10.0384 9.1149 10.2384 9.22494 10.4857 9.29712C10.733 9.36931 10.9957 9.43794 11.2773 9.49947C11.5294 9.55627 11.7802 9.62371 12.0287 9.70299C12.2784 9.78227 12.5068 9.89587 12.7138 10.0473C12.9197 10.1976 13.0854 10.4035 13.2085 10.6626C13.3303 10.923 13.3919 11.2602 13.3919 11.6779V11.6886Z" fill="url(#paint0_linear_28_364)"/>
<defs>
<linearGradient id="paint0_linear_28_364" x1="1.51161" y1="6.5791" x2="20.3106" y2="13.4209" gradientUnits="userSpaceOnUse">
<stop stop-color="#009F6A"/>
<stop offset="1" stop-color="#FFCC16"/>
</linearGradient>
</defs>
</svg>
