<svg width="20" height="20" viewBox="0 0 20 20" fill="none" xmlns="http://www.w3.org/2000/svg">
<path d="M11.1928 8.2547L9.58823 9.86043L8.79424 9.06644C8.70549 8.97769 8.55877 8.97769 8.47002 9.06644C8.38127 9.15519 8.38009 9.30192 8.47002 9.39185L9.58823 10.5101L11.5182 8.58011C11.6081 8.49018 11.6081 8.34582 11.5182 8.2547C11.4283 8.16477 11.2827 8.16477 11.1928 8.2547Z" fill="url(#paint0_linear_28_368)"/>
<path d="M12.8706 8.32677C12.7535 8.20016 12.6837 8.03805 12.6719 7.86647L12.6139 6.95771C12.6091 6.86541 12.5393 6.79086 12.447 6.77903L11.543 6.66898C11.3726 6.64887 11.214 6.5684 11.0957 6.44534L10.4674 5.78506C10.4047 5.7188 10.3017 5.70697 10.2248 5.75666L9.46159 6.25365C9.31722 6.34713 9.14446 6.38736 8.97407 6.36843L8.06885 6.26785C7.97774 6.2572 7.89254 6.31399 7.86414 6.40156L7.59909 7.27246C7.54939 7.43694 7.44171 7.58012 7.29971 7.67478L6.54122 8.17886C6.46431 8.22974 6.43472 8.32914 6.47141 8.41197L6.82758 9.25093C6.89503 9.4083 6.90568 9.58698 6.85716 9.75027L6.5992 10.6259C6.57435 10.7123 6.61459 10.807 6.69623 10.8484L7.50797 11.2613C7.66062 11.3406 7.78368 11.4684 7.85231 11.6258L8.21795 12.4612C8.25344 12.5452 8.34574 12.5914 8.43449 12.5712L8.69363 12.5109L8.95869 12.4494L9.32196 12.3642C9.37757 12.3523 9.43319 12.3464 9.48998 12.3464C9.60358 12.3464 9.71717 12.3724 9.82012 12.4221L9.87337 12.4494L10.6354 12.8268C10.7182 12.8682 10.8176 12.8446 10.8733 12.7712L11.1158 12.4494L11.4211 12.0435C11.5241 11.9062 11.6732 11.8092 11.84 11.769L12.7251 11.5548C12.8139 11.5323 12.8754 11.4507 12.8706 11.3584L12.8221 10.4484C12.8127 10.278 12.8647 10.1064 12.9653 9.96918L13.5061 9.23554C13.5605 9.16218 13.5546 9.05923 13.4919 8.99178L12.8706 8.32677ZM10.0343 11.8672C8.6179 11.8672 7.46892 10.7182 7.46892 9.30062C7.46892 7.88304 8.6179 6.73525 10.0343 6.73525C11.4507 6.73525 12.6009 7.88422 12.6009 9.30062C12.6009 10.717 11.4519 11.8672 10.0343 11.8672Z" fill="url(#paint1_linear_28_368)"/>
<path d="M10 0C4.47639 0 0 4.47758 0 10C0 15.5224 4.47639 20 10 20C15.5236 20 20 15.5224 20 10C20 4.47758 15.5224 0 10 0ZM13.951 9.56336L13.4102 10.2958C13.3842 10.3325 13.3712 10.3751 13.3736 10.4189L13.4221 11.3288C13.4398 11.6862 13.202 12.0057 12.8553 12.0909L11.9702 12.3051C11.9264 12.3145 11.8885 12.3405 11.8625 12.376L11.3146 13.1038C11.3087 13.1121 11.3004 13.1203 11.2933 13.1286V16.0088L9.99408 14.7095L8.69365 16.0088V13.0766L8.55994 13.1085C8.21087 13.189 7.8547 13.0091 7.71152 12.6825L7.34706 11.8483C7.32931 11.8069 7.29736 11.7738 7.25831 11.7536L6.44658 11.3407C6.12827 11.1786 5.96971 10.8117 6.07029 10.4686L6.32706 9.59531C6.3389 9.55271 6.33771 9.50775 6.31997 9.46752L5.96379 8.62856C5.82298 8.29961 5.93894 7.9174 6.23595 7.7198L6.99444 7.21453C7.03113 7.19086 7.05834 7.15418 7.07135 7.11158L7.33641 6.24068C7.44172 5.89989 7.77423 5.68098 8.12922 5.71885L9.03562 5.82061C9.0794 5.82535 9.12318 5.8147 9.16105 5.79103L9.92427 5.29405C10.2236 5.0988 10.62 5.14614 10.8662 5.40409L11.4945 6.06437C11.5253 6.09514 11.5667 6.11644 11.6105 6.12235L12.5145 6.2324C12.8695 6.27618 13.1428 6.5649 13.1653 6.92226L13.2233 7.83221C13.2257 7.87481 13.2434 7.91741 13.2742 7.94935L13.8954 8.61555C14.1392 8.87705 14.1628 9.27464 13.951 9.56336Z" fill="url(#paint2_linear_28_368)"/>
<defs>
<linearGradient id="paint0_linear_28_368" x1="8.59545" y1="8.65821" x2="11.1715" y2="9.59537" gradientUnits="userSpaceOnUse">
<stop stop-color="#009F6A"/>
<stop offset="1" stop-color="#FFCC16"/>
</linearGradient>
<linearGradient id="paint1_linear_28_368" x1="6.52347" y1="8.11852" x2="13.1842" y2="10.5419" gradientUnits="userSpaceOnUse">
<stop stop-color="#009F6A"/>
<stop offset="1" stop-color="#FFCC16"/>
</linearGradient>
<linearGradient id="paint2_linear_28_368" x1="0.599929" y1="6.5791" x2="19.3989" y2="13.4209" gradientUnits="userSpaceOnUse">
<stop stop-color="#009F6A"/>
<stop offset="1" stop-color="#FFCC16"/>
</linearGradient>
</defs>
</svg>
