<svg width="20" height="20" viewBox="0 0 20 20" fill="none" xmlns="http://www.w3.org/2000/svg">
<path d="M9.97161 6.46778C8.01208 6.47251 6.43948 8.06522 6.45131 10.0342C6.46315 11.9594 8.05822 13.5474 9.97871 13.5474C11.8992 13.5474 13.5298 11.9571 13.525 9.99872C13.5227 8.03209 11.943 6.46423 9.97161 6.46778ZM10.7147 8.73142C10.7336 8.50186 10.8958 8.37761 11.117 8.37643C11.3525 8.37406 11.5063 8.50659 11.5359 8.74798C11.5489 8.85921 11.5383 8.97281 11.5383 9.08522H11.5525C11.5466 9.19763 11.5501 9.31123 11.5324 9.42128C11.4969 9.64728 11.3572 9.77153 11.1289 9.7739C10.8993 9.77626 10.7407 9.65912 10.7171 9.43311C10.6922 9.20118 10.6946 8.96334 10.7147 8.73142ZM8.44043 9.03907C8.43214 8.57996 8.56112 8.37525 8.85103 8.3717C9.14567 8.36815 9.28175 8.57522 9.28057 9.02961C9.28057 9.15149 9.2853 9.27455 9.2711 9.39524C9.24152 9.63309 9.10426 9.77153 8.8605 9.7739C8.61674 9.77626 8.47356 9.64255 8.4428 9.40471C8.42741 9.28401 8.44043 9.16095 8.44043 9.03907ZM12.7784 10.7288C12.4175 11.9547 11.2649 12.8138 9.98463 12.8102C8.70312 12.8067 7.54823 11.9405 7.19679 10.7193C7.11278 10.4271 7.2098 10.1951 7.45001 10.1182C7.68904 10.0425 7.90321 10.1762 8.00379 10.4649C8.33038 11.3938 9.07586 11.9571 9.98463 11.9606C10.8922 11.963 11.6554 11.3938 11.9726 10.4744C12.0791 10.1644 12.2932 10.0307 12.5429 10.1182C12.7772 10.1999 12.8659 10.4306 12.7784 10.7288Z" fill="url(#paint0_linear_28_365)"/>
<path d="M10 0C4.47639 0 0 4.47758 0 10C0 15.5224 4.47639 20 10 20C15.5236 20 20 15.5224 20 10C20 4.47758 15.5224 0 10 0ZM14.3971 10.0686C14.3971 10.0911 14.3971 10.1136 14.3959 10.1349C14.3947 10.1396 14.3947 10.142 14.3947 10.1455C14.3924 10.2319 14.3876 10.3159 14.3794 10.4011C14.377 10.4378 14.3734 10.4757 14.3687 10.5124C14.3675 10.5218 14.3663 10.5313 14.3652 10.5408C14.3604 10.5774 14.3557 10.6153 14.351 10.652C14.345 10.6887 14.3391 10.7254 14.3332 10.7609V10.7632C14.3261 10.8035 14.319 10.8425 14.3107 10.8827C14.3024 10.923 14.2942 10.9632 14.2847 11.0034C14.2764 11.0354 14.2681 11.0685 14.261 11.1005C14.2539 11.1289 14.2457 11.1561 14.2386 11.1845C13.7439 12.9417 11.9832 14.6432 9.40598 14.3711V14.3794C8.54692 14.2658 7.76713 13.906 7.1388 13.3712C7.14353 13.3688 7.14945 13.3653 7.15418 13.3629C6.13063 12.4435 5.59342 11.3111 5.6017 9.94202C5.6088 8.90427 5.95787 7.98249 6.61578 7.18258C7.7411 5.8147 9.57756 5.28931 11.2507 5.78156C11.291 5.79458 11.3324 5.8076 11.3726 5.81943C11.3726 5.81943 11.3734 5.81982 11.375 5.82061C11.4046 5.83008 11.4341 5.84073 11.4625 5.85138C11.5111 5.86794 11.5572 5.88569 11.6045 5.90344C11.6329 5.91409 11.659 5.92592 11.6862 5.93657C12.518 6.28446 13.2209 6.87966 13.7025 7.63105C13.7416 7.69021 13.7771 7.75056 13.8126 7.81328C13.8268 7.83576 13.8398 7.85942 13.8528 7.88309C13.8682 7.91267 13.8847 7.94225 13.9001 7.97184C13.9191 8.00852 13.938 8.04638 13.9557 8.08425L13.9983 8.173C14.0185 8.21914 14.0386 8.26529 14.0575 8.31144C14.0776 8.35759 14.0954 8.40374 14.1131 8.45107C14.119 8.46645 14.1261 8.48302 14.1309 8.49959C14.1616 8.58242 14.1889 8.66643 14.2137 8.75163C14.2208 8.77293 14.2267 8.79541 14.2326 8.81671C14.235 8.82381 14.2374 8.82972 14.2374 8.83682C14.2457 8.86167 14.2516 8.8877 14.2587 8.91255C14.2953 9.0581 14.3249 9.20483 14.3486 9.35392C14.3486 9.35747 14.3498 9.36102 14.351 9.36575C14.3545 9.39889 14.3592 9.43202 14.3628 9.46515C14.3628 9.46752 14.364 9.4687 14.364 9.46988C14.3699 9.50538 14.3734 9.5397 14.3758 9.5752C14.3758 9.57638 14.377 9.57875 14.377 9.57993C14.3794 9.61661 14.3841 9.65329 14.3865 9.68998C14.3876 9.71246 14.3888 9.73376 14.39 9.75742C14.3912 9.77399 14.3924 9.79056 14.3924 9.8083C14.3947 9.83434 14.3947 9.86037 14.3959 9.88759V9.91362C14.3971 9.94438 14.3971 9.97515 14.3971 10.0071V10.0686Z" fill="url(#paint1_linear_28_365)"/>
<defs>
<linearGradient id="paint0_linear_28_365" x1="6.66312" y1="8.79531" x2="13.3132" y2="11.2163" gradientUnits="userSpaceOnUse">
<stop stop-color="#009F6A"/>
<stop offset="1" stop-color="#FFCC16"/>
</linearGradient>
<linearGradient id="paint1_linear_28_365" x1="0.599929" y1="6.5791" x2="19.3989" y2="13.4209" gradientUnits="userSpaceOnUse">
<stop stop-color="#009F6A"/>
<stop offset="1" stop-color="#FFCC16"/>
</linearGradient>
</defs>
</svg>
