<svg width="34" height="10" viewBox="0 0 34 10" fill="none" xmlns="http://www.w3.org/2000/svg">
<path d="M12.0904 9.88588L13.8038 0.198052H16.5442L14.8297 9.88588H12.0904ZM24.7301 0.406893C24.1872 0.210622 23.3364 0 22.274 0C19.5662 0 17.6588 1.31391 17.6426 3.19709C17.6273 4.5892 19.0043 5.36577 20.0437 5.82917C21.1104 6.30402 21.469 6.60684 21.4639 7.0309C21.4572 7.68024 20.6121 7.97692 19.8245 7.97692C18.7276 7.97692 18.1449 7.83009 17.245 7.46838L16.8918 7.31447L16.5072 9.48319C17.1473 9.7536 18.3309 9.98787 19.5598 10C22.4404 10 24.3104 8.70113 24.3317 6.69012C24.342 5.58807 23.6119 4.74939 22.0309 4.05794C21.073 3.60982 20.4864 3.31072 20.4926 2.85696C20.4926 2.45427 20.9892 2.02363 22.062 2.02363C22.9581 2.01026 23.6073 2.19857 24.1131 2.39479L24.3586 2.50663L24.7301 0.406893ZM31.782 0.197903H29.6644C29.0084 0.197903 28.5175 0.370469 28.2294 1.0013L24.1596 9.8795H27.0373C27.0373 9.8795 27.5077 8.68569 27.6141 8.42365C27.9287 8.42365 30.7241 8.42781 31.1238 8.42781C31.2057 8.76695 31.4571 9.8795 31.4571 9.8795H34L31.782 0.197607V0.197903ZM28.4223 6.45372C28.6489 5.89554 29.5141 3.74557 29.5141 3.74557C29.4979 3.7714 29.739 3.18467 29.8774 2.82093L30.0626 3.65624C30.0626 3.65624 30.5874 5.96878 30.697 6.45372H28.4223ZM9.76405 0.197903L7.08113 6.80459L6.79522 5.46197C6.29577 3.91433 4.73964 2.23756 3 1.39809L5.45315 9.87049L8.35259 9.86732L12.6668 0.197804H9.76405" fill="white"/>
<path d="M4.68334 0.000226116H0.0367767L0 0.229719C3.61492 1.14273 6.00687 3.34914 7 6L5.98959 0.931213C5.81515 0.232818 5.3093 0.0243973 4.68344 0" fill="white"/>
</svg>
